<?xml version="1.0" encoding="utf-8"?>
<!-- Generator: Adobe Illustrator 27.5.0, SVG Export Plug-In . SVG Version: 6.00 Build 0)  -->
<svg version="1.1" xmlns="http://www.w3.org/2000/svg" xmlns:xlink="http://www.w3.org/1999/xlink" x="0px" y="0px"
	 viewBox="0 0 499.999 500" style="enable-background:new 0 0 499.999 500;" xml:space="preserve">
<g id="BACKGROUND">
	<rect style="fill;" width="499.999" height="500"/>
</g>
<g id="OBJECTS">
	<g id="SHADOWS">
		<ellipse style="fill-rule:evenodd;clip-rule:evenodd;fill:#ECECEC;" cx="160.287" cy="400.626" rx="123.718" ry="24.22"/>
		<ellipse style="fill-rule:evenodd;clip-rule:evenodd;fill:#ECECEC;" cx="381.997" cy="400.626" rx="89.572" ry="24.22"/>
	</g>
	<g id="RUPEE">
		<g id="RUPEE_COIN_1_">
			
				<path style="fill-rule:evenodd;clip-rule:evenodd;fill:#BA440F;stroke:#280A2B;stroke-width:3.2866;stroke-linecap:round;stroke-miterlimit:10;" d="
				M169.348,249.751c-25.084,25.083-25.081,65.754,0,90.836c25.084,25.087,65.752,25.087,90.84,0
				c25.082-25.082,25.084-65.753,0-90.836C235.1,224.667,194.432,224.667,169.348,249.751z"/>
			<path style="fill-rule:evenodd;clip-rule:evenodd;fill:#BA440F;" d="M250.952,340.938c19.987-19.983,19.984-52.383,0-72.365
				c-19.983-19.987-52.382-19.987-72.373,0c-19.98,19.982-19.98,52.382,0,72.365C198.563,360.925,230.969,360.925,250.952,340.938z"
				/>
			
				<path style="fill-rule:evenodd;clip-rule:evenodd;fill:#DD730A;stroke:#280A2B;stroke-width:3.2866;stroke-linecap:round;stroke-miterlimit:10;" d="
				M250.952,331.235c8.758-8.756,13.676-19.895,14.759-31.328c-1.083-11.435-6.001-22.577-14.759-31.334
				c-19.983-19.987-52.382-19.987-72.373,0c-8.754,8.757-13.673,19.895-14.753,31.331c1.081,11.434,5.999,22.575,14.753,31.331
				C198.563,351.223,230.969,351.223,250.952,331.235z"/>
			
				<path style="fill-rule:evenodd;clip-rule:evenodd;fill:#FFB600;stroke:#280A2B;stroke-width:3.2866;stroke-linecap:round;stroke-miterlimit:10;" d="
				M260.188,259.336c-25.088-25.086-65.756-25.086-90.84,0c-25.084,25.081-25.081,65.756,0,90.837
				c25.084,25.085,65.752,25.085,90.84,0C285.27,325.086,285.272,284.417,260.188,259.336z M250.956,340.938
				c-19.99,19.987-52.39,19.987-72.372,0c-19.984-19.982-19.987-52.382,0-72.365c19.982-19.987,52.389-19.987,72.372,0
				C270.936,288.556,270.936,320.956,250.956,340.938z"/>
			<g>
				
					<path style="fill-rule:evenodd;clip-rule:evenodd;fill:#BA440F;stroke:#280A2B;stroke-width:3.2866;stroke-linecap:round;stroke-linejoin:round;stroke-miterlimit:10;" d="
					M210.482,307.15c9.971,0,13.725-7.611,13.725-17.585v-2.503h11.906v-7.438h-12.077c-0.415-3.059-1.595-5.884-3.351-8.271h3.066
					h12.362v-7.435h-30.039h-8.035h-4.618v0.603v6.832h5.982h4.095h1.209c5.292,0,9.806,3.484,11.375,8.271h-22.662v7.438h23.254
					v1.227c0,6.585-5.386,11.973-11.967,11.973h-1.209h-4.095h-2.081l-0.016-0.018l-0.017,0.018h-3.869v3.868v2.744v0.221
					c0.09,0.022,0.187,0.039,0.28,0.06l19.792,19.797l6.771,6.77l10.498,5.782l0.011-5.791l-0.011-2.566L207.4,308.212
					L210.482,307.15z"/>
				
					<path style="fill-rule:evenodd;clip-rule:evenodd;fill:#FFB600;stroke:#280A2B;stroke-width:3.2866;stroke-linecap:round;stroke-linejoin:round;stroke-miterlimit:10;" d="
					M206.074,314.253c9.97,0,18.133-8.16,18.133-18.134v-2.503h11.906v-7.435h-12.077c-0.415-3.061-1.595-5.885-3.351-8.273h3.066
					h12.362v-7.434h-30.039h-8.035h-4.618v0.603v6.831h5.982h4.095h1.209c5.292,0,9.806,3.485,11.375,8.273h-22.662v7.435h23.254
					v1.227c0,6.586-5.386,11.973-11.967,11.973h-1.209h-4.095h-2.081l-0.016-0.017l-0.017,0.017h-3.869v3.868v2.746v0.222
					c0.09,0.021,0.187,0.037,0.28,0.058l19.792,19.8l6.771,6.769h10.498l0.011-0.011l-26.014-26.014H206.074z"/>
			</g>
		</g>
		<g id="HEAD">
			<path style="fill-rule:evenodd;clip-rule:evenodd;fill:#BC775C;" d="M130.774,182.387c0,0,5.428-3.79,8.979,2.105
				c3.551,5.895-2.355,15.097-10.176,11.422C127.298,194.69,127.336,187.795,130.774,182.387z"/>
			<path style="fill-rule:evenodd;clip-rule:evenodd;fill:#F2AE8F;" d="M135.067,178.207c-0.83-14.05-29.106-14.697-37.175-2.305
				c-2.695,4.138-2.94,8.08-1.984,11.564c-0.157,0.216-0.315,0.426-0.466,0.676c-3.463,5.749,2.07,14.638,9.601,11.665
				c0.505,0.39,3.512,7.505,3.512,7.505h14.409c0,0,0.865-1.729,3.458-2.882C141.407,197.227,135.067,178.207,135.067,178.207z"/>
			<path style="fill-rule:evenodd;clip-rule:evenodd;fill:#BC775C;" d="M95.442,188.142c0,0,2.163-3.691,7.926-1.962
				c-3.842,0.577-8.352,2.124-8.883,7.114C93.906,190.311,95.442,188.142,95.442,188.142z"/>
			<path style="fill-rule:evenodd;clip-rule:evenodd;fill:#BC775C;" d="M97.172,192.087c0,0,2.69-4.645,5.859-2.581
				c1.933,1.259,2.593,3.734,2.113,6.231c-0.48-0.528-3.796,0.047-2.018,2.257c-1.297-0.384-1.922-3.121-0.288-3.409
				c1.633-0.288,1.633-0.288,1.633-0.288S102.503,186.949,97.172,192.087z"/>
			<path style="fill-rule:evenodd;clip-rule:evenodd;fill:#BC775C;" d="M125.02,205.208c-13.071,2.386-18.086-2.662-19.509-4.645
				c0.999,1.913,3.188,9.471,3.188,9.471h14.805c0,0,0.016-3.798,1.521-4.82C125.023,205.212,125.022,205.21,125.02,205.208z"/>
			<path style="fill-rule:evenodd;clip-rule:evenodd;fill:#BC775C;" d="M123.732,187.21c0,0,4.611,5.118,2.497,7.999
				C124.117,198.091,122.989,191.682,123.732,187.21z"/>
			<path style="fill-rule:evenodd;clip-rule:evenodd;fill:#5E4F45;" d="M103.368,186.354c0,0-0.939-3.739,1.167-9.341
				c1.724,11.096,14.919,7.061,20.49,8.707c-0.273-4.532-2.697-6.592-2.697-6.592s5.871,4.946,10.242,6.592
				c0.946-4.532-0.989-7.796-0.989-7.796s3.319,5.581,2.826,9.37c3.733-2.165,10.233-11.495,6.401-22.3
				c-4.41-12.434-29.357-15.991-41.948-6.653c-11.823,8.768-11.614,21.117-3.419,29.803
				C97.665,186.466,99.141,185.304,103.368,186.354z"/>
		</g>
		<path style="fill-rule:evenodd;clip-rule:evenodd;fill:#280A2B;" d="M149.311,306.013c-5.184-14.126-12.23-31.587-12.23-31.587
			s-20.809,4.62-42.727-0.411c0,0-2.961,3.324,0.576,60.961c0,0-12.504,9.702-19.036,48.126c4.227,1.152,10.759,1.745,10.759,1.745
			s21.901-39.401,23.438-44.013c1.537-4.61,9.798-38.038,9.798-38.038s17.868,20.747,18.828,22.285
			c-2.882,1.921-9.841,11.911-11.933,46.493c5.977,0.384,11.933,0.768,11.933,0.768s11.073-34.512,14.804-45.559
			C151.182,318.916,149.953,311.613,149.311,306.013z"/>
		<g id="HAND_2_">
			<path style="fill-rule:evenodd;clip-rule:evenodd;fill:#FCC3AC;" d="M158.212,286.043c0,0,8.386,4.21,11.629,0.395
				c3.246-3.819,2.32-11.376-3.684-11.933c2.486-2.375-2.587-4.978-7.945-2.545C159.608,275.759,158.789,284.33,158.212,286.043z"/>
			<path style="fill-rule:evenodd;clip-rule:evenodd;fill:#F7A98D;" d="M158.212,286.043c0,0,3.4-6.754,5.913-14.896
				c-2.682-0.675-5.913,0.814-5.913,0.814s-1.199,6.229-2.497,13.095C157.729,285.975,158.212,286.043,158.212,286.043z"/>
		</g>
		<g id="TOP">
			<path style="fill-rule:evenodd;clip-rule:evenodd;fill:#56968F;" d="M138.718,236.899c1.441,1.787,13.976,12.224,21.533,21.312
				c3.637-5.509,11.905-13.124,13.799-14.809c-8.249-9.633-18.89-21.753-23.513-25.716c-6.655-5.704-15.15-11.708-22.53-9.51
				c-6.771,2.017-8.212,5.667-25.935,0c0,0-0.01,0-0.029,0c-0.013,0-0.029,0-0.055,0.001c-0.014,0-0.026,0-0.044,0.001
				c-0.032,0.001-0.068,0.002-0.113,0.003c-0.005,0-0.011,0.001-0.017,0.001c-0.644,0.024-2.475,0.159-4.804,0.882
				c-0.002,0-0.004,0.001-0.005,0.001c-0.193,0.06-0.388,0.124-0.587,0.192c-0.001,0-0.002,0.001-0.004,0.001
				c-0.001,0.001-0.001,0.001-0.002,0.001c-2.68,0.919-5.892,2.628-8.684,5.781c-0.021,0.024-0.043,0.047-0.063,0.071
				c-0.699,0.797-1.37,1.685-1.999,2.675c-0.046,0.072-0.091,0.148-0.136,0.222c-0.256,0.414-0.504,0.845-0.745,1.294
				c-0.058,0.108-0.117,0.215-0.173,0.325c-0.547,1.061-1.047,2.219-1.488,3.485c-0.059,0.168-0.114,0.343-0.17,0.516
				c-0.158,0.482-0.308,0.98-0.448,1.493c-0.054,0.196-0.109,0.39-0.16,0.59c-0.177,0.694-0.342,1.406-0.483,2.156
				c-0.071,0.379-0.122,0.761-0.153,1.147c-0.013,0.167-0.008,0.338-0.014,0.507c-0.007,0.22-0.023,0.439-0.018,0.661
				c0.005,0.213,0.029,0.429,0.046,0.644c0.014,0.182,0.017,0.362,0.039,0.545c0.028,0.237,0.076,0.478,0.117,0.717
				c0.028,0.164,0.046,0.326,0.081,0.491c0.055,0.264,0.129,0.53,0.199,0.796c0.038,0.143,0.066,0.285,0.107,0.428
				c0.083,0.285,0.186,0.573,0.285,0.86c0.044,0.128,0.08,0.253,0.127,0.381c0.115,0.311,0.249,0.625,0.382,0.938
				c0.045,0.106,0.083,0.211,0.13,0.317c0.149,0.335,0.317,0.674,0.486,1.013c0.043,0.085,0.08,0.17,0.124,0.256
				c0.183,0.356,0.383,0.714,0.588,1.073c0.04,0.069,0.075,0.139,0.115,0.208c0.218,0.375,0.452,0.751,0.692,1.128
				c0.035,0.055,0.066,0.109,0.102,0.165c0.255,0.396,0.525,0.794,0.804,1.191c0.026,0.037,0.049,0.074,0.075,0.111
				c0.287,0.406,0.587,0.814,0.896,1.223c0.023,0.03,0.044,0.06,0.066,0.09c0.319,0.419,0.652,0.84,0.995,1.262
				c0.016,0.019,0.03,0.038,0.046,0.058c0.347,0.426,0.706,0.852,1.076,1.28c0.014,0.016,0.026,0.032,0.04,0.047
				c0.376,0.434,0.764,0.868,1.161,1.303c0.009,0.01,0.017,0.02,0.026,0.029c0.402,0.439,0.815,0.878,1.238,1.318
				c0.005,0.005,0.01,0.011,0.015,0.016c0.819,0.851,1.687,1.703,2.579,2.555c-0.155,2.172-0.867,9.379-3.651,13.289
				c-3.302,4.637-2.005,7.307,1.846,10.097c3.322,2.406,27.754,3.479,36.179,1.804c0.536,0.328,2.23,1.359,2.242,1.366
				c15.047,9.118,23.786,13.349,23.786,13.349l8.879-20.06c0,0-8.879-4.78-25.407-16.541
				C138.139,246.976,138.553,237.739,138.718,236.899z"/>
			<path style="fill-rule:evenodd;clip-rule:evenodd;fill:#0B0A2D;" d="M107.25,205.298c0,0,2.608,4.396,10.526,3.6
				c5.727-0.576,7.249-3.685,7.249-3.685s3.559-2.007,4.855,1.631c1.296,3.638-4.683,7.817-12.68,8.681
				c-7.996,0.864-14.12-4.322-15.129-7.349C101.062,205.151,105.09,202.705,107.25,205.298z"/>
			<path style="opacity:0.5;fill-rule:evenodd;clip-rule:evenodd;fill:#280A2B;" d="M107.081,213.347c0,0-2.454,2.977-4.071,7.588
				c-1.618,4.611,4.973-7.099,4.973-7.099L107.081,213.347z"/>
			<path style="opacity:0.5;fill-rule:evenodd;clip-rule:evenodd;fill:#280A2B;" d="M128.006,211.458c0,0,3.412,5.365,4.372,8.823
				c0.96,3.458-5.594-7.904-5.594-7.904L128.006,211.458z"/>
			<path style="opacity:0.5;fill-rule:evenodd;clip-rule:evenodd;fill:#280A2B;" d="M138.718,236.899c0,0-0.96-6.533-3.266-9.798
				C135.26,228.83,138.718,236.899,138.718,236.899z"/>
			<path style="opacity:0.5;fill-rule:evenodd;clip-rule:evenodd;fill:#280A2B;" d="M93.576,256.109l32.229,20.121c0,0,0,0,0.001,0
				c1.088-0.112,2.062-0.248,2.881-0.411c0.536,0.328,1.057,0.684,1.602,0.978c-14.985-8.117-35.976-26.167-35.976-26.167
				C94.241,251.642,94.044,253.753,93.576,256.109z"/>
			<path style="opacity:0.5;fill-rule:evenodd;clip-rule:evenodd;fill:#280A2B;" d="M101.234,224.555c0,0-2.544,2.803,0,5.445
				c2.459,2.555,9.292,6.888,9.292,6.888c0-0.001-7.937-7.333-8.615-9.833C101.234,224.555,101.234,224.555,101.234,224.555z"/>
		</g>
		<g id="SHOES">
			<path style="fill-rule:evenodd;clip-rule:evenodd;fill:#FFFFFF;" d="M138.718,372.342l17.867,14.218l-29.8-1.713
				c0,0-1.708-1.567-1.707-3.282c0-1.711,1.707-9.99,1.707-9.99L138.718,372.342z"/>
			<path style="fill-rule:evenodd;clip-rule:evenodd;fill:#FFFFFF;" d="M75.895,383.102c0,0-3.362,10.951-3.362,14.697
				c0,3.746,24.343,15.145,24.343,15.145l-10.222-28.097L75.895,383.102z"/>
		</g>
	</g>
	<g id="USD_1_">
		<g id="USD">
			<g id="USD_COIN_1_">
				
					<path style="fill-rule:evenodd;clip-rule:evenodd;fill:#BA440F;stroke:#280A2B;stroke-width:3.2866;stroke-linecap:round;stroke-miterlimit:10;" d="
					M327.793,98.894c-25.084,25.084-25.081,65.754,0,90.838c25.085,25.085,65.753,25.085,90.842,0
					c25.081-25.085,25.084-65.754,0-90.838C393.546,73.812,352.878,73.812,327.793,98.894z"/>
				<path style="fill-rule:evenodd;clip-rule:evenodd;fill:#BA440F;" d="M337.03,99.273c-19.986,19.98-19.984,52.382,0,72.363
					c19.983,19.989,52.382,19.989,72.372,0c19.979-19.981,19.979-52.383,0-72.363C389.418,79.284,357.013,79.284,337.03,99.273z"/>
				
					<path style="fill-rule:evenodd;clip-rule:evenodd;fill:#DD730A;stroke:#280A2B;stroke-width:3.2866;stroke-linecap:round;stroke-miterlimit:10;" d="
					M337.03,108.976c-8.757,8.755-13.677,19.895-14.76,31.327c1.083,11.437,6.003,22.577,14.76,31.333
					c19.983,19.989,52.382,19.989,72.372,0c8.754-8.756,13.673-19.894,14.755-31.33c-1.082-11.434-6.001-22.575-14.755-31.33
					C389.418,88.989,357.013,88.989,337.03,108.976z"/>
				<g>
					
						<path style="fill:#BA440F;stroke:#280A2B;stroke-width:3.2866;stroke-linecap:round;stroke-linejoin:round;stroke-miterlimit:10;" d="
						M377.814,107.987c6.473,1.224,10.32,6.121,10.32,13.815v1.226l-8.917,0.874v-1.397c0-4.286-1.574-6.298-4.899-6.298
						c-2.8,0-4.72,1.662-4.72,5.159v1.14c0,3.41,1.835,6.209,7.869,11.718c8.219,7.607,11.104,12.592,11.104,19.237v1.487
						c0,7.695-4.199,12.419-10.758,13.557v6.381h-7.344v-6.381c-6.474-1.402-10.583-6.212-10.583-13.818v-3.499l8.922-0.874v3.672
						c0,4.285,1.748,6.299,5.421,6.299c2.712,0,5.072-1.663,5.072-5.162v-1.312c0-3.409-1.835-6.208-7.869-11.718
						c-8.225-7.608-11.108-12.591-11.108-19.239v-1.314c0-7.606,3.76-12.329,10.146-13.552v-5.51h7.344V107.987z"/>
					
						<path style="fill:#FFB600;stroke:#280A2B;stroke-width:3.2866;stroke-linecap:round;stroke-linejoin:round;stroke-miterlimit:10;" d="
						M377.814,101.922c6.473,1.224,10.32,6.122,10.32,13.816v1.225l-8.917,0.874v-1.399c0-4.286-1.574-6.297-4.899-6.297
						c-2.8,0-4.72,1.662-4.72,5.159v1.138c0,3.41,1.835,6.208,7.869,11.718c8.219,7.607,11.104,12.591,11.104,19.238v1.486
						c0,7.697-4.199,12.419-10.758,13.557v6.382h-7.344v-6.382c-6.474-1.401-10.583-6.21-10.583-13.817v-3.499l8.922-0.874v3.674
						c0,4.284,1.748,6.297,5.421,6.297c2.712,0,5.072-1.662,5.072-5.161v-1.312c0-3.409-1.835-6.209-7.869-11.718
						c-8.225-7.607-11.108-12.593-11.108-19.24v-1.313c0-7.606,3.76-12.329,10.146-13.553v-5.511h7.344V101.922z"/>
				</g>
				
					<path style="fill-rule:evenodd;clip-rule:evenodd;fill:#FFB600;stroke:#280A2B;stroke-width:3.2866;stroke-linecap:round;stroke-miterlimit:10;" d="
					M418.635,90.035c-25.089-25.085-65.757-25.085-90.842,0c-25.084,25.083-25.081,65.755,0,90.837
					c25.085,25.086,65.753,25.086,90.842,0C443.716,155.786,443.719,115.118,418.635,90.035z M409.402,171.636
					c-19.99,19.989-52.389,19.989-72.372,0c-19.984-19.981-19.986-52.383,0-72.363c19.983-19.989,52.389-19.989,72.372,0
					C429.381,119.253,429.381,151.655,409.402,171.636z"/>
			</g>
		</g>
		<g id="HEAD_1_">
			<path style="fill-rule:evenodd;clip-rule:evenodd;fill:#F7A98D;" d="M384.977,193.747c0,0-5.968-2.866-8.521,3.526
				c-2.553,6.39,4.761,14.519,11.887,9.631C390.393,205.328,389.243,198.529,384.977,193.747z"/>
			<path style="fill-rule:evenodd;clip-rule:evenodd;fill:#FCC3AC;" d="M380.067,190.314c-1.449-14,26.353-19.201,36.315-8.273
				c3.326,3.649,4.206,7.499,3.823,11.093c0.189,0.188,0.38,0.37,0.569,0.592c4.346,5.115,0.319,14.78-7.593,13.062
				c-0.435,0.466-2.255,7.974-2.255,7.974l-14.22,2.325c0,0-1.133-1.567-3.878-2.286
				C376.878,210.108,380.067,190.314,380.067,190.314z"/>
			<path style="fill-rule:evenodd;clip-rule:evenodd;fill:#BC775C;" d="M420.775,193.726c0,0-2.729-3.293-8.138-0.658
				c3.885-0.051,8.586,0.749,9.914,5.588C422.641,195.618,420.775,193.726,420.775,193.726z"/>
			<path style="fill-rule:evenodd;clip-rule:evenodd;fill:#BC775C;" d="M419.705,197.898c0,0-3.404-4.151-6.199-1.601
				c-1.704,1.554-1.957,4.103-1.079,6.491c0.388-0.6,3.751-0.566,2.354,1.902c1.218-0.588,1.393-3.391-0.267-3.412
				c-1.658-0.021-1.658-0.021-1.658-0.021S413.614,193.686,419.705,197.898z"/>
			<path style="fill-rule:evenodd;clip-rule:evenodd;fill:#F7A98D;" d="M394.338,215.34c13.285,0.245,17.42-5.545,18.504-7.732
				c-0.677,2.049-1.988,8.555-1.988,8.555l-14.48,1.275c0,0-0.389-1.326-2.039-2.091
				C394.336,215.345,394.336,215.342,394.338,215.34z"/>
			<path style="fill-rule:evenodd;clip-rule:evenodd;fill:#F7A98D;" d="M392.706,197.371c0,0-3.726,5.794-1.176,8.298
				C394.081,208.171,394.162,201.664,392.706,197.371z"/>
			<path style="fill-rule:evenodd;clip-rule:evenodd;fill:#5E4F45;" d="M423.899,179.42c-0.126-0.765-0.268-1.416-0.398-1.926
				c0.063,0.047,1.503,1.136,2.787,2.246c-2.146-9.383-12.264-13.959-12.264-13.959l0.256,0.317
				c-0.179-0.111-0.336-0.232-0.518-0.34c0.165,0.015,0.263,0.023,0.263,0.023s-0.28-4.909-9.554-9.515
				c1.056,1.305,1.882,3.71,2.402,5.557c-3.544-1.313-8.499-2.491-15.158-2.67c-4.347,0-9.513,0-9.513,0s4.071,2.794,8.293,4.02
				c-4.279-0.273-8.891,1.312-11.917,4.049c-4.802,4.345-6.34,6.293-10.23,13.406c1.042-0.599,4.683-3.99,5.716-4.465
				c-0.637,0.785-2.114,3.522-2.559,7.484c-0.33,2.937,0.996,8.655,0,11.82c1.13-1.685,1.852-3.321,2.271-4.444
				c2.266,4.373,5.723,7.295,7.974,8.151c-1.098-3.66,1.276-9.703,1.276-9.703s-1.381,3.534,0.282,7.854
				c4.051-2.33,6.897-11.372,26.265-13.116c2.983,5.189,2.659,9.031,2.659,9.031c4.001-1.717,5.646-0.81,8.11,0.486
				c0.834-1.235,1.525-2.507,2.088-3.798c0.022,1.12,0.026,2.59-0.05,3.807c2.262-5.829,2.053-11.009,1.533-14.211
				C423.91,179.488,423.905,179.454,423.899,179.42z"/>
		</g>
		<path id="PANTS_1_" style="fill-rule:evenodd;clip-rule:evenodd;fill:#56968F;" d="M422.555,285.689c0,0,0,6.55-3.926,60.961
			c0,0,12.504,9.703,19.037,48.125c-4.815,2.799-10.761,1.745-10.761,1.745s-23.869-40.947-25.726-45.439
			c-2.697-6.533-3.862-39.576-3.862-39.576s-7.875,28.063-8.836,29.6c3.316,5.355,1.017,18.001,2.104,44.557
			c-4.611,2.115-7.484,1.864-12.488,0.77c0,0-6.611-45.144-6.425-48.414c1.056-18.51,4.806-51.916,4.806-51.916
			S400.636,290.72,422.555,285.689z"/>
		<g id="HAND_1_">
			<path style="fill-rule:evenodd;clip-rule:evenodd;fill:#FCC3AC;" d="M409.816,158.375c0,0-4.972-7.159-1.509-10.777
				c3.467-3.621,11.078-3.474,12.248,2.441c2.107-2.716,5.216,2.064,3.346,7.644C419.979,156.683,411.462,157.625,409.816,158.375z"
				/>
			<path style="fill-rule:evenodd;clip-rule:evenodd;fill:#F7A98D;" d="M408.696,156.465c0,0,5.903-3.646,15.62-0.388
				c-0.415,1.605-0.415,1.605-0.415,1.605s-7.389-1.303-14.085,0.692C408.696,156.465,408.696,156.465,408.696,156.465z"/>
		</g>
		<g id="SHOES_1_">
			<path style="fill-rule:evenodd;clip-rule:evenodd;fill:#280A2B;" d="M378.098,386.43l-17.28,14.108l29.8-1.714
				c0,0,1.708-1.564,1.707-3.279c0-1.712-1.707-9.992-1.707-9.992L378.098,386.43z"/>
			<path style="fill-rule:evenodd;clip-rule:evenodd;fill:#280A2B;" d="M437.666,394.775c0,0,3.229,9.328,3.229,13.075
				c0,3.746-26.679,5.094-26.679,5.094l12.69-16.424L437.666,394.775z"/>
		</g>
		<g id="TOP_1_">
			<path style="fill-rule:evenodd;clip-rule:evenodd;fill:#ECECEC;" d="M429.045,223.898c-0.036-14.217-3.493-54.562-3.109-65.705
				c-1.537-3.458-14.985-1.921-18.828,1.921c0,0-0.818,47.768,2.64,65.827c-6.159-8.191-10.784-9.223-20.987-8.855
				c-2.595-0.235-17.298,4.48-20.355-7.07c-11.014-0.757-20.284-4.602-23.073-5.938c-0.53,7.776,0.076,17.171,6.446,22.125
				c12.98,10.097,24.662,9.843,25.022,13.094c0.36,3.251-1.137,24.178-4.05,32.631c-2.913,8.452-4.646,16.676,6.401,19.288
				c11.05,2.612,27.25-0.69,33.175,0c5.925,0.691,17.452-3.151,16.683-12.373C428.24,269.623,429.075,235.453,429.045,223.898z"/>
			<path style="fill-rule:evenodd;clip-rule:evenodd;fill:#280A2B;" d="M408.25,213.547c0,0-4.88,3.484-9.059,3.34
				c0,0-1.707,0.008-4.395-1.312c-0.135-0.073-0.278-0.143-0.431-0.214c-0.069-0.037-0.13-0.062-0.202-0.102
				c0.004,0.006,0.01,0.012,0.013,0.019c-0.401-0.177-0.837-0.345-1.348-0.478c-1.156-0.34-2.2-0.767-3.164-1.252l-2.448,3.539
				c0,0,5.593,11.931,6.015,11.374c1.103-1.452,4.086-7.637,6.006-10.901c1.942,4.561,4.845,13.134,4.845,13.134
				s5.773-4.049,5.665-4.753C409.638,225.236,408.25,213.547,408.25,213.547z"/>
			<path style="opacity:0.5;fill-rule:evenodd;clip-rule:evenodd;fill:#2C285B;" d="M412.842,263.185
				c-0.032-1.021-9.206,12.392-23.177,17.003C395.869,281.052,413.101,271.543,412.842,263.185z"/>
			<path style="opacity:0.5;fill-rule:evenodd;clip-rule:evenodd;fill:#2C285B;" d="M387.93,218.593c0,0-6.471,9.435-6.759,10.588
				c-0.288,1.153,7.6-8.837,7.6-8.837L387.93,218.593z"/>
			<path style="opacity:0.5;fill-rule:evenodd;clip-rule:evenodd;fill:#2C285B;" d="M376.8,239.297c0,0,1.423-4.883,3.006-8.1
				c-2.441,2.715-3.87,6.852-3.87,6.852L376.8,239.297z"/>
			<path style="opacity:0.5;fill-rule:evenodd;clip-rule:evenodd;fill:#2C285B;" d="M369.542,213.547c0,0-4.124-0.818-8.35,1.308
				c4.227-2.485,7.62-2.332,7.62-2.332L369.542,213.547z"/>
			<path style="opacity:0.5;fill-rule:evenodd;clip-rule:evenodd;fill:#2C285B;" d="M415.779,242.438c0,0-4.833-11.669-6.031-16.497
				l-1.052,1.229C408.696,227.169,413.499,239.843,415.779,242.438z"/>
		</g>
	</g>
	<g id="EXCHANGE_ARROWS_1_">
		<g>
			<g>
				<g>
					<path style="fill:none;stroke:#280A2B;stroke-width:7.4777;stroke-linecap:round;stroke-miterlimit:10;" d="M280.819,373.065
						c0,0,54.648-31.891,56.269-117.214"/>
					<g>
						<polygon style="fill:#280A2B;" points="349.739,270.749 337.068,258.058 324.384,270.736 324.39,259.971 337.074,247.301 
							349.744,259.985 						"/>
					</g>
				</g>
			</g>
			<g>
				<g>
					<path style="fill:#280A2B;" d="M268.477,383.819c5.514,0,5.514-8.551,0-8.551S262.963,383.819,268.477,383.819L268.477,383.819
						z"/>
				</g>
			</g>
			<g>
				<g>
					<path style="fill:#280A2B;" d="M251.143,388.302c4.136,0,4.136-6.412,0-6.412C247.008,381.89,247.008,388.302,251.143,388.302
						L251.143,388.302z"/>
				</g>
			</g>
		</g>
		<g>
			<g>
				<g>
					<path style="fill:none;stroke:#280A2B;stroke-width:7.4777;stroke-linecap:round;stroke-miterlimit:10;" d="M270.609,93.161
						c0,0-56.2,29.072-62.155,114.202"/>
					<g>
						<polygon style="fill:#280A2B;" points="196.577,191.842 208.586,205.16 221.898,193.143 221.345,203.893 208.034,215.902 
							196.025,202.591 						"/>
					</g>
				</g>
			</g>
			<g>
				<g>
					<path style="fill:#280A2B;" d="M283.02,91.987c5.514,0,5.514-8.551,0-8.551C277.506,83.436,277.506,91.987,283.02,91.987
						L283.02,91.987z"/>
				</g>
			</g>
			<g>
				<g>
					<path style="fill:#280A2B;" d="M300.284,85.977c4.136,0,4.136-6.413,0-6.413C296.148,79.563,296.148,85.977,300.284,85.977
						L300.284,85.977z"/>
				</g>
			</g>
		</g>
	</g>
</g>
<g id="DESIGNED_BY_FREEPIK">
	<g>
		<g id="XMLID_319_">
			<g id="XMLID_338_">
				<path id="XMLID_346_" style="fill:#1D262D;" d="M260.303,465.465c-0.434,0.443-0.805,0.932-1.109,1.453l-0.465-0.241
					c-0.066-0.297-0.35-0.502-0.658-0.466c-0.332,0.039-0.568,0.339-0.529,0.67c0.039,0.331,0.338,0.567,0.67,0.528
					c0.064-0.007,0.127-0.025,0.184-0.052l0.451,0.234c-0.252,0.554-0.434,1.139-0.539,1.743l0.746,0.132
					c0.23-1.306,0.85-2.507,1.793-3.473L260.303,465.465z"/>
				<path id="XMLID_345_" style="fill:#1D262D;" d="M265.79,463.164c-0.17,0-0.34,0.006-0.508,0.017l-0.074-0.626
					c0.188-0.149,0.295-0.389,0.266-0.645c-0.047-0.393-0.402-0.674-0.795-0.628c-0.395,0.046-0.676,0.402-0.629,0.796
					c0.031,0.254,0.189,0.461,0.404,0.563l0.074,0.624c-0.715,0.116-1.402,0.332-2.061,0.646l0.328,0.685
					c0.934-0.447,1.942-0.674,2.994-0.674c0.498,0,0.994,0.053,1.477,0.158l0.16-0.741
					C266.891,463.222,266.34,463.164,265.79,463.164z"/>
				<path id="XMLID_344_" style="fill:#1D262D;" d="M272.393,465.711c0.33-0.04,0.566-0.341,0.525-0.672
					c-0.041-0.331-0.342-0.566-0.672-0.525c-0.31,0.038-0.535,0.304-0.531,0.608l-0.416,0.363c-0.418-0.43-0.889-0.813-1.406-1.14
					l-0.404,0.642c1.135,0.715,2.02,1.727,2.563,2.925l0.691-0.313c-0.252-0.554-0.568-1.071-0.943-1.545l0.402-0.351
					C272.264,465.715,272.327,465.719,272.393,465.711z"/>
				<path id="XMLID_343_" style="fill:#1D262D;" d="M265.243,473.372c-0.385,0.023-0.775,0.035-1.156,0.035
					c-0.881,0-1.734-0.061-2.479-0.18c-0.391-0.062-0.846-0.154-1.271-0.292c1.047,1.861,3.07,3.125,5.389,3.125
					c2.855,0,5.264-1.916,5.949-4.503c-0.682,0.449-1.504,0.825-2.457,1.122C268.038,473.047,266.663,473.287,265.243,473.372z"/>
				<path id="XMLID_339_" style="fill:#1D262D;" d="M265.79,464.68c-3.352,0-6.078,2.666-6.078,5.943
					c0,0.425,0.045,0.849,0.137,1.261c0.674,0.483,2.705,0.891,5.348,0.731c2.879-0.174,5.297-0.958,6.672-2.159
					c-0.006-0.194-0.022-0.39-0.045-0.581C271.442,466.914,268.848,464.68,265.79,464.68z M263.631,471.195
					c-1.019,0-1.85-0.83-1.85-1.85c0-1.021,0.83-1.851,1.85-1.851c1.02,0,1.85,0.83,1.85,1.851
					C265.481,470.365,264.651,471.195,263.631,471.195z M268.368,470.287c-0.75,0-1.359-0.61-1.359-1.36s0.609-1.36,1.359-1.36
					s1.361,0.61,1.361,1.36S269.118,470.287,268.368,470.287z"/>
			</g>
			<path id="XMLID_336_" style="fill:#1D262D;" d="M281.793,466.547c-0.295-0.116-0.805-0.31-1.383-0.238
				c-0.551,0.069-0.844,0.341-0.844,1.007v0.866h2.228v1.717h-2.228v5.455h-1.932v-5.455h-1.338v-1.717h1.338v-0.889
				c0-1.68,0.897-2.782,2.568-2.782c0.642,0,1.158,0.121,1.59,0.308V466.547z"/>
			<path id="XMLID_334_" style="fill:#1D262D;" d="M286.497,469.878c-0.178-0.029-0.357-0.046-0.525-0.046
				c-0.897,0-1.51,0.548-1.51,1.613v3.908h-1.934v-7.172h1.873v0.784c0.451-0.673,1.141-0.977,2.021-0.977
				c0.414,0,0.848,0.128,1.094,0.337L286.497,469.878z"/>
			<path id="XMLID_331_" style="fill:#1D262D;" d="M294.165,471.757c0,0.222-0.016,0.488-0.037,0.651h-5.086
				c0.207,1.036,0.934,1.487,1.844,1.487c0.621,0,1.295-0.252,1.813-0.689l1.133,1.243c-0.814,0.748-1.85,1.089-3.057,1.089
				c-2.197,0-3.723-1.496-3.723-3.753c0-2.258,1.48-3.797,3.627-3.797C292.743,467.99,294.157,469.522,294.165,471.757z
				 M289.049,471.091h3.176c-0.178-0.918-0.732-1.437-1.563-1.437C289.753,469.655,289.219,470.203,289.049,471.091z"/>
			<path id="XMLID_328_" style="fill:#1D262D;" d="M301.817,471.757c0,0.222-0.016,0.488-0.037,0.651h-5.084
				c0.207,1.036,0.932,1.487,1.842,1.487c0.623,0,1.297-0.252,1.814-0.689l1.133,1.243c-0.815,0.748-1.852,1.089-3.059,1.089
				c-2.197,0-3.723-1.496-3.723-3.753c0-2.258,1.48-3.797,3.627-3.797C300.395,467.99,301.809,469.522,301.817,471.757z
				 M296.704,471.091h3.174c-0.178-0.918-0.732-1.437-1.561-1.437C297.407,469.655,296.874,470.203,296.704,471.091z"/>
			<path id="XMLID_325_" style="fill:#1D262D;" d="M310.163,471.764c0,2.154-1.494,3.775-3.471,3.775
				c-0.963,0-1.645-0.378-2.109-0.933v3.708h-1.926v-10.133h1.889v0.792c0.467-0.585,1.154-0.984,2.139-0.984
				C308.668,467.99,310.163,469.611,310.163,471.764z M304.485,471.764c0,1.133,0.748,1.977,1.844,1.977
				c1.141,0,1.85-0.881,1.85-1.977c0-1.095-0.709-1.976-1.85-1.976C305.233,469.789,304.485,470.632,304.485,471.764z"/>
			<path id="XMLID_322_" style="fill:#1D262D;" d="M313.266,465.836c0,0.696-0.541,1.229-1.236,1.229
				c-0.695,0-1.228-0.533-1.228-1.229c0-0.695,0.533-1.243,1.228-1.243C312.725,464.592,313.266,465.14,313.266,465.836z
				 M313.006,475.354h-1.932v-7.172h1.932V475.354z"/>
			<path id="XMLID_320_" style="fill:#1D262D;" d="M316.231,470.736l2.701-2.554h2.369l-3.479,3.375l3.5,3.797h-2.375l-2.717-2.901
				v2.901h-1.932v-10.658h1.932V470.736z"/>
		</g>
		<g>
			<path style="fill:#1D262D;" d="M184.611,475.29v-1.055c-0.527,0.718-1.391,1.23-2.387,1.23c-1.846,0-3.149-1.406-3.149-3.706
				c0-2.256,1.289-3.721,3.149-3.721c0.952,0,1.816,0.469,2.387,1.245v-3.765h1.099v9.771H184.611z M184.611,473.371v-3.208
				c-0.395-0.615-1.245-1.143-2.124-1.143c-1.421,0-2.27,1.172-2.27,2.739c0,1.567,0.85,2.725,2.27,2.725
				C183.366,474.484,184.216,473.986,184.611,473.371z"/>
			<path style="fill:#1D262D;" d="M187.13,471.745c0-2.051,1.465-3.706,3.486-3.706c2.139,0,3.398,1.67,3.398,3.794v0.278h-5.727
				c0.088,1.333,1.025,2.446,2.549,2.446c0.806,0,1.626-0.322,2.182-0.894l0.527,0.718c-0.703,0.703-1.655,1.084-2.812,1.084
				C188.639,475.465,187.13,473.957,187.13,471.745z M190.602,468.947c-1.509,0-2.256,1.274-2.314,2.358h4.644
				C192.916,470.25,192.213,468.947,190.602,468.947z"/>
			<path style="fill:#1D262D;" d="M194.806,474.352l0.571-0.791c0.469,0.542,1.362,1.011,2.329,1.011c1.085,0,1.67-0.513,1.67-1.216
				c0-1.714-4.38-0.659-4.38-3.281c0-1.099,0.952-2.036,2.636-2.036c1.202,0,2.051,0.454,2.622,1.025l-0.513,0.762
				c-0.424-0.513-1.201-0.894-2.109-0.894c-0.966,0-1.567,0.483-1.567,1.113c0,1.553,4.379,0.527,4.379,3.281
				c0,1.187-0.952,2.139-2.783,2.139C196.505,475.465,195.523,475.114,194.806,474.352z"/>
			<path style="fill:#1D262D;" d="M201.676,466.471c0-0.41,0.337-0.747,0.732-0.747c0.41,0,0.747,0.337,0.747,0.747
				c0,0.41-0.337,0.732-0.747,0.732C202.013,467.204,201.676,466.881,201.676,466.471z M201.866,475.29v-7.075h1.099v7.075H201.866z
				"/>
			<path style="fill:#1D262D;" d="M204.781,477.106l0.556-0.82c0.586,0.703,1.289,0.967,2.3,0.967c1.172,0,2.27-0.571,2.27-2.124
				v-1.011c-0.513,0.718-1.377,1.26-2.373,1.26c-1.846,0-3.149-1.377-3.149-3.662c0-2.271,1.289-3.677,3.149-3.677
				c0.952,0,1.802,0.469,2.373,1.245v-1.069h1.099v6.87c0,2.344-1.641,3.076-3.369,3.076
				C206.436,478.161,205.615,477.925,204.781,477.106z M209.907,473.253v-3.091c-0.381-0.615-1.23-1.143-2.109-1.143
				c-1.421,0-2.27,1.128-2.27,2.695c0,1.553,0.849,2.695,2.27,2.695C208.677,474.411,209.526,473.869,209.907,473.253z"/>
			<path style="fill:#1D262D;" d="M217.612,475.29v-4.629c0-1.245-0.63-1.641-1.582-1.641c-0.864,0-1.685,0.527-2.094,1.099v5.171
				h-1.099v-7.075h1.099v1.025c0.497-0.586,1.464-1.201,2.519-1.201c1.48,0,2.256,0.747,2.256,2.285v4.966H217.612z"/>
			<path style="fill:#1D262D;" d="M220.131,471.745c0-2.051,1.465-3.706,3.486-3.706c2.139,0,3.398,1.67,3.398,3.794v0.278h-5.727
				c0.088,1.333,1.025,2.446,2.548,2.446c0.806,0,1.626-0.322,2.183-0.894l0.527,0.718c-0.703,0.703-1.655,1.084-2.813,1.084
				C221.64,475.465,220.131,473.957,220.131,471.745z M223.603,468.947c-1.509,0-2.256,1.274-2.314,2.358h4.643
				C225.917,470.25,225.214,468.947,223.603,468.947z"/>
			<path style="fill:#1D262D;" d="M233.549,475.29v-1.055c-0.527,0.718-1.392,1.23-2.388,1.23c-1.845,0-3.149-1.406-3.149-3.706
				c0-2.256,1.288-3.721,3.149-3.721c0.952,0,1.817,0.469,2.388,1.245v-3.765h1.098v9.771H233.549z M233.549,473.371v-3.208
				c-0.396-0.615-1.245-1.143-2.124-1.143c-1.421,0-2.27,1.172-2.27,2.739c0,1.567,0.85,2.725,2.27,2.725
				C232.304,474.484,233.153,473.986,233.549,473.371z"/>
			<path style="fill:#1D262D;" d="M239.891,475.29v-9.771h1.099v3.765c0.571-0.776,1.421-1.245,2.388-1.245
				c1.845,0,3.149,1.465,3.149,3.721c0,2.3-1.304,3.706-3.149,3.706c-0.996,0-1.86-0.513-2.388-1.23v1.055H239.891z
				 M243.099,474.484c1.436,0,2.285-1.157,2.285-2.725c0-1.567-0.85-2.739-2.285-2.739c-0.864,0-1.729,0.527-2.109,1.143v3.208
				C241.37,473.986,242.234,474.484,243.099,474.484z"/>
			<path style="fill:#1D262D;" d="M250.437,474.015l2.345-5.801h1.199l-3.544,8.511c-0.425,1.024-1.143,1.421-2.08,1.436
				c-0.234,0-0.601-0.044-0.806-0.104l0.176-0.995c0.161,0.073,0.425,0.117,0.601,0.117c0.483,0,0.806-0.161,1.055-0.747
				l0.469-1.069l-2.959-7.148h1.187L250.437,474.015"/>
		</g>
	</g>
</g>
</svg>
