<?xml version="1.0" encoding="utf-8"?>
<!-- Generator: Adobe Illustrator 27.5.0, SVG Export Plug-In . SVG Version: 6.00 Build 0)  -->
<svg version="1.1" xmlns="http://www.w3.org/2000/svg" xmlns:xlink="http://www.w3.org/1999/xlink" x="0px" y="0px"
	 viewBox="0 0 750 500" style="enable-background:new 0 0 750 500;" xml:space="preserve">
<g id="Background_Simple">
	<g>
		<path style="fill:#92E3A9;" d="M710.546,186.344c0,0-54.548-100.707-164.31-124.003s-164.081,33.241-237.518,47.907
			c-73.437,14.666-110.898-69.043-197.347-3.815C24.924,171.662-4.558,335.377,76.31,382.22s162.113,48.777,268.021,35.504
			c105.908-13.274,163.366,18.394,238.532,18.748C658.03,436.825,764.85,328.866,710.546,186.344z"/>
		<path style="opacity:0.7;fill:#FFFFFF;" d="M710.546,186.344c0,0-54.548-100.707-164.31-124.003s-164.081,33.241-237.518,47.907
			c-73.437,14.666-110.898-69.043-197.347-3.815C24.924,171.662-4.558,335.377,76.31,382.22s162.113,48.777,268.021,35.504
			c105.908-13.274,163.366,18.394,238.532,18.748C658.03,436.825,764.85,328.866,710.546,186.344z"/>
	</g>
</g>
<g id="Gears">
	<path style="fill:none;stroke:#263238;stroke-linejoin:round;stroke-miterlimit:10;" d="M707.003,330.334v-15.103l-12.001-1.429
		c-0.786-3.67-2.125-7.133-3.921-10.304l7.352-9.339l-10.679-10.68l-9,7.085c-3.23-2.041-6.797-3.594-10.605-4.547l-1.355-11.378
		h-15.103l-1.355,11.378c-3.758,0.94-7.282,2.464-10.478,4.465l-9.24-7.274l-10.68,10.68l7.507,9.536
		c-1.745,3.064-3.059,6.403-3.862,9.938l-12.485,1.486v15.103l12.96,1.543c0.906,3.193,2.224,6.212,3.911,8.986l-8.3,10.544
		l10.679,10.68l10.74-8.455c2.669,1.53,5.547,2.734,8.584,3.555l1.636,13.74h15.103l1.611-13.535
		c3.108-0.766,6.06-1.925,8.798-3.429l10.663,8.394l10.679-10.68l-8.036-10.208c1.805-2.84,3.229-5.944,4.2-9.243L707.003,330.334z
		 M659.243,342.36c-11.522,0-20.862-9.34-20.862-20.862c0-11.522,9.34-20.862,20.862-20.862c11.522,0,20.862,9.34,20.862,20.862
		C680.105,333.02,670.765,342.36,659.243,342.36z"/>
	<path style="fill:none;stroke:#263238;stroke-linejoin:round;stroke-miterlimit:10;" d="M695.94,218.173v-7.891l-6.27-0.747
		c-0.411-1.918-1.11-3.727-2.049-5.384l3.841-4.88l-5.58-5.58l-4.702,3.702c-1.688-1.067-3.552-1.878-5.541-2.376l-0.708-5.945
		h-7.891l-0.708,5.945c-1.963,0.491-3.805,1.287-5.475,2.333l-4.828-3.801l-5.58,5.58l3.922,4.982
		c-0.912,1.601-1.598,3.345-2.018,5.192l-6.523,0.777v7.891l6.771,0.806c0.473,1.668,1.162,3.246,2.043,4.695l-4.337,5.509
		l5.58,5.58l5.612-4.418c1.395,0.799,2.898,1.428,4.485,1.857l0.855,7.179h7.891l0.842-7.072c1.624-0.4,3.166-1.006,4.597-1.791
		l5.571,4.386l5.58-5.58l-4.199-5.333c0.943-1.484,1.687-3.105,2.195-4.83L695.94,218.173z M670.985,224.457
		c-6.02,0-10.9-4.88-10.9-10.9c0-6.02,4.88-10.901,10.9-10.901s10.901,4.88,10.901,10.901
		C681.886,219.576,677.006,224.457,670.985,224.457z"/>
	<path style="fill:none;stroke:#263238;stroke-linejoin:round;stroke-miterlimit:10;" d="M538.034,341.154v-6.92l-5.499-0.655
		c-0.36-1.682-0.974-3.268-1.797-4.721l3.369-4.279l-4.893-4.893l-4.124,3.246c-1.48-0.935-3.115-1.647-4.86-2.084l-0.621-5.214
		h-6.92l-0.621,5.214c-1.722,0.431-3.337,1.129-4.801,2.046l-4.234-3.333l-4.893,4.894l3.44,4.369
		c-0.8,1.404-1.402,2.934-1.77,4.554l-5.721,0.681v6.92l5.938,0.707c0.415,1.463,1.019,2.847,1.792,4.117l-3.803,4.831l4.893,4.893
		l4.921-3.874c1.223,0.701,2.542,1.253,3.934,1.629l0.75,6.296h6.92l0.738-6.202c1.424-0.351,2.777-0.882,4.031-1.571l4.886,3.846
		l4.893-4.893l-3.682-4.677c0.827-1.301,1.48-2.723,1.925-4.235L538.034,341.154z M516.149,346.665c-5.279,0-9.559-4.28-9.559-9.559
		s4.28-9.559,9.559-9.559c5.28,0,9.559,4.28,9.559,9.559S521.429,346.665,516.149,346.665z"/>
</g>
<g id="Plants">
	<g>
		<path style="fill:#92E3A9;" d="M57.483,201.339c5.935,0.195,18.187-5.007,18.197-5.011c0.127-0.054-5.881-7.035-6.31-7.432
			c-4.972-4.596-17.282-10.549-23.887-6.827c-4.758,2.682-5.55,8.829-2.53,13.111C46.038,199.555,52.429,201.171,57.483,201.339z"/>
		<path style="fill:#92E3A9;" d="M76.011,235.452c5.548-1.324,15.308-8.917,16.082-9.525c4.202,5.483,8.958,10.769,14.066,15.853
			c2.916,2.91,5.945,5.749,9.018,8.559c-1.593-1.073-3.027-2.021-3.241-2.133c-6.011-3.118-19.456-5.609-24.841-0.274
			c-3.883,3.843-3.023,9.979,1.021,13.313c4.129,3.405,10.723,3.276,15.641,2.102c4.992-1.19,13.442-7.498,15.657-9.197
			c1.19,1.066,2.366,2.143,3.561,3.202c5.729,5.09,11.466,10.145,16.944,15.275c1.931,1.806,3.766,3.657,5.609,5.502
			c-1.417-0.953-2.617-1.742-2.814-1.844c-6.009-3.117-19.454-5.61-24.841-0.275c-3.881,3.844-3.023,9.981,1.021,13.313
			c4.132,3.404,10.723,3.276,15.642,2.102c4.764-1.136,12.616-6.887,15.256-8.893c1.83,1.946,3.667,3.892,5.353,5.86
			c1.121,1.37,2.296,2.611,3.343,4.05c1.07,1.402,2.126,2.791,3.174,4.167c1.92,2.721,3.919,5.518,5.725,8.221
			c1.271,1.87,2.448,3.676,3.638,5.491c-1.901-1.821-5.698-5.308-6.049-5.564c-5.466-3.993-18.379-8.491-24.513-4.035
			c-4.418,3.212-4.499,9.408-1.006,13.314c3.567,3.99,10.102,4.863,15.141,4.447c5.549-0.458,15.95-6.2,17.245-6.926
			c1.959,3.011,3.837,5.958,5.563,8.768c1.554,2.515,2.995,4.911,4.357,7.211l4.412-1.757c-1.543-2.492-3.188-5.102-4.972-7.854
			c-1.977-3.066-4.151-6.301-6.415-9.604c0.693-0.655,4.612-4.404,7.829-8.365c5.16,2.469,16.217,3.359,17.645,3.464
			c-0.025,3.592-0.086,7.086-0.197,10.382c-0.07,2.27-0.156,4.448-0.253,6.547l4.675-1.862c0.03-1.496,0.056-3.014,0.071-4.592
			c0.042-3.647,0.015-7.547-0.052-11.549c1.435-0.25,13.153-2.366,17.752-5.518c4.169-2.86,8.688-7.663,8.935-13.011
			c0.243-5.234-3.733-9.988-9.189-9.688c-7.569,0.415-14.742,12.057-16.461,18.605c-0.102,0.386-0.734,4.701-1.088,7.429
			c-0.036-1.635-0.053-3.223-0.111-4.907c-0.089-3.329-0.279-6.648-0.47-10.22c-0.152-1.722-0.306-3.461-0.461-5.218
			c-0.118-1.745-0.463-3.574-0.688-5.378c-0.61-4.176-1.432-8.375-2.353-12.587c2.915-0.088,13.261-0.545,17.838-2.751
			c4.556-2.196,9.748-6.257,10.802-11.505c1.033-5.138-2.177-10.44-7.613-10.97c-7.546-0.735-16.399,9.686-19.091,15.899
			c-0.169,0.386-1.598,5.062-2.334,7.644c-0.574-2.528-1.134-5.054-1.798-7.593c-1.914-7.329-4.08-14.688-6.208-22.04
			c-0.653-2.251-1.277-4.503-1.909-6.754c1.038-0.02,13.347-0.297,18.473-2.768c4.555-2.194,9.749-6.257,10.802-11.505
			c1.033-5.137-2.176-10.439-7.613-10.969c-7.546-0.736-16.399,9.685-19.09,15.897c-0.202,0.468-2.251,7.198-2.688,8.935
			c-1.392-4.959-2.733-9.913-3.857-14.851c-1.561-6.81-2.714-13.579-3.347-20.219c0.483-0.007,13.332-0.24,18.582-2.769
			c4.555-2.196,9.749-6.259,10.803-11.506c1.032-5.137-2.176-10.439-7.613-10.969c-7.547-0.736-16.398,9.685-19.091,15.897
			c-0.21,0.487-2.41,7.729-2.716,9.07c-0.036-0.395-0.118-0.8-0.149-1.195c-0.586-7.097-0.262-14.046,0.36-20.537
			c0.354-3.773,0.904-7.359,1.516-10.836c2.398,0.202,13.365,1.005,18.341-0.749c4.769-1.682,10.377-5.15,12-10.249
			c1.591-4.994-1.017-10.615-6.361-11.739c-7.421-1.56-17.363,7.826-20.721,13.705c-0.182,0.319-1.678,3.775-2.732,6.307
			c0.3-1.566,0.581-3.186,0.899-4.679c1.179-5.611,2.605-10.676,3.904-15.152c0.759-2.538,1.495-4.82,2.208-6.947
			c2.455-1.028,12.302-5.299,15.845-9.08c3.456-3.69,6.837-9.352,5.928-14.627c-0.891-5.165-5.796-8.953-11.057-7.487
			c-7.304,2.034-11.805,14.946-12.076,21.711c-0.022,0.585,0.662,9.77,0.79,9.718c0,0,0.119-0.049,0.149-0.061
			c-0.727,2.033-1.481,4.22-2.258,6.628c-1.4,4.457-2.94,9.504-4.245,15.111c-1.32,5.601-2.596,11.722-3.359,18.291
			c-0.773,6.583-1.249,13.548-0.813,20.787c0.004,0.081,0.021,0.166,0.025,0.248c-0.785-2.078-3.175-7.815-3.409-8.233
			c-3.292-5.916-13.13-15.413-20.568-13.935c-5.357,1.066-8.026,6.657-6.492,11.669c1.569,5.117,7.136,8.646,11.887,10.381
			c5.357,1.956,17.686,1.006,18.667,0.929c0.478,6.89,1.531,13.922,2.985,20.98c0.828,4.037,1.788,8.076,2.801,12.114
			c-0.737-1.775-1.409-3.357-1.527-3.567c-3.293-5.917-13.13-15.411-20.568-13.934c-5.358,1.064-8.027,6.657-6.492,11.668
			c1.567,5.118,7.135,8.647,11.885,10.382c4.82,1.759,15.348,1.162,18.132,0.966c0.405,1.545,0.792,3.093,1.203,4.636
			c1.97,7.406,3.969,14.786,5.706,22.087c0.615,2.572,1.124,5.128,1.643,7.682c-0.656-1.575-1.222-2.896-1.328-3.088
			c-3.294-5.917-13.131-15.412-20.567-13.935c-5.358,1.066-8.029,6.658-6.494,11.67c1.566,5.116,7.137,8.646,11.887,10.38
			c4.598,1.68,14.322,1.215,17.631,0.998c0.453,2.633,0.911,5.269,1.232,7.842c0.178,1.761,0.473,3.444,0.555,5.223
			c0.117,1.758,0.234,3.501,0.35,5.225c0.099,3.33,0.224,6.765,0.24,10.016c0.029,2.261,0.012,4.417,0.005,6.586
			c-0.582-2.567-1.825-7.57-1.975-7.976c-1.567-4.216-5.756-10.418-10.611-14.018c-0.228-0.624-0.508-1.225-0.849-1.797
			c-2.687-4.5-8.625-6.272-13.009-3.013c-6.085,4.522-5.644,18.19-3.465,24.599c0.128,0.379,1.981,4.325,3.191,6.797
			c-0.934-1.344-1.822-2.66-2.799-4.032c-1.913-2.726-3.902-5.39-6.03-8.266c-1.076-1.352-2.165-2.716-3.264-4.096
			c-1.06-1.39-2.357-2.724-3.541-4.106c-2.812-3.144-5.815-6.195-8.908-9.201c2.385-1.681,10.761-7.77,13.361-12.134
			c2.589-4.344,4.678-10.598,2.664-15.555c-1.974-4.855-7.574-7.507-12.401-4.95c-6.7,3.549-8.336,17.125-7.154,23.792
			c0.074,0.416,1.46,5.103,2.271,7.664c-1.873-1.791-3.734-3.59-5.688-5.342c-5.639-5.058-11.505-10.002-17.336-14.958
			c-1.786-1.518-3.548-3.051-5.318-4.579c0.855-0.59,10.969-7.613,13.881-12.5c2.588-4.343,4.678-10.597,2.663-15.556
			c-1.973-4.854-7.574-7.507-12.401-4.949c-6.7,3.549-8.336,17.124-7.154,23.791c0.09,0.502,2.094,7.244,2.687,8.934
			c-3.895-3.367-7.747-6.759-11.409-10.258c-5.058-4.82-9.754-9.828-13.945-15.017c0.399-0.274,10.987-7.557,13.971-12.562
			c2.589-4.344,4.678-10.597,2.662-15.555c-1.973-4.855-7.573-7.506-12.401-4.949c-6.7,3.548-8.335,17.124-7.153,23.79
			c0.093,0.524,2.253,7.777,2.739,9.062c-0.249-0.308-0.541-0.601-0.785-0.911c-4.404-5.599-7.967-11.572-11.029-17.33
			c-1.786-3.341-3.305-6.635-4.712-9.873c2.111-1.154,11.701-6.535,14.883-10.743c3.051-4.035,5.815-10.02,4.356-15.169
			c-1.429-5.043-6.705-8.294-11.782-6.282c-7.049,2.791-10.166,16.106-9.723,22.861c0.024,0.368,0.682,4.076,1.2,6.769
			c-0.612-1.471-1.273-2.978-1.832-4.399c-2.111-5.33-3.717-10.342-5.102-14.791c-0.768-2.538-1.411-4.847-1.989-7.013
			c1.48-2.214,7.336-11.208,8.205-16.316c0.848-4.985,0.543-11.571-3.124-15.469c-3.592-3.817-9.772-4.27-13.352-0.147
			c-4.97,5.727-1.6,18.979,1.905,24.772c0.304,0.499,5.942,7.782,6.021,7.669c0,0,0.072-0.108,0.089-0.134
			c0.515,2.096,1.094,4.338,1.774,6.774c1.29,4.489,2.791,9.549,4.795,14.946c1.989,5.399,4.301,11.209,7.289,17.108
			c2.987,5.916,6.431,11.99,10.789,17.786c0.049,0.065,0.11,0.128,0.159,0.193c-1.802-1.3-6.961-4.765-7.387-4.987
			c-6.009-3.118-19.454-5.61-24.841-0.276c-3.88,3.844-3.023,9.981,1.022,13.314C64.503,236.754,71.093,236.625,76.011,235.452z"/>
		<path style="fill:#92E3A9;" d="M183.624,154.26c0.136,0.025-1.023-9.113-1.162-9.681c-1.614-6.575-8.597-18.332-16.16-18.871
			c-5.448-0.388-9.499,4.301-9.341,9.54c0.159,5.349,4.598,10.224,8.722,13.151C170.525,151.838,183.615,154.258,183.624,154.26z"/>
	</g>
	<g>
		<path style="fill:#92E3A9;" d="M664.896,123.169c-5.017,2.463-17.542,2.739-17.552,2.739c-0.13,0.003,2.325-8.312,2.539-8.818
			c2.489-5.866,10.749-15.737,17.856-15.098c5.12,0.461,8.178,5.429,7.243,10.271C674.027,117.211,669.168,121.07,664.896,123.169z"
			/>
		<path style="fill:#92E3A9;" d="M662.194,159.607c-5.273,1.01-16.584-1.73-17.484-1.952c-1.485,6.33-3.521,12.706-5.938,19.044
			c-1.377,3.625-2.878,7.233-4.427,10.832c0.952-1.537,1.815-2.905,1.956-3.084c3.951-5.001,14.524-12.339,21.209-9.844
			c4.818,1.796,6.454,7.394,4.274,11.818c-2.226,4.518-7.934,6.959-12.608,7.854c-4.744,0.91-14.434-1.234-16.992-1.835
			c-0.609,1.375-1.201,2.754-1.816,4.125c-2.947,6.584-5.915,13.14-8.63,19.661c-0.958,2.297-1.816,4.595-2.685,6.891
			c0.847-1.365,1.572-2.507,1.701-2.671c3.95-4.999,14.523-12.339,21.209-9.845c4.817,1.797,6.455,7.395,4.273,11.819
			c-2.229,4.519-7.934,6.959-12.609,7.854c-4.527,0.868-13.489-1.03-16.531-1.73c-0.818,2.378-1.641,4.758-2.326,7.099
			c-0.432,1.609-0.961,3.128-1.302,4.768c-0.375,1.617-0.745,3.218-1.112,4.803c-0.595,3.078-1.228,6.251-1.732,9.269
			c-0.367,2.096-0.678,4.101-0.997,6.119c0.927-2.298,2.836-6.758,3.038-7.114c3.146-5.541,12.485-14.395,19.473-12.944
			c5.034,1.047,7.5,6.332,6.013,11.035c-1.517,4.803-6.787,8.08-11.271,9.673c-4.938,1.753-16.085,0.85-17.477,0.728
			c-0.517,3.341-0.987,6.596-1.382,9.675c-0.36,2.759-0.671,5.373-0.949,7.873l-4.466,0.199c0.36-2.736,0.762-5.611,1.229-8.663
			c0.51-3.395,1.124-7.012,1.789-10.722c-0.848-0.294-5.661-1.995-9.954-4.149c-3.473,4.114-12.616,9.156-13.8,9.798
			c1.411,3.073,2.815,6.047,4.185,8.832c0.938,1.921,1.855,3.756,2.75,5.519l-4.731,0.211c-0.604-1.272-1.214-2.564-1.837-3.913
			c-1.447-3.113-2.932-6.47-4.423-9.93c-1.329,0.34-12.201,3.058-17.367,2.132c-4.684-0.842-10.419-3.215-12.7-7.708
			c-2.233-4.397-0.66-10.015,4.137-11.867c6.656-2.572,17.314,4.643,21.321,9.597c0.237,0.292,2.448,3.75,3.807,5.954
			c-0.602-1.417-1.201-2.786-1.803-4.253c-1.211-2.891-2.332-5.813-3.55-8.951c-0.536-1.536-1.076-3.088-1.623-4.655
			c-0.574-1.543-0.985-3.245-1.49-4.881c-1.092-3.819-2.011-7.74-2.85-11.711c-2.535,1.052-11.589,4.663-16.37,4.54
			c-4.758-0.122-10.785-1.598-13.719-5.694c-2.874-4.009-2.171-9.8,2.289-12.358c6.191-3.55,17.818,1.968,22.531,6.257
			c0.294,0.266,3.329,3.725,4.959,5.656c-0.485-2.391-0.982-4.775-1.395-7.21c-1.193-7.029-2.18-14.182-3.199-21.313
			c-0.31-2.185-0.646-4.357-0.974-6.534c-0.898,0.385-11.567,4.908-16.922,4.771c-4.758-0.12-10.786-1.598-13.719-5.694
			c-2.873-4.008-2.171-9.799,2.289-12.357c6.19-3.55,17.818,1.967,22.53,6.256c0.355,0.323,4.716,5.305,5.763,6.627
			c-0.724-4.794-1.489-9.563-2.435-14.235c-1.295-6.447-2.924-12.701-4.949-18.644c-0.417,0.18-11.533,4.951-17.016,4.812
			c-4.758-0.122-10.786-1.599-13.72-5.694c-2.873-4.009-2.171-9.799,2.29-12.357c6.191-3.55,17.817,1.967,22.531,6.256
			c0.369,0.337,5.058,5.699,5.839,6.733c-0.122-0.353-0.208-0.732-0.334-1.083c-2.242-6.317-5.208-12.154-8.253-17.483
			c-1.763-3.1-3.622-5.965-5.492-8.712c-1.98,1.101-11.079,6.033-16.028,6.452c-4.742,0.402-10.896-0.405-14.262-4.153
			c-3.297-3.669-3.234-9.502,0.917-12.534c5.764-4.209,17.926-0.002,23.082,3.744c0.28,0.203,2.9,2.59,4.784,4.355
			c-0.863-1.227-1.731-2.509-2.581-3.667c-3.182-4.359-6.365-8.153-9.212-11.491c-1.633-1.884-3.147-3.557-4.582-5.107
			c-2.504,0.068-12.606,0.212-17.109-1.662c-4.393-1.83-9.484-5.38-10.745-10.257c-1.234-4.777,1.51-9.924,6.591-10.701
			c7.054-1.08,15.911,8.258,18.76,13.958c0.245,0.493,3.212,8.639,3.081,8.644c0,0-0.122,0.004-0.151,0.005
			c1.41,1.463,2.904,3.049,4.502,4.814c2.925,3.283,6.199,7.018,9.488,11.324c3.299,4.295,6.762,9.054,9.958,14.395
			c3.21,5.35,6.312,11.142,8.738,17.523c0.028,0.072,0.047,0.151,0.074,0.223c-0.13-2.087-0.299-7.934-0.26-8.383
			c0.537-6.349,5.305-18.304,12.259-19.913c5.009-1.158,9.462,2.607,10.084,7.501c0.633,4.998-2.778,10.18-6.184,13.506
			c-3.84,3.751-14.786,7.705-15.658,8.018c2.255,6.097,4.072,12.538,5.554,19.157c0.851,3.785,1.59,7.622,2.282,11.479
			c-0.054-1.808-0.09-3.425-0.07-3.651c0.537-6.351,5.305-18.303,12.259-19.912c5.009-1.159,9.463,2.607,10.084,7.501
			c0.635,4.998-2.778,10.18-6.182,13.506c-3.455,3.374-12.72,6.934-15.184,7.843c0.25,1.482,0.517,2.96,0.761,4.443
			c1.174,7.116,2.314,14.223,3.648,21.159c0.468,2.445,1.019,4.835,1.562,7.227c-0.047-1.605-0.072-2.958-0.055-3.164
			c0.537-6.351,5.305-18.304,12.257-19.913c5.01-1.158,9.464,2.607,10.086,7.502c0.635,4.996-2.779,10.18-6.184,13.505
			c-3.296,3.221-11.819,6.583-14.742,7.677c0.63,2.435,1.256,4.874,1.977,7.205c0.528,1.58,0.926,3.138,1.544,4.696
			c0.579,1.554,1.153,3.095,1.721,4.619c1.203,2.896,2.425,5.891,3.669,8.687c0.85,1.951,1.698,3.795,2.544,5.653
			c-0.494-2.428-1.363-7.201-1.39-7.608c-0.286-4.224,0.909-11.166,3.683-16.132c-0.046-0.624-0.038-1.247,0.034-1.871
			c0.565-4.9,4.974-8.718,9.997-7.617c6.971,1.527,11.879,13.425,12.489,19.767c0.036,0.374-0.027,4.478-0.109,7.066
			c0.281-1.514,0.534-2.987,0.842-4.542c0.587-3.079,1.263-6.134,1.977-9.426c0.401-1.576,0.807-3.168,1.217-4.777
			c0.372-1.602,0.968-3.249,1.45-4.893c1.197-3.786,2.593-7.565,4.084-11.34c-2.696-0.52-12.239-2.505-16.158-5.244
			c-3.902-2.725-8.114-7.284-8.303-12.317c-0.184-4.93,3.595-9.372,8.726-9.045c7.122,0.453,13.777,11.47,15.342,17.647
			c0.097,0.386,0.721,4.944,1.016,7.455c0.914-2.262,1.815-4.525,2.815-6.784c2.882-6.522,6.003-13.032,9.089-19.541
			c0.946-1.993,1.864-3.99,2.792-5.986c-0.962-0.176-12.356-2.289-16.746-5.356c-3.901-2.726-8.114-7.283-8.302-12.318
			c-0.185-4.928,3.595-9.371,8.726-9.043c7.122,0.453,13.776,11.469,15.341,17.646c0.117,0.466,1.006,7.026,1.15,8.705
			c2.04-4.396,4.033-8.797,5.822-13.215c2.475-6.092,4.568-12.206,6.157-18.28c-0.449-0.081-12.351-2.234-16.847-5.375
			c-3.902-2.726-8.114-7.283-8.302-12.318c-0.185-4.929,3.595-9.37,8.727-9.043c7.121,0.453,13.776,11.47,15.34,17.647
			c0.123,0.485,1.075,7.545,1.156,8.835c0.094-0.361,0.232-0.725,0.321-1.086c1.613-6.507,2.36-13.012,2.76-19.136
			c0.24-3.558,0.269-6.972,0.224-10.294c-2.258-0.174-12.569-1.081-16.927-3.462c-4.178-2.282-8.865-6.349-9.605-11.331
			c-0.725-4.88,2.545-9.71,7.68-9.948c7.129-0.332,14.953,9.888,17.186,15.855c0.122,0.325,0.991,3.761,1.589,6.272
			c-0.044-1.499-0.06-3.048-0.13-4.483c-0.251-5.39-0.811-10.312-1.344-14.666c-0.323-2.475-0.664-4.705-1.006-6.787
			c-2.126-1.327-10.63-6.78-13.352-10.826c-2.656-3.95-4.942-9.718-3.303-14.481c1.605-4.665,6.733-7.445,11.4-5.291
			c6.48,2.991,8.714,15.666,7.948,21.993c-0.068,0.546-2.089,8.977-2.2,8.91c0,0-0.104-0.065-0.128-0.08
			c0.369,1.997,0.74,4.145,1.098,6.498c0.629,4.351,1.299,9.273,1.667,14.679c0.382,5.402,0.645,11.282,0.363,17.5
			c-0.275,6.232-0.88,12.775-2.378,19.435c-0.017,0.075-0.044,0.152-0.062,0.227c1.043-1.813,4.13-6.781,4.41-7.136
			c3.95-5,14.522-12.339,21.209-9.846c4.817,1.798,6.455,7.395,4.273,11.82C672.572,156.273,666.867,158.712,662.194,159.607z"/>
		<path style="fill:#92E3A9;" d="M538.448,131.567c-0.107,0.074-2.647-8.215-2.748-8.756c-1.158-6.266,0.285-19.055,6.567-22.443
			c4.524-2.44,9.814,0.017,11.705,4.573c1.932,4.651,0.01,10.552-2.397,14.658C548.751,124.421,538.455,131.561,538.448,131.567z"/>
	</g>
	<g>
		<path style="fill:#92E3A9;" d="M699.781,388.931c-1.966,0.712-6.635,0.306-6.639,0.305c-0.048-0.004,1.202-2.996,1.303-3.176
			c1.164-2.081,4.637-5.415,7.254-4.889c1.885,0.38,2.82,2.351,2.276,4.114C703.419,387.086,701.455,388.324,699.781,388.931z"/>
		<path style="fill:#92E3A9;" d="M697.295,402.372c-2.002,0.161-6.097-1.317-6.422-1.436c-0.809,2.294-1.826,4.582-2.982,6.84
			c-0.659,1.292-1.364,2.573-2.087,3.848c0.417-0.533,0.793-1.007,0.853-1.067c1.673-1.699,5.903-3.998,8.287-2.799
			c1.719,0.864,2.1,3.012,1.109,4.569c-1.011,1.59-3.233,2.266-5.008,2.408c-1.801,0.145-5.318-1.046-6.244-1.373
			c-0.282,0.486-0.559,0.975-0.843,1.46c-1.363,2.329-2.734,4.646-4.008,6.961c-0.45,0.815-0.862,1.635-1.278,2.453
			c0.37-0.473,0.686-0.868,0.741-0.924c1.672-1.699,5.902-3.998,8.287-2.799c1.719,0.864,2.1,3.012,1.109,4.569
			c-1.012,1.59-3.233,2.265-5.008,2.408c-1.719,0.139-4.975-0.931-6.077-1.315c-0.401,0.851-0.804,1.703-1.154,2.545
			c-0.226,0.581-0.484,1.124-0.678,1.72c-0.205,0.586-0.408,1.166-0.609,1.741c-0.346,1.12-0.711,2.275-1.021,3.376
			c-0.222,0.765-0.419,1.497-0.62,2.235c0.438-0.817,1.329-2.398,1.419-2.522c1.395-1.933,5.228-4.846,7.768-4.022
			c1.829,0.594,2.532,2.659,1.788,4.348c-0.759,1.725-2.852,2.729-4.585,3.139c-1.908,0.451-6.016-0.338-6.529-0.44
			c-0.328,1.222-0.635,2.413-0.907,3.542c-0.246,1.011-0.468,1.971-0.673,2.889l-1.669-0.108c0.245-1.003,0.511-2.056,0.809-3.171
			c0.328-1.242,0.703-2.562,1.101-3.915c-0.303-0.144-2.024-0.972-3.533-1.947c-1.459,1.389-5.064,2.892-5.53,3.083
			c0.4,1.2,0.801,2.363,1.197,3.455c0.271,0.752,0.537,1.472,0.798,2.164l-1.768-0.114c-0.173-0.498-0.347-1.003-0.524-1.53
			c-0.412-1.217-0.827-2.525-1.241-3.872c-0.508,0.073-4.662,0.641-6.545,0.087c-1.708-0.504-3.744-1.619-4.409-3.383
			c-0.651-1.726,0.161-3.751,2.021-4.245c2.58-0.686,6.25,2.43,7.539,4.436c0.076,0.118,0.758,1.494,1.174,2.369
			c-0.166-0.551-0.333-1.085-0.498-1.655c-0.333-1.124-0.631-2.256-0.957-3.473c-0.137-0.593-0.275-1.192-0.414-1.797
			c-0.151-0.597-0.234-1.247-0.356-1.876c-0.251-1.465-0.433-2.96-0.584-4.471c-0.985,0.288-4.499,1.263-6.272,1.023
			c-1.765-0.239-3.946-1.033-4.87-2.675c-0.906-1.608-0.409-3.733,1.354-4.503c2.446-1.069,6.546,1.456,8.124,3.243
			c0.099,0.111,1.087,1.521,1.614,2.305c-0.083-0.909-0.171-1.816-0.226-2.738c-0.158-2.662-0.234-5.362-0.323-8.056
			c-0.027-0.825-0.063-1.647-0.097-2.469c-0.35,0.107-4.501,1.355-6.487,1.087c-1.764-0.238-3.946-1.033-4.87-2.675
			c-0.906-1.607-0.409-3.732,1.353-4.502c2.446-1.069,6.546,1.456,8.124,3.242c0.119,0.134,1.538,2.165,1.874,2.698
			c-0.074-1.812-0.165-3.617-0.327-5.392c-0.219-2.45-0.571-4.842-1.083-7.134c-0.162,0.05-4.49,1.373-6.523,1.098
			c-1.765-0.239-3.946-1.033-4.871-2.675c-0.906-1.608-0.409-3.732,1.354-4.502c2.446-1.069,6.546,1.456,8.124,3.242
			c0.123,0.14,1.649,2.325,1.898,2.741c-0.031-0.136-0.048-0.281-0.08-0.416c-0.577-2.44-1.443-4.731-2.359-6.837
			c-0.529-1.225-1.104-2.366-1.688-3.463c-0.781,0.329-4.365,1.793-6.223,1.748c-1.78-0.043-4.036-0.593-5.135-2.124
			c-1.077-1.499-0.816-3.665,0.851-4.624c2.315-1.331,6.666,0.728,8.431,2.33c0.096,0.087,0.973,1.081,1.602,1.814
			c-0.271-0.492-0.542-1.003-0.811-1.468c-1.006-1.75-2.036-3.291-2.958-4.648c-0.531-0.767-1.026-1.451-1.496-2.085
			c-0.934-0.077-4.697-0.434-6.295-1.313c-1.559-0.859-3.308-2.386-3.579-4.251c-0.265-1.826,0.965-3.629,2.886-3.711
			c2.667-0.115,5.581,3.718,6.409,5.953c0.071,0.193,0.843,3.343,0.794,3.34c0,0-0.045-0.003-0.057-0.004
			c0.465,0.601,0.956,1.252,1.478,1.973c0.954,1.34,2.02,2.862,3.068,4.597c1.052,1.731,2.147,3.642,3.118,5.758
			c0.976,2.12,1.894,4.4,2.537,6.871c0.007,0.028,0.011,0.058,0.019,0.086c0.036-0.781,0.211-2.963,0.244-3.128
			c0.458-2.339,2.717-6.591,5.368-6.907c1.909-0.227,3.413,1.354,3.445,3.199c0.032,1.884-1.447,3.673-2.849,4.771
			c-1.58,1.239-5.812,2.264-6.149,2.345c0.591,2.359,1.005,4.828,1.287,7.35c0.163,1.442,0.281,2.899,0.382,4.361
			c0.053-0.675,0.106-1.277,0.123-1.361c0.458-2.34,2.717-6.591,5.368-6.907c1.91-0.228,3.413,1.354,3.445,3.199
			c0.033,1.884-1.447,3.673-2.848,4.771c-1.422,1.114-5.012,2.062-5.965,2.299c0.033,0.561,0.072,1.122,0.102,1.683
			c0.147,2.694,0.283,5.383,0.496,8.017c0.074,0.928,0.182,1.839,0.287,2.751c0.048-0.599,0.094-1.103,0.108-1.179
			c0.458-2.34,2.717-6.591,5.367-6.907c1.91-0.227,3.414,1.354,3.446,3.2c0.033,1.884-1.447,3.673-2.849,4.771
			c-1.356,1.064-4.663,1.968-5.794,2.256c0.135,0.931,0.269,1.863,0.442,2.76c0.132,0.609,0.217,1.204,0.383,1.809
			c0.152,0.601,0.303,1.198,0.452,1.788c0.33,1.126,0.662,2.289,1.011,3.379c0.237,0.76,0.477,1.48,0.716,2.206
			c-0.085-0.923-0.214-2.733-0.208-2.886c0.065-1.582,0.792-4.115,2.025-5.85c0.008-0.234,0.036-0.466,0.089-0.694
			c0.409-1.799,2.204-3.04,4.027-2.426c2.53,0.851,3.872,5.475,3.841,7.858c-0.002,0.141-0.192,1.664-0.328,2.623
			c0.166-0.552,0.32-1.089,0.498-1.655c0.343-1.121,0.719-2.23,1.118-3.425c0.213-0.57,0.429-1.145,0.646-1.727
			c0.203-0.581,0.492-1.169,0.738-1.761c0.599-1.359,1.272-2.708,1.98-4.051c-0.982-0.303-4.45-1.429-5.796-2.607
			c-1.34-1.172-2.721-3.039-2.587-4.918c0.132-1.841,1.718-3.339,3.613-3.009c2.63,0.458,4.657,4.825,4.988,7.186
			c0.021,0.147,0.067,1.868,0.075,2.814c0.432-0.804,0.859-1.609,1.322-2.408c1.337-2.308,2.762-4.602,4.174-6.897
			c0.433-0.703,0.856-1.408,1.282-2.113c-0.35-0.104-4.502-1.353-6.01-2.672c-1.34-1.172-2.721-3.038-2.587-4.918
			c0.132-1.84,1.718-3.339,3.613-3.008c2.63,0.458,4.657,4.825,4.988,7.186c0.025,0.178,0.089,2.654,0.074,3.284
			c0.937-1.552,1.857-3.107,2.702-4.678c1.168-2.165,2.195-4.354,3.033-6.548c-0.164-0.048-4.502-1.333-6.047-2.683
			c-1.34-1.172-2.721-3.038-2.587-4.918c0.131-1.841,1.718-3.339,3.613-3.008c2.63,0.458,4.657,4.825,4.987,7.186
			c0.026,0.185,0.093,2.849,0.071,3.332c0.05-0.13,0.116-0.26,0.164-0.391c0.864-2.354,1.407-4.743,1.804-7.004
			c0.234-1.313,0.383-2.582,0.502-3.819c-0.833-0.156-4.63-0.913-6.154-1.975c-1.461-1.018-3.039-2.721-3.112-4.604
			c-0.071-1.844,1.341-3.508,3.26-3.387c2.664,0.166,5.159,4.285,5.747,6.595c0.032,0.126,0.216,1.439,0.336,2.397
			c0.045-0.559,0.102-1.136,0.134-1.672c0.126-2.015,0.117-3.868,0.096-5.508c-0.019-0.933-0.056-1.776-0.098-2.565
			c-0.737-0.58-3.678-2.953-4.525-4.569c-0.827-1.577-1.443-3.815-0.64-5.52c0.787-1.669,2.806-2.495,4.454-1.504
			c2.288,1.376,2.604,6.18,2.062,8.501c-0.047,0.2-1.142,3.253-1.18,3.224c0,0-0.036-0.028-0.044-0.035
			c0.056,0.758,0.107,1.572,0.144,2.461c0.057,1.644,0.106,3.501,0.023,5.527c-0.077,2.024-0.218,4.222-0.576,6.522
			c-0.355,2.306-0.846,4.715-1.674,7.131c-0.009,0.027-0.023,0.055-0.032,0.082c0.462-0.632,1.811-2.354,1.93-2.474
			c1.672-1.699,5.902-3.998,8.287-2.799c1.718,0.864,2.1,3.013,1.109,4.569C701.29,401.553,699.07,402.229,697.295,402.372z"/>
		<path style="fill:#92E3A9;" d="M652.417,386.915c-0.043,0.023-0.65-3.163-0.666-3.368c-0.176-2.377,0.88-7.074,3.354-8.079
			c1.782-0.724,3.649,0.405,4.167,2.176c0.529,1.808-0.425,3.924-1.487,5.354C656.539,384.676,652.42,386.913,652.417,386.915z"/>
	</g>
	<g>
		<path style="fill:#92E3A9;" d="M512.255,410.188c1.234,0.447,4.164,0.192,4.166,0.191c0.03-0.003-0.755-1.88-0.818-1.993
			c-0.73-1.306-2.91-3.398-4.552-3.068c-1.183,0.238-1.77,1.475-1.428,2.582C509.972,409.031,511.204,409.807,512.255,410.188z"/>
		<path style="fill:#92E3A9;" d="M513.815,418.623c1.256,0.101,3.826-0.827,4.031-0.901c0.508,1.439,1.146,2.875,1.871,4.293
			c0.414,0.811,0.856,1.615,1.309,2.415c-0.261-0.335-0.498-0.632-0.535-0.67c-1.05-1.066-3.704-2.509-5.201-1.757
			c-1.079,0.542-1.318,1.89-0.696,2.867c0.635,0.998,2.029,1.422,3.143,1.511c1.13,0.091,3.337-0.656,3.919-0.862
			c0.177,0.305,0.351,0.612,0.529,0.916c0.855,1.461,1.716,2.916,2.516,4.368c0.282,0.512,0.541,1.026,0.802,1.54
			c-0.232-0.297-0.431-0.545-0.465-0.58c-1.049-1.066-3.704-2.509-5.201-1.757c-1.078,0.542-1.318,1.89-0.696,2.867
			c0.635,0.998,2.029,1.422,3.143,1.511c1.079,0.087,3.122-0.584,3.814-0.825c0.251,0.534,0.504,1.069,0.724,1.597
			c0.142,0.365,0.304,0.706,0.426,1.08c0.129,0.368,0.256,0.732,0.382,1.093c0.217,0.703,0.446,1.427,0.641,2.119
			c0.139,0.48,0.263,0.94,0.389,1.403c-0.275-0.513-0.834-1.505-0.891-1.583c-0.875-1.213-3.281-3.041-4.875-2.524
			c-1.148,0.373-1.589,1.669-1.122,2.729c0.477,1.082,1.79,1.713,2.877,1.97c1.197,0.283,3.776-0.212,4.097-0.276
			c0.206,0.767,0.399,1.514,0.569,2.223c0.155,0.635,0.294,1.237,0.422,1.813l1.047-0.067c-0.154-0.629-0.321-1.29-0.508-1.99
			c-0.206-0.779-0.441-1.608-0.691-2.457c0.19-0.09,1.27-0.61,2.217-1.222c0.915,0.872,3.178,1.815,3.47,1.935
			c-0.251,0.753-0.503,1.483-0.751,2.168c-0.17,0.472-0.337,0.924-0.501,1.358l1.11-0.072c0.109-0.312,0.218-0.629,0.329-0.96
			c0.258-0.764,0.519-1.585,0.779-2.43c0.319,0.046,2.926,0.402,4.107,0.055c1.072-0.316,2.349-1.016,2.767-2.123
			c0.409-1.083-0.101-2.354-1.268-2.664c-1.619-0.43-3.922,1.525-4.731,2.784c-0.048,0.074-0.476,0.938-0.737,1.487
			c0.104-0.346,0.209-0.681,0.312-1.039c0.209-0.706,0.396-1.416,0.6-2.18c0.086-0.372,0.172-0.748,0.26-1.128
			c0.095-0.375,0.147-0.783,0.223-1.177c0.157-0.919,0.272-1.858,0.366-2.806c0.618,0.181,2.824,0.792,3.936,0.642
			c1.107-0.15,2.476-0.648,3.057-1.679c0.568-1.009,0.257-2.342-0.849-2.826c-1.535-0.671-4.108,0.914-5.099,2.035
			c-0.062,0.07-0.682,0.954-1.013,1.447c0.052-0.57,0.107-1.139,0.142-1.718c0.099-1.671,0.147-3.365,0.203-5.055
			c0.017-0.518,0.04-1.033,0.061-1.55c0.219,0.067,2.825,0.85,4.071,0.682c1.107-0.15,2.476-0.648,3.056-1.679
			c0.568-1.009,0.257-2.342-0.849-2.825c-1.535-0.671-4.108,0.914-5.098,2.035c-0.075,0.085-0.965,1.359-1.176,1.694
			c0.047-1.137,0.104-2.27,0.205-3.384c0.138-1.538,0.358-3.039,0.679-4.477c0.102,0.032,2.818,0.861,4.094,0.689
			c1.107-0.15,2.476-0.648,3.057-1.679c0.568-1.009,0.257-2.342-0.849-2.826c-1.535-0.671-4.108,0.914-5.099,2.035
			c-0.078,0.088-1.035,1.459-1.191,1.72c0.02-0.085,0.03-0.176,0.05-0.261c0.362-1.531,0.906-2.969,1.48-4.291
			c0.332-0.768,0.693-1.484,1.06-2.173c0.49,0.207,2.74,1.125,3.905,1.097c1.117-0.027,2.533-0.372,3.222-1.333
			c0.676-0.94,0.512-2.3-0.534-2.902c-1.453-0.835-4.183,0.457-5.291,1.462c-0.06,0.055-0.611,0.678-1.005,1.138
			c0.17-0.309,0.34-0.63,0.509-0.922c0.631-1.098,1.277-2.065,1.857-2.917c0.333-0.482,0.644-0.91,0.939-1.309
			c0.586-0.048,2.947-0.272,3.95-0.824c0.978-0.539,2.076-1.497,2.246-2.668c0.166-1.146-0.605-2.277-1.811-2.329
			c-1.674-0.072-3.502,2.333-4.022,3.736c-0.045,0.121-0.529,2.098-0.498,2.096c0,0,0.029-0.002,0.035-0.003
			c-0.292,0.378-0.6,0.786-0.928,1.238c-0.599,0.841-1.268,1.796-1.925,2.885c-0.66,1.086-1.347,2.285-1.957,3.613
			c-0.613,1.331-1.189,2.761-1.592,4.312c-0.005,0.017-0.007,0.036-0.012,0.054c-0.023-0.49-0.133-1.859-0.153-1.963
			c-0.287-1.468-1.705-4.136-3.369-4.335c-1.198-0.142-2.142,0.85-2.162,2.008c-0.02,1.182,0.908,2.305,1.788,2.994
			c0.992,0.777,3.647,1.421,3.859,1.472c-0.371,1.48-0.63,3.03-0.807,4.612c-0.102,0.905-0.177,1.819-0.24,2.737
			c-0.034-0.423-0.066-0.802-0.077-0.854c-0.287-1.468-1.705-4.136-3.369-4.334c-1.199-0.143-2.142,0.85-2.162,2.008
			c-0.021,1.183,0.908,2.305,1.787,2.994c0.892,0.699,3.145,1.294,3.744,1.443c-0.021,0.352-0.045,0.704-0.064,1.056
			c-0.093,1.691-0.177,3.378-0.312,5.031c-0.047,0.582-0.114,1.154-0.18,1.727c-0.03-0.376-0.059-0.692-0.068-0.74
			c-0.287-1.469-1.705-4.136-3.368-4.335c-1.199-0.142-2.142,0.85-2.162,2.008c-0.021,1.182,0.908,2.305,1.788,2.994
			c0.851,0.668,2.926,1.235,3.636,1.415c-0.085,0.584-0.169,1.169-0.278,1.732c-0.083,0.382-0.136,0.756-0.241,1.135
			c-0.096,0.377-0.19,0.751-0.284,1.122c-0.207,0.706-0.416,1.437-0.635,2.121c-0.149,0.477-0.299,0.929-0.449,1.384
			c0.053-0.579,0.134-1.715,0.13-1.811c-0.041-0.993-0.497-2.583-1.271-3.671c-0.005-0.147-0.023-0.292-0.056-0.436
			c-0.257-1.129-1.383-1.908-2.527-1.523c-1.588,0.534-2.43,3.436-2.41,4.932c0.001,0.088,0.12,1.044,0.206,1.646
			c-0.104-0.346-0.201-0.683-0.312-1.039c-0.216-0.704-0.451-1.399-0.702-2.149c-0.134-0.358-0.269-0.719-0.406-1.084
			c-0.128-0.364-0.309-0.734-0.463-1.105c-0.376-0.853-0.798-1.699-1.242-2.542c0.616-0.19,2.792-0.897,3.637-1.636
			c0.841-0.736,1.708-1.907,1.623-3.086c-0.083-1.155-1.078-2.095-2.267-1.888c-1.651,0.287-2.923,3.028-3.13,4.51
			c-0.013,0.092-0.042,1.172-0.047,1.766c-0.271-0.504-0.539-1.01-0.83-1.511c-0.839-1.448-1.733-2.888-2.62-4.329
			c-0.272-0.441-0.537-0.884-0.804-1.326c0.22-0.065,2.825-0.849,3.771-1.677c0.841-0.736,1.708-1.907,1.623-3.086
			c-0.083-1.155-1.078-2.095-2.267-1.888c-1.651,0.288-2.923,3.028-3.13,4.51c-0.016,0.112-0.056,1.665-0.047,2.061
			c-0.588-0.974-1.165-1.95-1.696-2.936c-0.733-1.359-1.377-2.732-1.903-4.109c0.103-0.03,2.825-0.836,3.795-1.684
			c0.841-0.736,1.708-1.907,1.623-3.086c-0.083-1.155-1.078-2.095-2.267-1.888c-1.65,0.287-2.922,3.028-3.13,4.51
			c-0.016,0.116-0.059,1.788-0.044,2.091c-0.031-0.082-0.073-0.163-0.103-0.245c-0.542-1.478-0.883-2.977-1.132-4.396
			c-0.147-0.824-0.241-1.62-0.315-2.397c0.523-0.098,2.906-0.573,3.862-1.24c0.917-0.639,1.907-1.708,1.953-2.889
			c0.045-1.157-0.841-2.201-2.046-2.126c-1.672,0.104-3.237,2.689-3.606,4.139c-0.02,0.079-0.135,0.903-0.211,1.504
			c-0.028-0.351-0.064-0.713-0.084-1.049c-0.079-1.264-0.074-2.427-0.06-3.457c0.012-0.586,0.035-1.115,0.062-1.61
			c0.462-0.364,2.308-1.853,2.84-2.867c0.519-0.99,0.905-2.394,0.401-3.464c-0.494-1.048-1.761-1.566-2.795-0.944
			c-1.436,0.863-1.634,3.878-1.294,5.335c0.03,0.126,0.716,2.042,0.741,2.023c0,0,0.023-0.018,0.028-0.022
			c-0.035,0.476-0.067,0.986-0.091,1.545c-0.036,1.031-0.067,2.197-0.015,3.468c0.049,1.27,0.137,2.649,0.362,4.093
			c0.223,1.447,0.531,2.959,1.051,4.475c0.006,0.017,0.014,0.034,0.02,0.051c-0.29-0.396-1.137-1.477-1.211-1.553
			c-1.049-1.066-3.704-2.509-5.201-1.757c-1.078,0.542-1.318,1.891-0.696,2.867C511.308,418.11,512.701,418.533,513.815,418.623z"/>
		<path style="fill:#92E3A9;" d="M541.979,408.923c0.027,0.015,0.408-1.985,0.418-2.113c0.111-1.492-0.552-4.44-2.105-5.07
			c-1.118-0.454-2.29,0.254-2.615,1.366c-0.332,1.135,0.267,2.463,0.933,3.36C539.392,407.518,541.977,408.922,541.979,408.923z"/>
	</g>
	<g>
		<path style="fill:#92E3A9;" d="M315.399,388.931c-1.966,0.712-6.635,0.306-6.639,0.305c-0.048-0.004,1.202-2.996,1.303-3.176
			c1.164-2.081,4.637-5.415,7.254-4.889c1.885,0.38,2.82,2.351,2.276,4.114C319.037,387.086,317.073,388.324,315.399,388.931z"/>
		<path style="fill:#92E3A9;" d="M312.913,402.372c-2.002,0.161-6.097-1.317-6.422-1.436c-0.809,2.294-1.826,4.582-2.982,6.84
			c-0.659,1.292-1.364,2.573-2.087,3.848c0.417-0.533,0.793-1.007,0.853-1.067c1.673-1.699,5.903-3.998,8.287-2.799
			c1.719,0.864,2.1,3.012,1.109,4.569c-1.011,1.59-3.233,2.266-5.008,2.408c-1.801,0.145-5.318-1.046-6.244-1.373
			c-0.282,0.486-0.559,0.975-0.843,1.46c-1.363,2.329-2.733,4.646-4.008,6.961c-0.45,0.815-0.862,1.635-1.279,2.453
			c0.37-0.473,0.686-0.868,0.741-0.924c1.672-1.699,5.902-3.998,8.287-2.799c1.719,0.864,2.1,3.012,1.109,4.569
			c-1.012,1.59-3.233,2.265-5.008,2.408c-1.719,0.139-4.975-0.931-6.077-1.315c-0.401,0.851-0.804,1.703-1.154,2.545
			c-0.226,0.581-0.484,1.124-0.678,1.72c-0.205,0.586-0.408,1.166-0.609,1.741c-0.346,1.12-0.711,2.275-1.021,3.376
			c-0.222,0.765-0.419,1.497-0.62,2.235c0.438-0.817,1.329-2.398,1.419-2.522c1.395-1.933,5.228-4.846,7.767-4.022
			c1.829,0.594,2.532,2.659,1.788,4.348c-0.759,1.725-2.852,2.729-4.585,3.139c-1.908,0.451-6.016-0.338-6.529-0.44
			c-0.328,1.222-0.635,2.413-0.907,3.542c-0.246,1.011-0.468,1.971-0.673,2.889l-1.669-0.108c0.245-1.003,0.511-2.056,0.809-3.171
			c0.328-1.242,0.703-2.562,1.101-3.915c-0.303-0.144-2.024-0.972-3.533-1.947c-1.459,1.389-5.064,2.892-5.53,3.083
			c0.4,1.2,0.801,2.363,1.197,3.455c0.271,0.752,0.537,1.472,0.798,2.164l-1.768-0.114c-0.173-0.498-0.347-1.003-0.524-1.53
			c-0.412-1.217-0.827-2.525-1.241-3.872c-0.508,0.073-4.662,0.641-6.545,0.087c-1.708-0.504-3.744-1.619-4.409-3.383
			c-0.651-1.726,0.161-3.751,2.021-4.245c2.58-0.686,6.25,2.43,7.539,4.436c0.076,0.118,0.758,1.494,1.174,2.369
			c-0.166-0.551-0.334-1.085-0.498-1.655c-0.333-1.124-0.631-2.256-0.956-3.473c-0.137-0.593-0.275-1.192-0.414-1.797
			c-0.151-0.597-0.234-1.247-0.356-1.876c-0.251-1.465-0.433-2.96-0.584-4.471c-0.985,0.288-4.499,1.263-6.272,1.023
			c-1.765-0.239-3.946-1.033-4.87-2.675c-0.906-1.608-0.409-3.733,1.354-4.503c2.447-1.069,6.546,1.456,8.124,3.243
			c0.099,0.111,1.087,1.521,1.614,2.305c-0.083-0.909-0.171-1.816-0.226-2.738c-0.158-2.662-0.234-5.362-0.323-8.056
			c-0.026-0.825-0.063-1.647-0.097-2.469c-0.35,0.107-4.501,1.355-6.487,1.087c-1.764-0.238-3.946-1.033-4.871-2.675
			c-0.906-1.607-0.409-3.732,1.354-4.502c2.446-1.069,6.546,1.456,8.124,3.242c0.119,0.134,1.538,2.165,1.874,2.698
			c-0.074-1.812-0.165-3.617-0.327-5.392c-0.219-2.45-0.571-4.842-1.083-7.134c-0.162,0.05-4.49,1.373-6.523,1.098
			c-1.764-0.239-3.946-1.033-4.871-2.675c-0.906-1.608-0.409-3.732,1.354-4.502c2.446-1.069,6.546,1.456,8.124,3.242
			c0.124,0.14,1.649,2.325,1.898,2.741c-0.031-0.136-0.048-0.281-0.08-0.416c-0.577-2.44-1.443-4.731-2.359-6.837
			c-0.53-1.225-1.104-2.366-1.688-3.463c-0.781,0.329-4.365,1.793-6.223,1.748c-1.78-0.043-4.036-0.593-5.135-2.124
			c-1.077-1.499-0.816-3.665,0.851-4.624c2.314-1.331,6.666,0.728,8.431,2.33c0.096,0.087,0.973,1.081,1.602,1.814
			c-0.271-0.492-0.542-1.003-0.811-1.468c-1.006-1.75-2.036-3.291-2.958-4.648c-0.531-0.767-1.026-1.451-1.496-2.085
			c-0.934-0.077-4.697-0.434-6.295-1.313c-1.559-0.859-3.308-2.386-3.579-4.251c-0.265-1.826,0.965-3.629,2.886-3.711
			c2.667-0.115,5.581,3.718,6.409,5.953c0.071,0.193,0.843,3.343,0.794,3.34c0,0-0.045-0.003-0.057-0.004
			c0.465,0.601,0.956,1.252,1.478,1.973c0.954,1.34,2.02,2.862,3.068,4.597c1.052,1.731,2.147,3.642,3.118,5.758
			c0.976,2.12,1.895,4.4,2.537,6.871c0.007,0.028,0.011,0.058,0.019,0.086c0.036-0.781,0.211-2.963,0.244-3.128
			c0.458-2.339,2.717-6.591,5.368-6.907c1.91-0.227,3.413,1.354,3.445,3.199c0.032,1.884-1.447,3.673-2.849,4.771
			c-1.58,1.239-5.812,2.264-6.149,2.345c0.591,2.359,1.005,4.828,1.287,7.35c0.163,1.442,0.281,2.899,0.382,4.361
			c0.053-0.675,0.106-1.277,0.123-1.361c0.458-2.34,2.717-6.591,5.368-6.907c1.91-0.228,3.413,1.354,3.445,3.199
			c0.033,1.884-1.447,3.673-2.848,4.771c-1.422,1.114-5.012,2.062-5.965,2.299c0.033,0.561,0.072,1.122,0.102,1.683
			c0.148,2.694,0.283,5.383,0.497,8.017c0.074,0.928,0.182,1.839,0.287,2.751c0.048-0.599,0.094-1.103,0.108-1.179
			c0.458-2.34,2.717-6.591,5.367-6.907c1.91-0.227,3.414,1.354,3.446,3.2c0.033,1.884-1.447,3.673-2.849,4.771
			c-1.357,1.064-4.663,1.968-5.794,2.256c0.135,0.931,0.269,1.863,0.442,2.76c0.132,0.609,0.217,1.204,0.383,1.809
			c0.152,0.601,0.303,1.198,0.452,1.788c0.33,1.126,0.662,2.289,1.011,3.379c0.237,0.76,0.477,1.48,0.716,2.206
			c-0.085-0.923-0.214-2.733-0.208-2.886c0.065-1.582,0.792-4.115,2.025-5.85c0.008-0.234,0.036-0.466,0.089-0.694
			c0.409-1.799,2.204-3.04,4.027-2.426c2.53,0.851,3.872,5.475,3.841,7.858c-0.002,0.141-0.192,1.664-0.328,2.623
			c0.166-0.552,0.32-1.089,0.498-1.655c0.343-1.121,0.719-2.23,1.118-3.425c0.213-0.57,0.429-1.145,0.646-1.727
			c0.203-0.581,0.492-1.169,0.738-1.761c0.599-1.359,1.272-2.708,1.98-4.051c-0.982-0.303-4.45-1.429-5.796-2.607
			c-1.34-1.172-2.721-3.039-2.587-4.918c0.132-1.841,1.718-3.339,3.613-3.009c2.63,0.458,4.657,4.825,4.988,7.186
			c0.021,0.147,0.067,1.868,0.075,2.814c0.432-0.804,0.859-1.609,1.322-2.408c1.337-2.308,2.762-4.602,4.174-6.897
			c0.433-0.703,0.855-1.408,1.282-2.113c-0.35-0.104-4.502-1.353-6.01-2.672c-1.34-1.172-2.721-3.038-2.587-4.918
			c0.132-1.84,1.718-3.339,3.613-3.008c2.63,0.458,4.657,4.825,4.988,7.186c0.025,0.178,0.089,2.654,0.074,3.284
			c0.937-1.552,1.857-3.107,2.702-4.678c1.168-2.165,2.195-4.354,3.033-6.548c-0.164-0.048-4.502-1.333-6.047-2.683
			c-1.34-1.172-2.721-3.038-2.587-4.918c0.131-1.841,1.718-3.339,3.613-3.008c2.63,0.458,4.657,4.825,4.987,7.186
			c0.026,0.185,0.093,2.849,0.071,3.332c0.05-0.13,0.116-0.26,0.163-0.391c0.864-2.354,1.407-4.743,1.804-7.004
			c0.234-1.313,0.383-2.582,0.502-3.819c-0.832-0.156-4.63-0.913-6.154-1.975c-1.461-1.018-3.039-2.721-3.111-4.604
			c-0.071-1.844,1.341-3.508,3.26-3.387c2.664,0.166,5.159,4.285,5.747,6.595c0.032,0.126,0.216,1.439,0.336,2.397
			c0.045-0.559,0.102-1.136,0.134-1.672c0.126-2.015,0.117-3.868,0.096-5.508c-0.019-0.933-0.056-1.776-0.098-2.565
			c-0.737-0.58-3.678-2.953-4.525-4.569c-0.827-1.577-1.443-3.815-0.64-5.52c0.787-1.669,2.806-2.495,4.454-1.504
			c2.288,1.376,2.604,6.18,2.062,8.501c-0.047,0.2-1.141,3.253-1.18,3.224c0,0-0.036-0.028-0.044-0.035
			c0.056,0.758,0.107,1.572,0.144,2.461c0.057,1.644,0.106,3.501,0.023,5.527c-0.077,2.024-0.218,4.222-0.576,6.522
			c-0.355,2.306-0.846,4.715-1.674,7.131c-0.009,0.027-0.023,0.055-0.032,0.082c0.462-0.632,1.811-2.354,1.93-2.474
			c1.672-1.699,5.902-3.998,8.287-2.799c1.718,0.864,2.1,3.013,1.109,4.569C316.909,401.553,314.688,402.229,312.913,402.372z"/>
		<path style="fill:#92E3A9;" d="M268.035,386.915c-0.043,0.023-0.65-3.163-0.666-3.368c-0.176-2.377,0.88-7.074,3.354-8.079
			c1.782-0.724,3.649,0.405,4.167,2.176c0.529,1.808-0.425,3.924-1.487,5.354C272.157,384.676,268.038,386.913,268.035,386.915z"/>
	</g>
</g>
<g id="Light_Bulb">
	<g>
		<g>
			<g>
				<g>
					<path style="fill:#FFFFFF;stroke:#263238;stroke-linejoin:round;stroke-miterlimit:10;" d="M672.392,251.757
						c0-43.218-36.524-77.904-80.389-74.877c-36.573,2.524-66.385,31.848-69.459,68.378c-1.75,20.786,4.984,39.979,17.114,54.518
						c11.056,13.253,17.099,29.971,17.099,47.23v10.284h81.147v-10.285c0-17.241,6.01-33.956,17.064-47.187
						C665.844,286.802,672.392,270.048,672.392,251.757z"/>
					
						<rect x="556.757" y="357.313" style="fill:#FFFFFF;stroke:#263238;stroke-linecap:round;stroke-linejoin:round;stroke-miterlimit:10;" width="81.147" height="20.073"/>
					<path style="fill:#FFFFFF;stroke:#263238;stroke-linecap:round;stroke-linejoin:round;stroke-miterlimit:10;" d="
						M633.179,397.508h-71.697c-2.61,0-4.725-2.116-4.725-4.725v-15.347h81.147v15.347
						C637.905,395.392,635.789,397.508,633.179,397.508z"/>
					<path style="fill:#263238;stroke:#263238;stroke-miterlimit:10;" d="M620.839,417.556h-47.016
						c-3.063,0-5.655-2.018-6.519-4.796c-0.633-2.034-1.243-4.074-2.13-6.011l-4.243-9.266h72.802l-4.244,9.266
						c-0.887,1.936-1.498,3.977-2.13,6.011C626.494,415.538,623.902,417.556,620.839,417.556z"/>
				</g>
			</g>
			
				<ellipse transform="matrix(0.7071 -0.7071 0.7071 0.7071 -3.5258 496.294)" style="fill:#92E3A9;" cx="597.317" cy="252.403" rx="66.078" ry="66.078"/>
			
				<ellipse transform="matrix(0.6323 -0.7747 0.7747 0.6323 24.0729 555.5303)" style="opacity:0.65;fill:#FFFFFF;" cx="597.317" cy="252.403" rx="33.86" ry="33.86"/>
		</g>
		<path style="fill:none;stroke:#263238;stroke-linecap:round;stroke-linejoin:round;stroke-miterlimit:10;" d="M588.483,357.18
			c0,0-2.866-93.723-9.234-106.801c-6.367-13.078-11.294,0.881-5.546,18.945c5.748,18.064,23.812,14.78,27.917-4.927
			c4.105-19.706-2.463-30.38-5.748-13.959c-3.284,16.422,3.636,37.654,15.366,29.091c11.73-8.564,28.152-41.407,15.836-35.66
			c-12.316,5.748-26.275,61.582-17.243,113.31"/>
	</g>
</g>
<g id="Money">
	<g>
		<g>
			<path style="fill:#FFFFFF;stroke:#263238;stroke-linejoin:round;stroke-miterlimit:10;" d="M200.568,258.075l15.184-48.172
				c0,0-1.095-2.574-9.903-4.776c-8.808-2.202-12.667,3.675-17.622,5.327c-4.955,1.652-11.177-8.021-17.616-8.258
				c-11.959-0.44-14.863,4.404-22.57,7.707c-7.707,3.303-7.707-3.303-15.965-6.055c-8.258-2.753-15.965,6.606-15.965,6.606
				l21.314,45.227c-36.441,12.674-62.755,48.978-62.755,91.794c0,53.355,40.859,96.608,91.262,96.608s91.262-43.253,91.262-96.608
				C257.194,307.099,233.793,272.516,200.568,258.075z"/>
			<g>
				<line style="fill:none;stroke:#263238;stroke-miterlimit:10;" x1="146.527" y1="249.792" x2="139.774" y2="239.514"/>
				<line style="fill:none;stroke:#263238;stroke-miterlimit:10;" x1="190.342" y1="235.468" x2="186.288" y2="250.341"/>
				<line style="fill:none;stroke:#263238;stroke-miterlimit:10;" x1="148.407" y1="235.812" x2="147.898" y2="231.42"/>
				<line style="fill:none;stroke:#263238;stroke-miterlimit:10;" x1="150.092" y1="250.341" x2="148.83" y2="239.455"/>
				<line style="fill:none;stroke:#263238;stroke-miterlimit:10;" x1="197.612" y1="232.298" x2="199.176" y2="228.952"/>
				<line style="fill:none;stroke:#263238;stroke-miterlimit:10;" x1="189.304" y1="250.066" x2="196.11" y2="235.51"/>
			</g>
			<g>
				<path style="fill:#FFFFFF;stroke:#263238;stroke-linejoin:round;stroke-miterlimit:10;" d="M206.52,312.609
					c-1.911,0-3.518-1.487-3.638-3.421c-1.914-30.632-21.663-50.713-21.863-50.912c-1.425-1.425-1.425-3.735,0-5.161
					c1.425-1.424,3.735-1.424,5.161,0c0.893,0.893,21.901,22.261,23.986,55.618c0.126,2.011-1.403,3.744-3.414,3.869
					C206.673,312.607,206.596,312.609,206.52,312.609z"/>
			</g>
			<g>
				<path style="fill:#FFFFFF;stroke:#263238;stroke-linejoin:round;stroke-miterlimit:10;" d="M225.324,305.391
					c-1.847,0.491-3.782-0.533-4.395-2.371c-9.726-29.11-33.973-43.439-34.217-43.58c-1.743-1.011-2.337-3.243-1.327-4.987
					c1.011-1.743,3.243-2.337,4.987-1.327c1.093,0.634,26.888,15.882,37.479,47.581c0.639,1.912-0.393,3.979-2.305,4.617
					C225.471,305.349,225.398,305.371,225.324,305.391z"/>
			</g>
			<path style="fill:#FFFFFF;stroke:#263238;stroke-linejoin:round;stroke-miterlimit:10;" d="M199.107,259.741h-63.378
				c-2.607,0-4.72-2.113-4.72-4.72l0,0c0-2.607,2.113-4.72,4.72-4.72h63.378c2.607,0,4.72,2.113,4.72,4.72l0,0
				C203.826,257.628,201.713,259.741,199.107,259.741z"/>
			<g>
				<path style="fill:#263238;" d="M165.551,381.01v-8.895c-6.568-0.255-11.477-2.358-14.729-6.312
					c-3.252-3.953-5.007-9.852-5.261-17.694l13.486-2.295c0.127,3.189,0.462,5.851,1.004,7.986c0.541,2.137,1.354,3.73,2.439,4.782
					c1.083,1.052,2.487,1.578,4.209,1.578c1.975,0,3.331-0.637,4.065-1.913c0.732-1.275,1.1-2.741,1.1-4.4
					c0-3.252-0.751-5.978-2.248-8.178c-1.499-2.2-3.556-4.415-6.169-6.647l-8.129-6.982c-1.85-1.722-3.508-3.474-4.974-5.26
					c-1.467-1.785-2.63-3.826-3.491-6.121c-0.861-2.296-1.291-5.005-1.291-8.13c0-5.993,1.705-10.665,5.117-14.012
					c3.41-3.347,7.986-5.244,13.725-5.691v-8.512h4.591v8.512c3.443,0.191,6.265,0.973,8.464,2.344
					c2.2,1.371,3.874,3.093,5.021,5.164c1.148,2.073,1.976,4.337,2.487,6.791c0.51,2.456,0.828,4.83,0.957,7.126l-13.677,2.009
					c-0.064-2.358-0.255-4.448-0.574-6.265c-0.32-1.817-0.894-3.236-1.722-4.256c-0.829-1.02-2.104-1.498-3.826-1.435
					c-1.786,0.065-3.141,0.766-4.065,2.104c-0.925,1.339-1.387,2.838-1.387,4.495c0,2.934,0.701,5.293,2.104,7.078
					c1.401,1.786,2.996,3.508,4.782,5.165l7.938,6.886c2.104,1.913,4.048,3.986,5.835,6.217c1.785,2.233,3.219,4.703,4.304,7.412
					c1.083,2.711,1.626,5.819,1.626,9.325c0,3.381-0.686,6.456-2.057,9.23c-1.372,2.773-3.347,5.021-5.93,6.743
					c-2.583,1.722-5.629,2.741-9.134,3.061v8.991H165.551z"/>
			</g>
		</g>
		<g>
			<rect x="115.04" y="417.153" style="fill:#92E3A9;stroke:#263238;stroke-miterlimit:10;" width="100.156" height="27.32"/>
			
				<rect x="215.063" y="417.153" style="fill:#A3A3A3;stroke:#263238;stroke-linejoin:round;stroke-miterlimit:10;" width="48.007" height="27.32"/>
			
				<line style="fill:none;stroke:#263238;stroke-linejoin:round;stroke-miterlimit:10;" x1="115.766" y1="422.357" x2="140.442" y2="422.357"/>
			
				<line style="fill:none;stroke:#263238;stroke-linejoin:round;stroke-miterlimit:10;" x1="129.919" y1="428.862" x2="150.603" y2="428.862"/>
			<polyline style="fill:none;stroke:#263238;stroke-linejoin:round;stroke-miterlimit:10;" points="204.673,425.393 
				215.559,425.393 222.517,425.393 			"/>
			
				<line style="fill:none;stroke:#263238;stroke-linejoin:round;stroke-miterlimit:10;" x1="115.766" y1="436.668" x2="124.475" y2="436.668"/>
			
				<line style="fill:none;stroke:#263238;stroke-linejoin:round;stroke-miterlimit:10;" x1="128.104" y1="436.668" x2="135.362" y2="436.668"/>
			
				<line style="fill:none;stroke:#263238;stroke-linejoin:round;stroke-miterlimit:10;" x1="215.559" y1="434.499" x2="177.094" y2="434.499"/>
			
				<rect x="154.736" y="417.151" style="fill:#FFFFFF;stroke:#263238;stroke-linejoin:round;stroke-miterlimit:10;" width="22.358" height="27.322"/>
			
				<line style="fill:none;stroke:#263238;stroke-linejoin:round;stroke-miterlimit:10;" x1="262.807" y1="431.234" x2="247.923" y2="431.234"/>
			
				<line style="fill:none;stroke:#263238;stroke-linejoin:round;stroke-miterlimit:10;" x1="215.075" y1="439.561" x2="226.109" y2="439.561"/>
			
				<line style="fill:none;stroke:#263238;stroke-linejoin:round;stroke-miterlimit:10;" x1="215.331" y1="430.51" x2="236.375" y2="430.51"/>
			
				<line style="fill:none;stroke:#263238;stroke-linejoin:round;stroke-miterlimit:10;" x1="262.807" y1="425.803" x2="242.79" y2="425.803"/>
			
				<line style="fill:none;stroke:#263238;stroke-linejoin:round;stroke-miterlimit:10;" x1="230.472" y1="439.561" x2="235.861" y2="439.561"/>
		</g>
		<g>
			<rect x="107.511" y="390.316" style="fill:#92E3A9;stroke:#263238;stroke-miterlimit:10;" width="100.156" height="27.32"/>
			
				<rect x="207.533" y="390.316" style="fill:#A3A3A3;stroke:#263238;stroke-linejoin:round;stroke-miterlimit:10;" width="48.007" height="27.32"/>
			
				<line style="fill:none;stroke:#263238;stroke-linejoin:round;stroke-miterlimit:10;" x1="108.237" y1="395.52" x2="132.913" y2="395.52"/>
			
				<line style="fill:none;stroke:#263238;stroke-linejoin:round;stroke-miterlimit:10;" x1="122.389" y1="402.025" x2="143.074" y2="402.025"/>
			<polyline style="fill:none;stroke:#263238;stroke-linejoin:round;stroke-miterlimit:10;" points="197.144,398.555 
				208.03,398.555 214.988,398.555 			"/>
			
				<line style="fill:none;stroke:#263238;stroke-linejoin:round;stroke-miterlimit:10;" x1="108.237" y1="409.83" x2="116.946" y2="409.83"/>
			
				<line style="fill:none;stroke:#263238;stroke-linejoin:round;stroke-miterlimit:10;" x1="120.575" y1="409.83" x2="127.833" y2="409.83"/>
			
				<line style="fill:none;stroke:#263238;stroke-linejoin:round;stroke-miterlimit:10;" x1="208.03" y1="407.662" x2="169.564" y2="407.662"/>
			
				<rect x="147.207" y="390.314" style="fill:#FFFFFF;stroke:#263238;stroke-linejoin:round;stroke-miterlimit:10;" width="22.358" height="27.322"/>
			
				<line style="fill:none;stroke:#263238;stroke-linejoin:round;stroke-miterlimit:10;" x1="255.278" y1="404.397" x2="240.394" y2="404.397"/>
			
				<line style="fill:none;stroke:#263238;stroke-linejoin:round;stroke-miterlimit:10;" x1="207.545" y1="412.723" x2="218.58" y2="412.723"/>
			
				<line style="fill:none;stroke:#263238;stroke-linejoin:round;stroke-miterlimit:10;" x1="207.802" y1="403.672" x2="228.845" y2="403.672"/>
			
				<line style="fill:none;stroke:#263238;stroke-linejoin:round;stroke-miterlimit:10;" x1="255.278" y1="398.966" x2="235.261" y2="398.966"/>
			
				<line style="fill:none;stroke:#263238;stroke-linejoin:round;stroke-miterlimit:10;" x1="222.943" y1="412.723" x2="228.332" y2="412.723"/>
		</g>
		<g>
			<rect x="115.541" y="363.478" style="fill:#92E3A9;stroke:#263238;stroke-miterlimit:10;" width="100.156" height="27.32"/>
			
				<rect x="215.563" y="363.478" style="fill:#A3A3A3;stroke:#263238;stroke-linejoin:round;stroke-miterlimit:10;" width="48.007" height="27.32"/>
			
				<line style="fill:none;stroke:#263238;stroke-linejoin:round;stroke-miterlimit:10;" x1="116.266" y1="368.682" x2="140.943" y2="368.682"/>
			
				<line style="fill:none;stroke:#263238;stroke-linejoin:round;stroke-miterlimit:10;" x1="130.419" y1="375.187" x2="151.103" y2="375.187"/>
			<polyline style="fill:none;stroke:#263238;stroke-linejoin:round;stroke-miterlimit:10;" points="205.173,371.718 
				216.06,371.718 223.017,371.718 			"/>
			
				<line style="fill:none;stroke:#263238;stroke-linejoin:round;stroke-miterlimit:10;" x1="116.266" y1="382.993" x2="124.976" y2="382.993"/>
			
				<line style="fill:none;stroke:#263238;stroke-linejoin:round;stroke-miterlimit:10;" x1="128.605" y1="382.993" x2="135.862" y2="382.993"/>
			
				<line style="fill:none;stroke:#263238;stroke-linejoin:round;stroke-miterlimit:10;" x1="216.06" y1="380.825" x2="177.594" y2="380.825"/>
			
				<rect x="155.236" y="363.477" style="fill:#FFFFFF;stroke:#263238;stroke-linejoin:round;stroke-miterlimit:10;" width="22.358" height="27.322"/>
			
				<line style="fill:none;stroke:#263238;stroke-linejoin:round;stroke-miterlimit:10;" x1="263.307" y1="377.559" x2="248.423" y2="377.559"/>
			
				<line style="fill:none;stroke:#263238;stroke-linejoin:round;stroke-miterlimit:10;" x1="215.575" y1="385.886" x2="226.61" y2="385.886"/>
			
				<line style="fill:none;stroke:#263238;stroke-linejoin:round;stroke-miterlimit:10;" x1="215.831" y1="376.835" x2="236.875" y2="376.835"/>
			
				<line style="fill:none;stroke:#263238;stroke-linejoin:round;stroke-miterlimit:10;" x1="263.307" y1="372.129" x2="243.291" y2="372.129"/>
			
				<line style="fill:none;stroke:#263238;stroke-linejoin:round;stroke-miterlimit:10;" x1="230.973" y1="385.886" x2="236.362" y2="385.886"/>
		</g>
		<g>
			<g>
				<g>
					
						<rect x="132.385" y="386.935" style="fill:#CCCCCC;stroke:#263238;stroke-linejoin:round;stroke-miterlimit:10;" width="124.404" height="57.554"/>
					
						<line style="fill:none;stroke:#263238;stroke-linejoin:round;stroke-miterlimit:10;" x1="245.123" y1="387.235" x2="245.123" y2="411.233"/>
					
						<line style="fill:none;stroke:#263238;stroke-linejoin:round;stroke-miterlimit:10;" x1="248.455" y1="387.401" x2="248.455" y2="394.702"/>
					
						<line style="fill:none;stroke:#263238;stroke-linejoin:round;stroke-miterlimit:10;" x1="247.46" y1="444.316" x2="247.46" y2="422.579"/>
					
						<line style="fill:none;stroke:#263238;stroke-linejoin:round;stroke-miterlimit:10;" x1="250.945" y1="444.648" x2="250.945" y2="440.832"/>
					
						<line style="fill:none;stroke:#263238;stroke-linejoin:round;stroke-miterlimit:10;" x1="254.263" y1="444.482" x2="254.263" y2="433.696"/>
					
						<line style="fill:none;stroke:#263238;stroke-linejoin:round;stroke-miterlimit:10;" x1="247.294" y1="420.422" x2="247.294" y2="415.941"/>
					
						<line style="fill:none;stroke:#263238;stroke-linejoin:round;stroke-miterlimit:10;" x1="248.29" y1="396.527" x2="248.29" y2="399.182"/>
				</g>
				
					<rect x="132.385" y="386.935" style="fill:#92E3A9;stroke:#263238;stroke-linejoin:round;stroke-miterlimit:10;" width="109.976" height="57.554"/>
				<path style="fill:#FFFFFF;stroke:#263238;stroke-linejoin:round;stroke-miterlimit:10;" d="M235.149,435.311v-39.199
					c-2.161,0-3.914-1.752-3.914-3.914h-87.175c0,2.162-1.752,3.914-3.914,3.914c-0.189,0-0.369-0.03-0.551-0.056v39.31
					c0.182-0.026,0.362-0.055,0.551-0.055c2.162,0,3.914,1.752,3.914,3.914h87.175C231.235,437.064,232.988,435.311,235.149,435.311
					z M187.372,431.943c-8.964,0-16.231-7.267-16.231-16.231s7.267-16.231,16.231-16.231s16.23,7.267,16.23,16.231
					S196.336,431.943,187.372,431.943z"/>
			</g>
			
				<rect x="182.458" y="386.773" style="fill:#FFFFFF;stroke:#263238;stroke-linejoin:round;stroke-miterlimit:10;" width="9.954" height="57.634"/>
		</g>
		<g>
			
				<rect x="81.97" y="429.874" style="fill:#FFFFFF;stroke:#263238;stroke-linejoin:round;stroke-miterlimit:10;" width="42.337" height="14.599"/>
			
				<rect x="87.362" y="429.874" style="fill:#263238;stroke:#263238;stroke-linejoin:round;stroke-miterlimit:10;" width="5.392" height="14.599"/>
			
				<rect x="95.264" y="429.874" style="fill:#263238;stroke:#263238;stroke-linejoin:round;stroke-miterlimit:10;" width="2.696" height="14.599"/>
		</g>
		<g>
			
				<rect x="85.5" y="415.229" style="fill:#FFFFFF;stroke:#263238;stroke-linejoin:round;stroke-miterlimit:10;" width="42.337" height="14.599"/>
			
				<rect x="90.892" y="415.229" style="fill:#263238;stroke:#263238;stroke-linejoin:round;stroke-miterlimit:10;" width="5.392" height="14.599"/>
			
				<rect x="98.795" y="415.229" style="fill:#263238;stroke:#263238;stroke-linejoin:round;stroke-miterlimit:10;" width="2.696" height="14.599"/>
		</g>
		<g>
			
				<rect x="81.97" y="400.585" style="fill:#FFFFFF;stroke:#263238;stroke-linejoin:round;stroke-miterlimit:10;" width="42.337" height="14.599"/>
			
				<rect x="87.362" y="400.585" style="fill:#263238;stroke:#263238;stroke-linejoin:round;stroke-miterlimit:10;" width="5.392" height="14.599"/>
			
				<rect x="95.264" y="400.585" style="fill:#263238;stroke:#263238;stroke-linejoin:round;stroke-miterlimit:10;" width="2.696" height="14.599"/>
		</g>
		<g>
			
				<rect x="79.873" y="385.94" style="fill:#FFFFFF;stroke:#263238;stroke-linejoin:round;stroke-miterlimit:10;" width="42.337" height="14.599"/>
			
				<rect x="85.265" y="385.94" style="fill:#263238;stroke:#263238;stroke-linejoin:round;stroke-miterlimit:10;" width="5.392" height="14.599"/>
			
				<rect x="93.167" y="385.94" style="fill:#263238;stroke:#263238;stroke-linejoin:round;stroke-miterlimit:10;" width="2.696" height="14.599"/>
		</g>
		<g>
			
				<rect x="81.97" y="371.295" style="fill:#FFFFFF;stroke:#263238;stroke-linejoin:round;stroke-miterlimit:10;" width="42.337" height="14.599"/>
			
				<rect x="87.362" y="371.295" style="fill:#263238;stroke:#263238;stroke-linejoin:round;stroke-miterlimit:10;" width="5.392" height="14.599"/>
			
				<rect x="95.264" y="371.295" style="fill:#263238;stroke:#263238;stroke-linejoin:round;stroke-miterlimit:10;" width="2.696" height="14.599"/>
		</g>
		<g>
			
				<rect x="45.203" y="429.874" style="fill:#FFFFFF;stroke:#263238;stroke-linejoin:round;stroke-miterlimit:10;" width="42.337" height="14.599"/>
			
				<rect x="50.595" y="429.874" style="fill:#263238;stroke:#263238;stroke-linejoin:round;stroke-miterlimit:10;" width="5.392" height="14.599"/>
			
				<rect x="58.497" y="429.874" style="fill:#263238;stroke:#263238;stroke-linejoin:round;stroke-miterlimit:10;" width="2.696" height="14.599"/>
		</g>
		<g>
			
				<rect x="48.733" y="415.229" style="fill:#FFFFFF;stroke:#263238;stroke-linejoin:round;stroke-miterlimit:10;" width="42.337" height="14.599"/>
			
				<rect x="54.125" y="415.229" style="fill:#263238;stroke:#263238;stroke-linejoin:round;stroke-miterlimit:10;" width="5.392" height="14.599"/>
			
				<rect x="62.027" y="415.229" style="fill:#263238;stroke:#263238;stroke-linejoin:round;stroke-miterlimit:10;" width="2.696" height="14.599"/>
		</g>
		<g>
			
				<rect x="45.203" y="400.585" style="fill:#FFFFFF;stroke:#263238;stroke-linejoin:round;stroke-miterlimit:10;" width="42.337" height="14.599"/>
			
				<rect x="50.595" y="400.585" style="fill:#263238;stroke:#263238;stroke-linejoin:round;stroke-miterlimit:10;" width="5.392" height="14.599"/>
			
				<rect x="58.497" y="400.585" style="fill:#263238;stroke:#263238;stroke-linejoin:round;stroke-miterlimit:10;" width="2.696" height="14.599"/>
		</g>
		<g>
			
				<rect x="43.106" y="385.94" style="fill:#FFFFFF;stroke:#263238;stroke-linejoin:round;stroke-miterlimit:10;" width="42.337" height="14.599"/>
			
				<rect x="48.498" y="385.94" style="fill:#263238;stroke:#263238;stroke-linejoin:round;stroke-miterlimit:10;" width="5.392" height="14.599"/>
			
				<rect x="56.4" y="385.94" style="fill:#263238;stroke:#263238;stroke-linejoin:round;stroke-miterlimit:10;" width="2.696" height="14.599"/>
		</g>
		<g>
			
				<rect x="45.203" y="371.295" style="fill:#FFFFFF;stroke:#263238;stroke-linejoin:round;stroke-miterlimit:10;" width="42.337" height="14.599"/>
			
				<rect x="50.595" y="371.295" style="fill:#263238;stroke:#263238;stroke-linejoin:round;stroke-miterlimit:10;" width="5.392" height="14.599"/>
			
				<rect x="58.497" y="371.295" style="fill:#263238;stroke:#263238;stroke-linejoin:round;stroke-miterlimit:10;" width="2.696" height="14.599"/>
		</g>
		<g>
			
				<rect x="45.203" y="356.891" style="fill:#FFFFFF;stroke:#263238;stroke-linejoin:round;stroke-miterlimit:10;" width="42.337" height="14.599"/>
			
				<rect x="50.595" y="356.891" style="fill:#263238;stroke:#263238;stroke-linejoin:round;stroke-miterlimit:10;" width="5.392" height="14.599"/>
			
				<rect x="58.497" y="356.891" style="fill:#263238;stroke:#263238;stroke-linejoin:round;stroke-miterlimit:10;" width="2.696" height="14.599"/>
		</g>
		<g>
			
				<rect x="45.203" y="342.488" style="fill:#FFFFFF;stroke:#263238;stroke-linejoin:round;stroke-miterlimit:10;" width="42.337" height="14.599"/>
			
				<rect x="50.595" y="342.488" style="fill:#263238;stroke:#263238;stroke-linejoin:round;stroke-miterlimit:10;" width="5.392" height="14.599"/>
			
				<rect x="58.497" y="342.488" style="fill:#263238;stroke:#263238;stroke-linejoin:round;stroke-miterlimit:10;" width="2.696" height="14.599"/>
		</g>
		<g>
			
				<circle style="fill:#FFFFFF;stroke:#263238;stroke-linejoin:round;stroke-miterlimit:10;" cx="100.076" cy="423.625" r="20.632"/>
			<circle style="fill:#FFFFFF;stroke:#263238;stroke-linejoin:round;stroke-miterlimit:10;" cx="98.003" cy="423.625" r="20.632"/>
			<circle style="fill:#FFFFFF;stroke:#263238;stroke-linejoin:round;stroke-miterlimit:10;" cx="98.003" cy="423.625" r="17.671"/>
			<g>
				<path style="fill:#263238;" d="M97.833,438.738v-2.816c-2.08-0.081-3.634-0.747-4.664-1.999
					c-1.03-1.252-1.585-3.119-1.666-5.602l4.27-0.727c0.04,1.01,0.146,1.853,0.318,2.529c0.171,0.677,0.429,1.181,0.772,1.514
					c0.343,0.333,0.787,0.5,1.333,0.5c0.625,0,1.055-0.202,1.287-0.606c0.232-0.404,0.348-0.868,0.348-1.393
					c0-1.03-0.238-1.893-0.712-2.589c-0.475-0.697-1.126-1.398-1.953-2.105l-2.574-2.211c-0.586-0.545-1.111-1.1-1.575-1.665
					c-0.465-0.565-0.833-1.212-1.105-1.938c-0.272-0.727-0.409-1.585-0.409-2.574c0-1.898,0.54-3.377,1.62-4.437
					c1.08-1.06,2.529-1.66,4.346-1.802v-2.695h1.454v2.695c1.09,0.061,1.984,0.308,2.68,0.742c0.697,0.434,1.227,0.979,1.59,1.635
					c0.364,0.656,0.626,1.373,0.787,2.15c0.162,0.778,0.262,1.529,0.303,2.256l-4.331,0.636c-0.02-0.747-0.081-1.408-0.182-1.984
					c-0.101-0.575-0.283-1.025-0.545-1.348c-0.263-0.323-0.666-0.474-1.211-0.454c-0.565,0.02-0.995,0.242-1.287,0.666
					c-0.293,0.424-0.439,0.899-0.439,1.423c0,0.929,0.222,1.676,0.666,2.241c0.444,0.565,0.949,1.111,1.514,1.635l2.513,2.18
					c0.666,0.606,1.282,1.262,1.848,1.969c0.565,0.707,1.019,1.489,1.363,2.347c0.343,0.858,0.515,1.843,0.515,2.953
					c0,1.07-0.217,2.044-0.651,2.922c-0.434,0.878-1.06,1.59-1.878,2.135c-0.818,0.545-1.782,0.868-2.892,0.969v2.847H97.833z"/>
			</g>
		</g>
	</g>
</g>
<g id="Characters">
	<g>
		<g>
			<g>
				<path style="fill:#FFFFFF;stroke:#263238;stroke-miterlimit:10;" d="M436.109,250.002c0,0-26.16,3.876-28.582,3.714
					c-2.422-0.161-12.111-1.615-12.111-1.615l-8.074,1.13l2.907,12.111c0,0,5.813,0.969,8.559-0.161
					c2.745-1.13,5.49-2.907,5.49-2.907s34.073,5.006,37.141,2.261C444.506,261.79,436.109,250.002,436.109,250.002z"/>
				<g>
					<path style="fill:#FFFFFF;stroke:#263238;stroke-miterlimit:10;" d="M324.26,428.758c0,0,5.531,2.938,10.197,5.358
						c4.667,2.42,10.716,3.802,11.753,4.667c1.037,0.864-0.518,5.358-0.518,5.358h-43.555c0,0-0.864-2.592,0-6.395
						c0.864-3.802,2.074-6.741,2.074-6.741L324.26,428.758z"/>
					<path style="fill:#263238;stroke:#263238;stroke-miterlimit:10;" d="M298.134,295.716l3.217,18.231
						c0,0,4.588,37.908,4.069,42.574c-0.519,4.667-5.531,15.383-5.358,24.889c0.173,9.506,3.63,35.076,3.63,35.595
						s-2.593,3.457-2.593,3.457s2.593,11.407,2.766,12.099c0.173,0.691,10.716,1.037,14.345,0.173
						c3.63-0.864,7.086-2.765,7.086-2.765s1.037-6.568,0.691-10.025c-0.346-3.457-2.247-8.296-2.247-8.296
						s14.691-56.335,15.21-64.977c0.519-8.642,2.593-45.975,2.593-45.975l-25.407-13.827L298.134,295.716z"/>
					<path style="fill:#FFFFFF;stroke:#263238;stroke-miterlimit:10;" d="M351.05,230.868c0,0,3.284,19.012,3.111,35.432
						c-0.173,16.42,0,31.284-0.518,33.358c-0.518,2.074-9.679,0.691-9.679,0.691l6.049-62.395L351.05,230.868z"/>
					<path style="fill:#FFFFFF;stroke:#263238;stroke-linejoin:round;stroke-miterlimit:10;" d="M313.717,177.461
						c0,0-20.222,20.568-21.086,24.889s-0.173,14.691,0,15.901c0.173,1.21,5.012,47.531,5.012,47.531s-5.358,11.58-5.185,12.099
						c0.173,0.519,0.346,21.432,0.346,21.432s2.938,2.765,8.988,3.802c6.049,1.037,6.913,1.037,6.913,1.037l4.148-8.469l1.383,9.333
						c0,0,7.086,3.63,15.728,2.42c8.642-1.21,15.728-3.284,16.42-3.802c0.691-0.518,4.839-45.456,5.185-49.605
						c0.346-4.148-0.173-17.63-0.519-23.16c-0.346-5.531-6.049-28.345-6.741-31.111c-0.691-2.765-14.518-14.518-19.012-16.247
						C320.803,181.782,313.717,177.461,313.717,177.461z"/>
					<path style="fill:#FFFFFF;stroke:#263238;stroke-linejoin:round;stroke-miterlimit:10;" d="M351.529,241.668
						c-0.131-4.161-0.323-8.296-0.479-10.8c-0.346-5.531-6.049-28.345-6.741-31.111c-0.691-2.765-14.518-14.518-19.012-16.247
						c-4.494-1.728-11.58-6.049-11.58-6.049s-1.38,1.404-3.425,3.545l14.487,19.096l8.642-0.346l-3.802,6.222L351.529,241.668z"/>
					<path style="fill:#263238;stroke:#263238;stroke-linejoin:round;stroke-miterlimit:10;" d="M313.717,177.461l26.271,24.197
						l8.296,26.617c0,0-2.42-24.37-3.975-28.518c-1.555-4.148-7.605-9.506-7.605-9.506L313.717,177.461z"/>
					<g>
						<path style="fill:#FFFFFF;stroke:#263238;stroke-linejoin:round;stroke-miterlimit:10;" d="M351.05,136.671
							c0,0,2.765,9.506,2.593,11.926c-0.173,2.42-1.901,5.704-1.728,6.222c0.173,0.519,5.185,7.432,4.667,8.296
							s-4.321,2.938-4.321,2.938s-0.864,10.025-1.556,12.444c-0.691,2.42-3.284,3.284-7.951,2.593
							c-4.667-0.691-4.667-0.691-4.667-0.691l-1.901,12.444l-20.049-15.383l0.518-8.642c0,0-7.086-10.37-8.123-13.481
							c-1.037-3.111,3.111-22.988,4.494-24.889c1.383-1.901,12.617-4.84,21.432-4.84c8.815,0,17.457,4.667,18.321,7.259
							S351.05,136.671,351.05,136.671z"/>
						<path style="fill:#263238;stroke:#263238;stroke-linejoin:round;stroke-miterlimit:10;" d="M350.704,178.498
							c0.574-2.01,1.267-9.263,1.486-11.663c-0.484-0.056-1.033-0.09-1.659-0.09c-3.457,0-6.913,1.21-9.506,3.63
							c-2.593,2.42-2.593,2.938-4.321,1.901c-1.728-1.037-3.63-3.457-4.148-4.667s-0.346-16.42-0.346-16.42s3.284-2.938,4.494-4.148
							c1.21-1.21-1.556-7.951-1.728-9.161c-0.173-1.21,16.074-1.21,16.074-1.21s2.593-1.21,1.728-3.803s-9.506-7.259-18.321-7.259
							c-8.815,0-20.049,2.938-21.432,4.84c-1.383,1.901-5.531,21.778-4.494,24.889c1.037,3.111,8.123,13.481,8.123,13.481
							l7.086-3.457c0,0-2.938-2.593-4.494-5.185c-1.556-2.593,0.173-6.914,2.938-8.988c2.765-2.074,4.667,0.691,5.358,1.555
							c0.691,0.864,1.037,4.494,1.037,7.086c0,2.593-1.037,10.716-0.346,13.136c0.691,2.42,9.852,7.432,9.852,7.432s0,0,4.667,0.691
							C347.421,181.782,350.013,180.918,350.704,178.498z"/>
						<ellipse style="fill:#263238;" cx="347.421" cy="155.424" rx="1.037" ry="1.988"/>
						<path style="fill:none;stroke:#263238;stroke-linejoin:round;stroke-miterlimit:10;" d="M345.001,151.362
							c0,0,2.247-2.42,5.012-0.864"/>
						<path style="fill:none;stroke:#FFFFFF;stroke-linejoin:round;stroke-miterlimit:10;" d="M350.877,172.103
							c0,0-4.321-0.346-5.704-2.42"/>
					</g>
					<polygon style="fill:#FFFFFF;stroke:#263238;stroke-linejoin:round;stroke-miterlimit:10;" points="315.791,174.523 
						339.124,190.942 338.433,200.449 313.717,177.461 					"/>
					<path style="fill:#FFFFFF;stroke:#263238;stroke-miterlimit:10;" d="M375.247,252.473c0,0,7.086-2.765,7.778-3.111
						c0.691-0.346,4.839,0.864,4.839,0.864s8.642,12.963,8.815,14c0.173,1.037,0.173,2.074-1.901,2.593
						c-2.074,0.519-2.318,0.355-2.318,0.355s-4.397,1.538-6.817,0.155c-2.42-1.383-9.878-2.239-9.878-2.239L375.247,252.473z"/>
					<g>
						<polygon style="fill:#FFFFFF;stroke:#263238;stroke-miterlimit:10;" points="369.198,251.781 375.247,252.473 375.766,265.09 
							369.544,263.707 						"/>
						<path style="fill:#FFFFFF;stroke:#263238;stroke-linejoin:round;stroke-miterlimit:10;" d="M297.816,216.35
							c0,0,15.383,31.975,19.012,38.543c3.63,6.568,7.259,6.914,8.123,7.259c0.864,0.346,44.938,4.321,44.938,4.321l0.518-14.518
							l-34.222-6.913l-12.79-39.58c0,0-6.914-10.889-10.889-12.099c-3.975-1.21-8.642,0.346-8.642,0.346"/>
					</g>
					<path style="fill:none;stroke:#263238;stroke-miterlimit:10;" d="M314.063,250.053c0,0-8.988,5.704-11.58,6.914"/>
					<path style="fill:none;stroke:#263238;stroke-miterlimit:10;" d="M313.89,255.584c0,0-9.679,7.605-12.79,9.679"/>
				</g>
				<path style="fill:#92E3A9;stroke:#263238;stroke-miterlimit:10;" d="M441.438,264.535c3.068-2.745-5.329-14.533-5.329-14.533
					s-1.324,0.196-3.396,0.497c0.922,2.832,3.645,11.081,5.287,14.803C439.732,265.202,440.96,264.962,441.438,264.535z"/>
				<path style="fill:#92E3A9;stroke:#263238;stroke-miterlimit:10;" d="M446.282,242.251c0,0-10.335,5.975-10.173,7.751
					s3.391,13.726,5.329,14.533s10.173-4.199,10.173-4.199L446.282,242.251z"/>
			</g>
			<path style="fill:#263238;stroke:#263238;stroke-miterlimit:10;" d="M474.045,139.931c0,0,3.218-5.42,6.267-7.283
				c3.049-1.863,10.332,1.524,13.55,5.081c3.218,3.557,8.469,16.091,9.993,25.407c1.524,9.316-2.541,17.616-4.065,18.971
				c-1.524,1.355-6.098,3.049-4.573,7.453c1.524,4.404,3.557,2.033,3.557,2.033s-0.169,4.743-2.71,6.945
				c-2.541,2.202-7.453,4.234-13.042,0.847c-5.59-3.388-11.01-9.993-11.348-14.567s0.339-8.13,0.677-8.977
				c0.339-0.847,7.792-7.792,8.3-14.567c0.508-6.775-3.726-15.244-6.098-16.938C472.182,142.641,474.045,139.931,474.045,139.931z"
				/>
			<path style="fill:#263238;stroke:#263238;stroke-miterlimit:10;" d="M491.83,283.227c-3.557-12.365-4.573-14.736-4.573-14.736
				l-37.602-0.847c0,0-1.016,14.567,0,24.391c1.016,9.824,1.694,17.446,1.694,17.446s-0.847,21.511,1.863,38.618
				c2.71,17.107,5.42,28.456,5.759,30.488c0.194,1.167,1.226,15.779,2.069,28.019l-2.609-0.078l2.137,17.093l-4.138,9.506
				c-2.541,2.202-12.703,7.622-13.55,9.147c-0.847,1.524,2.541,2.202,4.234,2.202s30.15,0,30.15,0s2.296-0.675,2.534-2.811
				c0.237-2.137-1.187-13.77-1.187-13.77l3.561-20.654l-2.495-0.075c1.472-10.503,3.007-23.545,2.33-27.901
				c-1.186-7.622-3.218-16.26-3.218-18.293c0-2.033,3.218-33.537,4.912-40.312c1.694-6.775,7.453-16.938,7.453-16.938
				S495.387,295.591,491.83,283.227z"/>
			<path style="fill:#FFFFFF;stroke:#263238;stroke-miterlimit:10;" d="M444.118,153.127c0,0-4.661-3.857-4.661-7.071
				c0-3.214,13.018-9.482,14.625-10.607c1.607-1.125,12.696-0.482,17.035,1.768c4.339,2.25,11.732,8.678,13.018,12.696
				c1.286,4.018,1.286,12.214,0.482,17.357c-0.803,5.143-9.803,11.893-9.803,11.893l3.053,11.41c0,0,5.786,3.536,9.643,11.25
				c3.857,7.714,2.732,45.642,2.732,45.642s-0.161,12.375,0,14.303c0.161,1.928,0.321,2.893-0.643,5.946
				c-0.964,3.053-1.607,3.053-3.696,2.893c-2.089-0.161-32.464,0.643-32.464,0.643s-3.053-0.161-4.982-1.768
				c-1.929-1.607-1.286-18.643-1.446-19.125c-0.161-0.482-3.857-13.018-4.5-16.875c-0.643-3.857,0.482-8.196,2.089-11.089
				c1.607-2.893,16.296-29.598,16.296-29.598l-4.128-8.825c0,0-7.232,2.25-8.678,2.25c-1.446,0-4.775-12.844-4.775-12.844
				s-3.857-3.375-4.179-4.178c-0.321-0.804,4.821-5.464,4.821-5.464s-0.321-4.661,0.161-6.428c0.126-0.462,0.745-1.504,1.591-2.793
				L444.118,153.127z"/>
			<g>
				<path style="fill:#263238;stroke:#263238;stroke-miterlimit:10;" d="M444.118,153.127l1.591,1.386l4.998-5.082
					c0,0-0.482,5.625,2.25,9.643c2.732,4.018,8.518,6.268,9.161,6.75c0.643,0.482,1.286,1.607,0.803,4.821
					c-0.402,2.68-2.364,3.791-3.286,3.809c1.03,0.453,3.58,1.563,4.893,0.369c1.768-1.607,1.607-4.821,1.446-6.589
					c-0.161-1.768,0.161-3.054,2.571-4.179c2.411-1.125,6.589-1.446,6.589,1.929c0,3.375-1.607,6.75-3.053,7.393
					c-1.446,0.643-3.375,0.804-3.375,0.804s1.928,4.5,6.107,4.982c0,0,9-6.75,9.803-11.893c0.803-5.143,0.803-13.339-0.482-17.357
					c-1.286-4.018-8.678-10.446-13.018-12.696c-4.339-2.25-15.428-2.893-17.035-1.768c-1.607,1.125-14.625,7.393-14.625,10.607
					C439.457,149.27,444.118,153.127,444.118,153.127z"/>
				<path style="fill:none;stroke:#263238;stroke-miterlimit:10;" d="M459.225,174.34c0.08,0.08,0.227,0.116,0.41,0.113
					C459.278,174.296,459.101,174.216,459.225,174.34z"/>
			</g>
			<path style="fill:#263238;" d="M448.766,165.182c0,1.066-0.465,1.93-1.038,1.93s-1.039-0.864-1.039-1.93s0.465-1.93,1.039-1.93
				S448.766,164.116,448.766,165.182z"/>
			<path style="fill:none;stroke:#263238;stroke-miterlimit:10;" d="M445.404,161.162c0,0,2.571-2.732,4.821,0.322"/>
			<path style="fill:none;stroke:#263238;stroke-miterlimit:10;" d="M445.725,176.751c0,0,3.536,0.482,6.428-2.732"/>
			<path style="fill:#92E3A9;stroke:#263238;stroke-miterlimit:10;" d="M487.51,201.822c-3.857-7.714-9.643-11.25-9.643-11.25
				s-4.669-0.335-8.226,3.899c-3.557,4.234-13.889,20.156-13.889,20.156l-6.339-1.341c-2.276,4.346-4.237,8.069-4.813,9.106
				c-1.607,2.893-2.732,7.232-2.089,11.089c0.643,3.857,4.339,16.393,4.5,16.875c0.161,0.482-0.482,17.517,1.446,19.124
				c1.928,1.607,4.982,1.768,4.982,1.768s30.374-0.803,32.464-0.643c2.089,0.161,2.732,0.161,3.696-2.893
				c0.964-3.053,0.803-4.018,0.643-5.946c-0.161-1.928,0-14.303,0-14.303S491.367,209.536,487.51,201.822z"/>
			<g>
				<g>
					<g>
						<path style="fill:#FFFFFF;stroke:#263238;stroke-miterlimit:10;" d="M468.625,266.119l-7.792,39.974
							c0,0-5.081,5.589-5.928,6.945c-0.847,1.355-0.508,7.622-0.508,9.316c0,1.694,0.847,4.743,1.524,5.42
							c0.678,0.678,1.694,2.033,3.218,1.863c1.524-0.169,2.541-0.508,2.202-1.863c-0.339-1.355,0-5.589,0.169-6.267
							c0.169-0.678,3.218-2.71,4.573-6.267c1.355-3.557,1.694-9.824,1.694-9.824l16.26-37.094L468.625,266.119z"/>
						<path style="fill:#92E3A9;stroke:#263238;stroke-miterlimit:10;" d="M484.038,268.321l-15.413-2.202l-1.093,5.608
							c1.404,1.12,6.241,4.574,12.838,4.964L484.038,268.321z"/>
					</g>
					<path style="fill:#FFFFFF;stroke:#263238;stroke-miterlimit:10;" d="M460.664,329.637c0,0-1.694-1.524-2.033-3.049
						c-0.339-1.524,0-6.098,0-6.098"/>
					<path style="fill:#FFFFFF;stroke:#263238;stroke-miterlimit:10;" d="M457.446,329.128c0,0-0.847-2.371-1.016-4.065
						c-0.169-1.694,0-6.606,0-6.606"/>
				</g>
				<path style="fill:#92E3A9;stroke:#263238;stroke-miterlimit:10;" d="M468.964,209.377c0,0-2.541,7.283-2.71,13.889
					c-0.169,6.606-0.678,38.11-0.678,40.651c0,2.541,3.388,5.081,7.453,6.267c4.065,1.186,8.808,1.186,10.671-0.169
					c1.863-1.355,1.524-1.016,2.033-7.114c0.508-6.098,0.508-12.703,0.508-12.703s4.49-31.233,2.88-39.804
					c-1.61-8.571-5.759-15.413-11.687-15.583c-5.928-0.169-7.283,1.863-7.283,1.863"/>
			</g>
		</g>
		<g>
			<g>
				<path style="fill:#FFFFFF;stroke:#263238;stroke-miterlimit:10;" d="M381.336,263.841c0,0-1.506,2.746-1.24,3.278
					c0.266,0.532,1.152,1.152,1.772,0.62c0.62-0.532,1.595-2.126,1.506-3.367C383.285,263.132,382.576,262.423,381.336,263.841z"/>
				<path style="fill:#FFFFFF;stroke:#263238;stroke-miterlimit:10;" d="M384.259,264.549c0,0-1.506,2.746-1.24,3.278
					c0.266,0.531,1.152,1.152,1.772,0.62c0.62-0.532,1.595-2.126,1.506-3.367C386.208,263.841,385.5,263.132,384.259,264.549z"/>
				<path style="fill:#FFFFFF;stroke:#263238;stroke-miterlimit:10;" d="M386.474,265.258c0,0-1.506,2.746-1.24,3.278
					c0.266,0.532,1.152,1.152,1.772,0.62c0.62-0.532,1.595-2.126,1.506-3.367C388.423,264.549,387.714,263.841,386.474,265.258z"/>
				<path style="fill:#FFFFFF;stroke:#263238;stroke-miterlimit:10;" d="M389.11,265.83c0,0-1.166,2.126-0.96,2.537
					c0.206,0.411,0.891,0.892,1.372,0.48c0.48-0.411,1.234-1.646,1.166-2.606C390.619,265.282,390.07,264.733,389.11,265.83z"/>
			</g>
			<path style="fill:#FFFFFF;stroke:#263238;stroke-miterlimit:10;" d="M402.17,253.737c0,0-12.099-6.049-12.963-4.839
				c-0.864,1.21-3.63,5.531-4.148,7.086c-0.518,1.556-0.346,2.074,1.383,1.383c1.728-0.691,4.494-3.111,4.494-3.111
				s4.148,5.531,7.086,4.667"/>
		</g>
	</g>
</g>
<g id="Floor">
	<line style="fill:none;stroke:#263238;stroke-miterlimit:10;" x1="33.101" y1="444.476" x2="715.628" y2="444.476"/>
</g>
</svg>
