<svg width="87" height="38" viewBox="0 0 87 38" fill="none" xmlns="http://www.w3.org/2000/svg">
<path d="M0 20.928V0.32H9.664C11.2853 0.32 12.608 0.629333 13.632 1.248C14.6773 1.86667 15.456 2.70933 15.968 3.776C16.48 4.84267 16.736 6.05867 16.736 7.424C16.736 8.81067 16.4373 10.0373 15.84 11.104C15.264 12.1707 14.432 13.0027 13.344 13.6C12.2773 14.176 11.008 14.464 9.536 14.464H4.32V20.928H0ZM4.32 11.04H8.64C9.87733 11.04 10.8053 10.72 11.424 10.08C12.064 9.41867 12.384 8.53333 12.384 7.424C12.384 6.22933 12.0853 5.32267 11.488 4.704C10.8907 4.064 9.99467 3.744 8.8 3.744H4.32V11.04Z" fill="#292D32"/>
<path d="M19.125 20.928V0.32H23.445V20.928H19.125Z" fill="#292D32"/>
<path d="M27.0938 20.928V0.32H36.9818C39.3498 0.32 41.0884 0.949333 42.1978 2.208C43.3071 3.44533 43.8618 5.12 43.8618 7.232C43.8618 8.61867 43.4991 9.81333 42.7738 10.816C42.0697 11.8187 41.0671 12.544 39.7658 12.992C40.1071 13.2693 40.3737 13.568 40.5658 13.888C40.7791 14.208 40.9924 14.6347 41.2057 15.168L43.7018 20.928H39.2218L36.7897 15.392C36.5764 14.9227 36.3418 14.592 36.0858 14.4C35.8298 14.208 35.4031 14.112 34.8058 14.112H31.4137V20.928H27.0938ZM31.4137 10.528H35.8618C36.9924 10.528 37.8778 10.2827 38.5177 9.792C39.1577 9.28 39.4778 8.42667 39.4778 7.232C39.4778 6.08 39.2004 5.23733 38.6458 4.704C38.0911 4.17067 37.2484 3.904 36.1178 3.904H31.4137V10.528Z" fill="#292D32"/>
<path d="M55.7822 21.248C49.1049 21.248 45.7663 17.7387 45.7663 10.72C45.7663 6.944 46.6089 4.21333 48.2943 2.528C49.9796 0.842667 52.4756 0 55.7822 0C59.0889 0 61.5849 0.842667 63.2703 2.528C64.9556 4.21333 65.7982 6.944 65.7982 10.72C65.7982 17.7387 62.4596 21.248 55.7822 21.248ZM55.7822 17.568C57.7236 17.568 59.1423 17.0133 60.0382 15.904C60.9556 14.7733 61.4142 13.0453 61.4142 10.72C61.4142 8.13867 60.9556 6.32533 60.0382 5.28C59.1423 4.21333 57.7236 3.68 55.7822 3.68C53.8409 3.68 52.4116 4.21333 51.4943 5.28C50.5983 6.32533 50.1502 8.13867 50.1502 10.72C50.1502 13.0453 50.5983 14.7733 51.4943 15.904C52.4116 17.0133 53.8409 17.568 55.7822 17.568Z" fill="#292D32"/>
<path d="M68.8125 20.928V0.32H72.5565L82.3165 14.048V0.32H86.6365V20.928H82.8925L73.1325 7.2V20.928H68.8125Z" fill="#292D32"/>
<circle cx="2" cy="32.56" r="2" fill="#292D32"/>
<circle cx="10" cy="32.56" r="2" fill="#292D32"/>
<circle cx="18" cy="32.56" r="2" fill="#292D32"/>
<path d="M25.2025 37.712V27.408H32.2105V28.768H26.9465V31.888H31.6185V33.232H26.9465V37.712H25.2025Z" fill="#292D32"/>
<path d="M33.5931 37.712V27.408H35.3371V37.712H33.5931Z" fill="#292D32"/>
<path d="M37.3588 37.712V27.408H38.8948L44.2708 34.992V27.408H45.9988V37.712H44.4628L39.1028 30.144V37.712H37.3588Z" fill="#292D32"/>
<path d="M47.7266 37.712L51.6626 27.408H53.6146L57.5186 37.712H55.7266L54.7026 35.056H50.5586L49.5346 37.712H47.7266ZM50.8306 33.712H54.4146L52.6226 28.992L50.8306 33.712Z" fill="#292D32"/>
<path d="M59.2338 37.712V27.408H60.7698L66.1458 34.992V27.408H67.8738V37.712H66.3378L60.9778 30.144V37.712H59.2338Z" fill="#292D32"/>
<path d="M74.7376 37.872C73.0416 37.872 71.7563 37.408 70.8816 36.48C70.0176 35.552 69.5856 34.2987 69.5856 32.72C69.5856 31.5893 69.767 30.6187 70.1296 29.808C70.503 28.9867 71.0683 28.3573 71.8256 27.92C72.583 27.472 73.5483 27.248 74.7216 27.248C75.319 27.248 75.863 27.296 76.3536 27.392C76.855 27.4773 77.319 27.5947 77.7456 27.744V29.264C77.319 29.0933 76.8603 28.9653 76.3696 28.88C75.8896 28.784 75.383 28.736 74.8496 28.736C73.5696 28.736 72.663 29.0773 72.1296 29.76C71.607 30.4427 71.3456 31.4293 71.3456 32.72C71.3456 33.9253 71.6336 34.8427 72.2096 35.472C72.7856 36.0907 73.6763 36.4 74.8816 36.4C75.3723 36.4 75.863 36.3627 76.3536 36.288C76.855 36.2027 77.3243 36.0747 77.7616 35.904V37.44C77.335 37.5787 76.871 37.6853 76.3696 37.76C75.879 37.8347 75.335 37.872 74.7376 37.872Z" fill="#292D32"/>
<path d="M79.4525 37.712V27.408H86.6365V28.768H81.1965V31.888H86.0445V33.232H81.1965V36.368H86.6365V37.712H79.4525Z" fill="#292D32"/>
</svg>
