<svg version="1.2" baseProfile="tiny" xmlns="http://www.w3.org/2000/svg" viewBox="0 0 155 105.3"><g fill="#ADCF54"><path d="M27.6 86c.5-.4.9-.9 1.5-1.2 2-1 3.6-2.2 3.9-4.7.2-1.7 1.5-2.5 3.2-2.6 1.8 0 2.9.9 3.2 2.5.5 2.9 2.8 3.9 4.8 5.2 1.5 1 2.1 2.8 1.9 4.4-.2 1.8-.1 3.1 1.5 3.9 3.4 1.5 2.5 4.4 2.5 7.1l.2 1.6c-.1.7.2 1.7-1.3 1.7l-11.2.3H24.5c-2.9 0-2.7-2.3-3-4.1C21 97 22.8 95 25 93c.8-.7 2.1-1.6 1.6-3.3-.3-1.2-.3-2.5.8-3.5l.2-.2zm8.2-1.6l.4.1v-.1h-.4c-.4-.3-.6.1-.8.3-.1.1.2.4.3.5l.5-.8zm3-.9l-.4-.4c-1.1.3.1 1.5-.7 1.9.4.1.8.3 1.1.2 1.3-.7-1.4-1.1 0-1.7zm.9 9.6c.3 0 .5.2.6.8 0 .5.5.2.5-.2-.1-.5-.3-1.1-.9-1.3l-.2.7zm-4-4.6c-1.2-.3-1.2.5-1.7.8l.2.2 1.5-1c-.2-.1-.3-.1 0 0zm7 2.5l1-1.1-.2-.1-1 .7.2.5zM34 84.6l-.1.3.5.8.4-.3-.8-.8zm2.6 15.4c-.9-.2-1.4.5-1.6-.2l-.2.2.7.6 1.1-.6zm-3.5 1.2c0-.9 0-1.5.7-1.7l-.3-.1c-.7.1-.7.8-.8 1.3l.4.5zm-3.5-4l-.5.2c.3.2.6.5 1 .6l.5-.3-1-.5zm11-9.6l1 1.1.1-.1c-.1-.5-.2-.8-.8-.9l-.3-.1zm4.5 10.7l-.7-.5-.2.1.4.6.5-.2zm-17.7-2.4l-.4.5s.2.3.3.2l.5-.3a.8.8 0 0 0-.4-.4zm12.2 0l-.9-.5-.2.2.7.5.4-.2zm-10 5.4l.2-.9-.1-.2-.3.8.2.3zm.1-11.6l-.5-.3-.2.4.2.2c.2 0 .3-.1.5-.3zm-.4 9.3l.3-.3-.4-.3-.2.2.3.4zm8.4-4.5l.2.5.2-.5-.3-.4-.1.4zm-7.1 4.4l-.4-.3-.2.2.4.3.2-.2zm10.4.7l-.3-.5-.2.3.2.3.3-.1zm-9-5.4l-.8-.2-.1.1.6.3.3-.2zm-1.5 2.4l-.3-.3-.1.3.2.4.2-.4zm-1.2-3l-.2.2.5.4.2-.1c-.3-.1-.4-.3-.5-.5zm7.1-3.2l-.4-.3-.1.2.3.3.2-.2zM31 87.3l.4.3.2-.3-.2-.2-.4.2zm9 13l-.3.2.3.1.3-.2-.3-.1zm.8.7l-.2-.1-.4.3.1.2.5-.4zm1.8-1.8l-.3.4.2.1.2-.2-.1-.3zm-12.2-8.7l-.4-.2-.3.2.1.1.6-.1zm8.7-.5l-.4-.3-.1.1.5.2c-.1.1 0 0 0 0zM27 101.3l.1-.4-.2-.2-.2.2.3.4zm12.5-.5l-.3-.1-.2.2.3.2.2-.3zm-7-6l-.1.3.1.2.2-.2c0-.2-.1-.2-.2-.3zm2.2 0l-.3-.2-.3.2.2.2.4-.2zm-.2-7.2l-.4-.1-.2.2.3.2.3-.3zm-3 8.1l-.3-.2-.3.2.2.2.4-.2zm13.2 3.7l-.3-.1-.1.2.2.2.2-.3zm-14-5.4l-.2-.1-.1.2.1.2c0-.2.1-.2.2-.3zm14.7 5l-.2-.2-.2.2.1.1c.2.1.2 0 .3-.1zm-7-5.6l-.2-.1-.2.1.2.2.2-.2zm-4.7-3.2l-.4-.2-.2.1.2.1c.1.1.2 0 .4 0zm-1-3.6l-.2-.2-.2.1.2.2.2-.1zm4.6 1.2l-.3-.1-.1.2.2.1.2-.2zm9.1 8.5l-.1.2.2.1.1-.2-.2-.1zm-6.8-10l.2-.3-.1-.2-.2.2.1.3zm-7.9 10.3l.1-.2-.2-.1-.1.1.2.2zm8.8-6.9l.2-.2-.2-.1-.2.1.2.2zm-8.3 3.4H32s-.1.1 0 .1l.2.1c-.1-.1-.1-.1 0-.2zm-3.9.6l.1-.2-.1-.1-.1.1.1.2zm.1 5.6l-.2.1.1.1.2-.1-.1-.1zM40 89.1s-.1-.1 0 0c-.1-.1-.2 0-.2 0l.1.1.1-.1zm-1.8.4l-.2-.2-.1.1.1.2.2-.1zm3 8.6l-.1-.1-.2.1.1.1.2-.1zm6.6 1.7l-.1.2.1.1.1-.2-.1-.1zm-4.2-2.6l-.1.2.1.1.2-.1-.2-.2zM38.7 86l.1-.1-.1-.1h-.1l.1.2zm1.6 10.5l-.1-.2-.2.1v.1h.3zm-7.7-4.4s0 .1 0 0l.2.1v-.1h-.2zm1.6-.2l-.2.2.1.1.1-.1v-.2zm5.6-6.8s.1 0 0 0V85v.1zm6.6 15.1c-.1 0-.1 0 0 0l-.1.2h.1v-.2zm-14.4.1l-.1-.1s-.1.1 0 .1l.1.1c-.1 0 0 0 0-.1zm-3.9-7.5l-.1-.1h-.1v.1c.1.1.2.1.2 0zm5.2-5.6s0 .1 0 0c-.1.1 0 .1 0 .1s.1 0 0-.1c.1.1 0 0 0 0zm10.6.9c-.1 0-.1 0 0 0-.1 0 0 .1 0 0zm-14 7.5l.2-.2-.1-.1-.2.1.1.2zm8-4.2l-.1-.1v.1h.1zm-.8-1.1c0 .1 0 .1 0 0h.2v-.1l-.2.1zm-8.5 5.5l.1.1v-.1h-.1zM33.7 84c.1 0 .1.1 0 0 .1.1.1 0 .1 0h-.1zm12.2 17.3s.1 0 0 0c.1 0 .1 0 0 0zm-3.8-10l-.1-.1v.1l.1.1v-.1zm-8.7-6.6s.1 0 0 0c.1 0 .1-.1 0 0 0-.1 0-.1 0 0zm9.7 7.2s.1 0 0 0c.1 0 .1-.1 0 0 0-.1 0-.1 0 0zm-8.5 1.8c.1 0 .1 0 0 0 .1 0 .1-.1 0 0 .1-.1 0-.1 0 0zm1.9 0s0-.1 0 0l-.1-.1v.1h.1zm1.8-1c.1 0 .1 0 0 0l-.1-.1h-.1l.2.1zm-7-6.2s0 .1 0 0c0 .1 0 .1 0 0zm6.3 12.9s.1.1 0 0c.1 0 .1 0 0 0 .1 0 .1 0 0 0zM25 98.2l-.1-.1-.1.1.1.1.1-.1zm3.5-5.9l-.1-.1h-.1v.1c.1.1.2 0 .2 0zm13.8 6.2c-.1 0 0 .1 0 .1s.1-.1 0-.1c.1 0 0 0 0 0zm-14.2.1l-.1.1.1-.1c.1 0 .1 0 0 0zm17.3-3.8s-.1 0 0 0c-.1-.1-.1 0-.1 0h.1c0 .1 0 0 0 0zM26.9 86l-.2.2-.1-.2h.3z"/></g><path fill="#ADCF54" d="M36.8 73.7c-.2-.1-.4 0-.6.1a5 5 0 0 1-1.3.4c-.3.1-.1.1 0 .2s0 .1 0 .1c-.2.1-.4.2-.6.1a.3.3 0 0 0-.4 0c-.3.2-.7 0-1 .2-.4-.1-.9.2-1.3.1l-.4.1c-.2.2-.5.2-.7 0-.1-.1-.2-.2-.3-.1-.5.1-1-.2-1.6-.1l-.9-.2-1.3-.3h-.2c-.6.3-1-.2-1.5-.3l-.2-.2c-.1-.1-.1-.1-.2 0-.2.2-.4 0-.5-.2l-.5-.4-1.4-.8c-.1-.1-.2-.2-.4-.1-.4-.1-.7-.4-.9-.7.1-.3-.1-.3-.2-.3-.3 0-.5-.1-.5-.4 0-.2-.1-.3-.2-.3-.2 0-.3-.1-.4-.3l-.6-.5-.5-.5c.2-.6-.5-.8-.6-1.3-.5-.5-.8-1.2-1.1-1.9a10 10 0 0 1-1-2.9l-.4-1.7V61c0-.5-.1-.9-.3-1.4-.1-.3-.2-.5.1-.7v-.3c-.1-.3-.2-.7.1-1l.1-.3v-.9c0-.5.1-.9.4-1.3l.4-1.1c.1-.2-.1-.1-.2-.1s-.1-.1 0-.1l.1-.3.1-.1.1.2v.1c0 .1.1.1.1 0 0-.3.3-.5.3-.7-.1-.3.1-.6.2-.9l.5-.8c.5.1.5-.4.7-.6.1-.2.3-.4.2-.6-.1-.2.2-.3.2-.5.1-.2.2-.2.4-.2s.3-.2.4-.4c.1-.6.5-.8 1-1.1l.5-.3c.6-.5 1.2-1.1 1.9-1.4l.2-.2.4-.4 1.5-.8h.3c.3.2.5-.1.8-.1l.1-.1c.1-.5.5-.4.9-.4.1 0 .1.1.2 0 .3-.4.7-.3 1.1-.2.2.1.4.1.5-.1.2-.3.4-.2.7-.2.2 0 .5-.2.6.2l.3-.1c.1 0 .3-.1.4 0h.3l.3-.1c.3-.2.4-.2.6 0l.2.2c.7-.1 1.4.2 2.2.3l1.6.4c.8.3 1.6.6 2.4 1.1l1.1.6.5.2c.2 0 .6.2.7.4.4.7 1 1.1 1.5 1.7l.4.2c.4.1.6.4.8.8v.3c.4.3.5.9.9 1.1.3.2.5.4.5.8-.1.3.2.5.3.7.3-.1.3.1.4.3l.1.6.1.3c.3.8.6 1.7.7 2.5l.3.6c.3.3.3.7 0 1.1v.5c.2.3.1.7.1 1l-.2 2.2-.4 2.1-.3.9v.3c.3.3 0 .5-.1.8-.2.3-.4.5-.4.9l-.2.3c-.3.1-.4.3-.5.5l-1.5 2.1-.2.4c-.1.4-.3.8-.8.7l-.2.2c-.1.3-.3.6-.7.6l-.4.2c-.5.5-1.1.9-1.7 1.2l-.7.7c-.8.1-1 .3-1.3.2zm-9.9-20.6c-.2-.2-.2 0-.2.1l.1.2c.1.3.3.6 0 .9v.2h.1c.1-.2.3-.2.5-.2.1 0 .2.2.3.1.1-.1-.1-.2-.2-.3l-.3-.2c-.4-.3-.3-.8.1-.9l.4-.3v-.2c0-.1.2-.2.1-.3-.2-.1-.3.1-.3.2l-.5.6c0 .1 0 .2-.1.1zm7.5-2.1c.2 0 .3-.1.3-.2.1-.5.3-.9.6-1.2v-.1l-.1-.1c-.2 0-.3.1-.3.2-.1.4-.3.6-.7.8-.2.1-.1.3-.1.5l.3.1zm-9 8.7l-.2-.3c-.1 0-.3-.1-.5.1v.5l.2.2c.2.1.1.4.3.3.2 0 .1-.3.2-.4v-.4zm9.5-3.7l-.1-.1h-.6l-.1.2.6.8h.1c-.2-.4-.1-.7.1-.9zm4.9-4.2c.1-.2-.1-.3-.1-.4v-.1l-.1.1c0 .5 0 .9-.5 1.1l-.1.1.1.1h.3c.4.1.4.1.4-.3v-.6zm-3.3-2.3h-.3l-.2.1.1.2c.1.2.4.3.4.5l.2.1c.1 0 .1-.1 0-.2v-.3l.1-.2c.1-.1 0-.2-.1-.2h-.2zm-1.3 10.9c0-.5 0-.5-.4-.3h-.1c-.2 0-.3 0-.1.2l.3.4.2.2c.2 0 .1-.2.1-.2v-.3zm1.3 2.5l-.1-.4-.7-.4h-.2c-.1.1 0 .2 0 .4l.2.1c.3 0 .5.1.6.4l.1.1.1-.2zm4.9 2l-.1.2c-.1.1 0 .2 0 .2l.2.2c.1.1.2.3.3.2.2-.1 0-.3.1-.4v-.2s.1-.1 0-.1c-.1.1-.3 0-.5-.1zm-7.3-17.7v-.1l-.6-.3-.1.1.2.5c.1.1.5 0 .5-.2zm-2.4 18h.1c.1-.1-.1-.1-.1-.2-.1-.2-.3-.2-.5-.3h-.3v.3l.8.2zm6-6.8v.2l.3.2.3-.2c.1-.1-.1-.2-.2-.3l-.3-.2-.1-.1v.4zm-11.8 7.4c-.1.1-.1.1 0 0l-.3.5v.3l.3.1c.1 0 .2-.2.1-.3l-.1-.5v-.1zM19.4 62h-.2l-.1.1.3.7c.2-.1 0-.3.1-.5l.1-.3c.1-.1 0-.1-.1-.1.1.1 0 .1-.1.1zm9.2-12.6l-.3-.8c-.1-.1-.1-.1-.2 0l-.1.3.5.4c0 .2 0 .1.1.1zm13.6 12.1l.1-.1v-.3l-.2-.1-.4.2-.1.1.1.1c.2 0 .3-.1.5.1zm1.6-.6l-.1-.2c-.1-.2-.3-.1-.5-.1l-.1.1c0 .2.1.2.3.3l.2.1.2-.2zm-20.4 5.9s.2.1.2-.1l-.2-.5-.4.4c0 .1.2.3.4.2zm5.7-7.8c0-.1 0-.1 0 0-.1-.2-.4-.1-.5-.3l-.2.2v.3l.7-.2zm6.3 9.2c-.1 0-.2-.1-.2.2 0 .2.1.3.2.3l.3-.3-.3-.2zm2.3-4.6h-.4c-.1 0-.1.1 0 .2s.7.1.8 0v-.1l-.4-.1zM41 51.5v-.1c-.2-.1-.2-.3-.2-.5 0 0 0-.2-.1-.1l-.1.1.3.7.1-.1c-.1.1 0 .1 0 0zm-18.8 2.3c.1-.1 0-.1-.1-.1l-.2-.1c-.1-.1-.2 0-.2.1v.3h.3l.2-.2zm2.4 1.6l-.1-.1c-.1-.1-.1-.1-.2 0l-.3.2-.1.1.2.2.5-.2v-.2zm7.8-5.3c-.2 0-.3.1-.3.3l.1.2.4-.4-.2-.1zm3.3-2.6c0-.1-.1-.2-.3-.2l-.2.2c.2.1 0 .3.2.4l.3-.4zm.1 10.1c0-.2 0-.4-.2-.5h-.2c-.1.1 0 .1 0 .2 0 .2.2.2.2.3l.1.1.1-.1zm.6 1.6h-.2l-.1.2.1.1h.3c.1-.1.2-.1.1-.3h-.2zM31.2 50l.2-.1c0-.1-.1-.3-.3-.3l-.2.2c0 .2.1.2.3.2zM30 64.7c-.1 0-.3 0-.3.2 0 .1 0 .2.2.2s.4-.1.3-.3c0-.2-.1-.1-.2-.1zm-.4-13.2l-.2-.4s-.1-.1-.1 0l-.2.2c0 .2.2 0 .2.1l.2.2.1-.1c0 .1 0 0 0 0zm2.7 17.3l-.1-.1h-.1l-.2.3v.3l.2-.1.2-.4zm-.6 3.1c0 .3.3.3.5.5h.1c0-.2-.2-.2-.3-.4l-.2-.2h-.1v.1zm7-16.2v.2l.1.1.1-.1v-.2c0-.1.1-.3-.1-.3s-.1.2-.1.3zm.8 1v.2l.1.1.1-.1.1-.2-.1-.2-.3.1.1.1zm-17.8 2.9l.1-.1v-.1c-.1-.2-.5-.3-.6-.3-.1.2.3.4.5.5zm2.7 1.7l-.1.1.2.4.2-.2-.3-.3zm17.9-4.5l-.2-.2-.2.1.2.3c.1.1.2-.1.2-.2zm-7.4 13.5c0 .2 0 .3.2.3h.1c.2-.1 0-.2 0-.2v-.2l-.1-.1-.1.1-.1.1zm8.8-11.4c-.1 0-.2 0-.2.2 0 .1 0 .2.2.2.1 0 .2 0 .2-.2 0-.1 0-.2-.2-.2zm-5-8.2l-.2-.1c-.1 0-.2 0-.2.2l.1.2c.2 0 .3-.1.3-.3zM17.2 57v.3l.1.1.1-.1v-.4h-.1-.1v.1zM32 60.7s0-.1 0 0l-.1-.1-.2.2v.3l.2-.1c.1-.1.2-.2.1-.3zm-2.4-5.1h-.2l-.1.1.2.1h.2l.1-.2h-.2zm-9.4 1.1l-.1-.1-.1.1-.1.3s-.1.1 0 .1h.2l.1-.4zm9-2.5v-.1l-.3.2.1.1c.2.1.3 0 .2-.2zM22 51.6l-.1-.1-.3.3v.2h.2l.2-.4zm19.1 7.9l-.1-.1-.2.2.1.1c.1.1.2 0 .2-.2zm-4.3 1.8l.3-.1v-.1c-.1-.1-.1-.1-.2 0l-.2.1c-.1.2 0 .1.1.1zm.1-8.8l-.4-.2c-.1 0-.1 0 0 .1l.4.1c-.1 0 0 0 0 0zm-6 6s-.1-.1-.2 0-.2.1-.2.3c0 .1.1 0 .1 0 .1-.2.3-.1.3-.3zm-9.1-2.1l.1-.2-.1-.2-.2.1.2.3zm9.7-5.1l-.2-.2h-.1c-.1 0 0 .1 0 .1l.3.1zm-.7 8.3c-.1.1-.1.1 0 .2l.2.1.1-.1-.3-.2zm-2.9 7.1c-.1 0-.1 0 0 0-.2 0-.2.1 0 0l.2.4.1-.1-.3-.3zM20 63.4l-.2-.2-.1.1.1.1c.1.1.2.1.2 0zm7 .5l-.2-.2-.1.1c0 .2.1.1.2.1.1.1.1.1.1 0zm4-9.7l-.2.4c0 .1 0 .1.1 0s.2-.2.1-.3v-.1zm-1 4.9l-.1-.1-.2.1.1.1c.1.1.1 0 .2-.1zm-.9 9.2l-.2-.2v.1l.2.2v-.1zm3.3-21.5l-.1-.2-.2.2.2.2.1-.2zm7.5 10.7l-.1.1.1.2.1-.1-.1-.2zm-11.6 8.3v-.1l-.2.2.1.1.1-.2zm-5.4-15.1l.2.2v-.1c0-.2-.1-.2-.2-.1 0-.1 0 0 0 0zm8.5 11.9c0-.1-.1-.1 0 0h-.3l.1.1.2-.1zm-12.9-.7l.1-.1h-.2l-.2.1h.3zm-.3-1.4v-.1l-.2.1v.1l.2-.1zm0-1.6c0-.1 0-.1 0 0-.1-.1-.2-.1-.2 0v.1l.2-.1zm.3-.2l.1-.2-.1-.1-.2.2.2.1zm20.8-.6l.1-.2h-.1c-.1 0-.1.1 0 .2-.1 0 0 0 0 0z"/><path fill="#D35144" d="M82.8 32.7l1.9 1.9c.4.4.5.9.7 1.2l29.5 36.8 6.7 8.3c.3.3-.6 1.5-.9 1.2l-.2-.2c-7.8-9.5-15.1-19-22.7-28.5l-12.7-16-.5-.7c-.4-.6-2.6-1.3-3.6.2l-3.6 4.5-30.5 38.5c-.3.3-.2 1.1-.9.8-1-.5-.9-.8-.2-1.8l4.8-6.1 29.8-37.7.5-.8.1-.9c.3-.4 1.2-1.3 1.8-.7z"/><path fill="#CEEEEE" d="M42.4.9l.7.1c1.3.7 2.8.7 4.2.7.6 0 1.2 0 1.5.7.1.2.4.3.6.4 1.6.9 2.6 2.2 2.9 4 .1.7.5 1.4.8 2 .2.5.5 1.1 1.3.7.5.4 1.2.4 1.7 1 .4.6 1.3.9 2.1 1.3 1 .5 1 .6.9 1.7-.1.6.1 1.2.1 1.8 0 .5-.3.7-.7.4-.5-.3-.9-.3-1.5 0-.7.3-1.6.2-2.3.1-.4 0-.8-.2-1.1-.3-.3-.1-.4-.1-.6.3-.1.4-.6.3-.9.1-1.3-.8-2.5-.4-3.8 0-.4.1-.6.3-.9-.1-.1-.1-.3-.2-.4-.1l-1 .4c-.2-.5-.6-.4-1-.4l-1.9.2h-.3c-1.3-.2-2.6-.5-3.8.2-.2.1-.5 0-.7-.1a4.7 4.7 0 0 0-3.5.1l-.4.1c-.6-.6-1.4-.3-2.1-.3-.8-.1-1.1-.3-1.3-.9-.1-.5.1-1 .6-1.4.9-.8 1.9-1.5 2.7-2.4a4 4 0 0 0 .7-1.9c.2-1.3.7-2.3 1.3-3.3 1.3-2 2.8-3.5 5.1-4.3l.5-.3.5-.5zm-1.3 11.6l.4-.1c.5-.5 1-1 1.7-1.1l.1-.5c-.1-.1-.4-.3-.5-.2l-1 .8-.5.7c-.2.3-.5.3-.6-.1l-.2-.2-.2.3c-.1.2.2.4.8.4zm4.8-7.3l-.3.1-.6.1c.4.5-.2.8-.2 1.3 0 0 .2.2.3.1l1.4-1.7c.1-.1-.1-.4-.1-.6l-.5.2c-.7.3-.1.3 0 .5zm.8 2.5l-.3.5c0 .1-.1.4 0 .4l1.2.5c.4.2.2-.2.4-.3l.5-.4h-.6l-.6-.2-.6-.5zm2.6 1.9l-.4-.4c-.2-.1-.3.1-.3.3l-.2.4v.6c.2.2.4 0 .5-.2l.4-.7zm-6.1-3.5c-.1 0-.2-.1-.2 0l-.5.4-.2.6.2.1.5-.4.2-.7z"/><path fill="#9F9F9F" d="M98.3 70.9l-.3-3.3c0-1.5.6-2 2.1-2.1h.4c3.2-.1 3.2-.1 3.3 3 0 .4-.2.9-.5 1.1-.9.7-.7 1.4-.4 2.2.3.9 1 .8 1.7.8h.6l1.2 1.7c.2.3.4.6.4 1l.1 12 .2 1.1-1.3 1.4c-.5.4-1.1.9-1.7 1-1.3.2-2 1.2-1.2 2.3.7.9.9 1.8.7 2.7-.2.9-.6 1.7-.9 2.5l-.3-.3h-1.7c-1.8.2-2.6-.5-2.6-2.3 0-1 0-2-1.2-2.5l-1 .9c-7.7 7.1-17.4 6.3-24.5.1-2.4-2.1-3.7-5-4.4-8.2-.4-1.9-.6-3.9-.6-5.8 0-1.1.3-2.3.7-3.4 1.1-3.7 3.3-6.7 6.4-9 .8-.6 1.6-1.3 2.5-1.8 1.3-.6 2.7-1.6 4-1.5 2.9.3 5.9-.4 8.7.9 1.1.5 2.4.7 3.5 1.1.4.1.7.6 1 .9a85.2 85.2 0 0 0 5.1 3.5zm-5.5 16.5l-.2-.3 1.4-2.2c.2-.5.2-1 .3-1.6l-.4-.3c-.1 1.5-1 .9-2 .8l1.3 1.1-1.8 2.5h1.4zm3-13.5l-.1-.4 2.1-.3v-1L94.5 74c.7.8 2-.4 2 1.2.8-.9.6-1-.7-1.3zM76.7 84.3c-1.3-1-1.8.5-2.8.5.8.7 1.5 1.4 2.6.7a3 3 0 0 0-.8-.4l1-.8zm10.6 4.1l.5-.4-1.7-.6-.1 1.2 1.2.3-.8.9c.1.1.3.4.4.3.3-.2.7-.4.7-.6.2-.3-.1-.7-.2-1.1zm-11.5-6.8c.2-.1-.3-.2.2-.5h-1.7c.5.9.6.6.9 1.4.1-.1.1.3.2.2 0-.6.4-.5.4-1.1zm10.6 1.8l.5-1.1-.9-.4h-.5c-.1.1-.2.4-.1.5l1 1zm12.9 5l.1-.5-2.8-.3v.3c2.2 1 2.2 1 2.7.5zm2-1.2l.8.4 1-1.6.1 1.3c.7-.7.7-1.2-.2-1.5l-1.7 1.4zM89.8 69.9l-.8 1.9 2.2-.8-1.4-1.1zm-8.2 27l.3.2 2-3c-1.8.1-1.3 2-2.3 2.8zm4.3-29.8l-.3-.3-1.5 2.4.4.3 1.4-2.4z"/><g fill="#565656"><path d="M48.3 78.3l-.4.1-.9 1c-.4.7-.8 1.4-1.4 1.9-.4.3-1.2.2-1.7-.1-.3-.3-.4-.6-.6-1-.3-.8.2-1.3.6-1.8l.8-1c.2-.5.5-.8.9-1.1l.2-.4 1.4-1.8 1.7-2.1 1.4-1.8c.2-.3.9-.4 1.2-.2.2.1.2.5.3.7v.2l-1 1c-.1.1-.3.3-.3.5-.1.4-.4.6-.7.8l-.3.4-.9 1.2-.1.5h.6l.5.6v.2l.2.9-.1 1.1V79.9c0 .6-.2 1.2-.1 1.7l.1 1.2c0 .3-.1.6.1 1 .1.2-.1.4-.1.6l.1 1.4-.1 1.7v2.7l-.1.7v.3c.3 1 .3 2 .1 3l.1.5V101.7l-.2 1.1c.3.2.5.4 1 .3h1.9l.5.2c.6.1 1.1-.4 1.7-.1h.1c.7-.3 1.4.1 2.2-.1l.3-.1c.4-.3.8-.2 1.1-.1l1.3.1c.6.2 1.1 0 1.7.1l1.7-.1.2-.1 1.3.1h1.1l1.4-.3c.5-.1.9-.1 1.4.2h2l1.5.1 2 .1 2.5-.2 1 .1 1.8.1a5 5 0 0 0 1.2-.2c.4-.1.7 0 1.1.1h1.1c.7-.2 1.3.1 2 .2h1.2l2-.1h1.6l.9.1h.1a5 5 0 0 1 2.1-.1l1.7-.1h.9c.3 0 .7.1 1-.1.5-.2.9-.1 1.4 0 .4 0 .9.4 1.4.1h.5c.4.2.7 0 1.1-.1l1.7-.1h1.8l1.7.1h3.6l.4-.1c.2-.3.5-.2.7-.1.4.2.8.1 1.2.1h1.3l1.5.1-.1-.4v-.3c.2-.2.2-.5.1-.8-.1-.6-.2-1.2 0-1.8v-3.5c0-.2.2-.4.3-.5l.2.1-.1-.2c-.6-.2-.4-.7-.4-1.2l-.2-.7V93v-.6l-.1-1.1.1-1.1-.1-1.1.1-1.8v-1.2-1.9c-.1-1 .1-1.9.1-2.9l-.1-1.7v-.2c.3-.9.2-1.8.2-2.7 0-.9.2-1.2 1.2-1.5l-.7-1.1-.2-.2-.9-1.2-1.2-1.8-.1-.2c-.6-.2-.8-.9-1.2-1.3l-.8-1.2-1.8-2.2-1.2-1.6-.9-1-.9-1.1-.7-1-1.4-1.7-.5-.8c-.1-.4-.5-.7-.8-.9l-.2-.2c-.4-.5-.7-1.1-1.2-1.5l-.7-.6-.2-.2c.1-.4-.3-.6-.5-.8L98.4 53l-.4-.5-1.1-1.5-1-1.2-.8-.9-.9-1.3-.1-.1c-.6-.3-.7-.9-1.1-1.3l-1.2-1.5-.2-.6c.1-.2.3-.4.6-.4.4-.1.8-.1.9.4l.4.3.5.7.2.4 1.5 1.8.1.2.5.7.4.6 1 1.1 1 1.4.5.7 1.2 1.4 1 1.4 1 1.5 1.5 1.7.6.7 1.4 1.7c.2.3.4.8.7 1l.1.1c.5.1.6.6.8.9l.4.4.3.4c.1.2.1.4.3.5.5.4.8.9 1 1.4l.2.2 1.1 1.2.6.9.1.1c.5.2.6.6.9 1l1 1.2.1.3c.1.2 0 .4.3.4.2 0 .3.3.5.4l1.2 1.6c.4.4.6 1 .9 1.4l1.2 1.5.5.6.2.1.4.3c.1.5.6.8.8 1.2l1 1.2.3.6c.3.6.1 1.3-.5 1.7l-.7.4c-.4.2-1.2-.2-1.5-.6-.3-.4-.5-1-1.1-1.3l-.7-.8a.8.8 0 0 0-.4-.4l-.2.1v5.5l-.2 1.6c.4.3.3.7.1 1.2-.1.3.1.7.1 1.1v6l-.1 1.8c0 .2-.4.4-.6.7l.4.1c.1.3.5.6.4.8-.1.4.2.8 0 1.2l-.1.9.1 1.3-.1 2c0 .3.1.5.4.4.5 0 30.9-.1 31.5 0l1.3.1h1.1l1.3-.1.9.1.8-.1h.8l.7.4v.6c0 .2-.2.3-.4.4-.6.3-1.2.1-1.9.2-.6.1-1.1-.1-1.7.1-.3.1-.6-.1-1-.1h-32.8l-.7.1-1.5.1h-1l-1.2-.1h-1.2c-.5-.1-1.1.2-1.4.1-.4-.2-.7-.1-1.1-.1l-2.1-.1-.7.1-.8.1c-.5 0-1 .2-1.5-.1-.1-.1-.4.1-.6.1h-1.3l-1.6.3-.9-.3h-.6l-1.7-.1-.5.1H95l-1.4.1-.9-.1h-2.4l-1-.1-.6-.1-2.5.2h-.1c-.5-.4-1 0-1.5-.2-.3-.1-.6-.1-.8.1h-.1c-.6-.3-1.2 0-1.7-.1-.7-.1-1.4-.2-2.1.1-.3.1-.7-.1-1.1-.1l-.7.1c-.3.1-.5.1-.8 0-.3-.2-.6-.3-1-.2l-1.3.1c-.8.1-1.6-.1-2.5.2l-.5-.1h-1.9l-1.1-.2-.4.1c-.5.3-1.2.4-1.6.1-.5-.2-.8-.1-1.3-.1h-2.3l-1-.1h-.2c-.3.4-.6.1-1 .1h-2.7c-.6 0-1.1.1-1.7-.1-.3-.1-.7 0-1.1.1h-.3c-.6-.3-1.2 0-1.8 0l-1.9.1c-.5 0-1-.2-1.6-.1h-1.7l-1.8.1-.9-.1H42.6c-1.1 0-2.1-.2-3.2 0-.7.1-1.5-.1-2.2.1-.6.1-1.3-.1-1.9-.1l-.6.1-1.9.1-1.4-.2H29.8l-1.4.1c-.5 0-1.1.2-1.6.1l-1.4-.1h-.9l-1.7.1-1.3-.1H17.3l-1-.1h-.6c-.2-.3-.4-.1-.5 0l-.7.2-2.4.2H12c-.5.6-1 .1-1.6 0l-.9-.3H8.1c-.5-.1-1-.2-1.5.1-.2.1-.6 0-.8-.1-.2-.1-.2 0-.4 0a3 3 0 0 1-1.6.1H2.4l-2.4-.1-.6-.3-.4-.5c0-.2 0-.5.3-.6a3 3 0 0 1 1-.2l1.9.1h1.5c.6-.2 1.2 0 1.8.1h.1c.5-.3 1.1 0 1.6 0l1.3-.1h2.6l1.8-.1.8.1.9.2h.2l1.6-.1h2l-.1-.9c0-.5 0-.5.5-.5l.9.1.5.4c.3.3.3.7.6.9l.3.2h1.3c.7-.2 1.5-.1 2.3-.1l1.3.1c.4.1.8.1 1.2-.1l1-.1 2 .3h.6c.6-.3 1.1-.1 1.7 0 .5.1.7 0 .7-.6l.1-.7c-.3-.4-.4-1-.2-1.6.1-.3 0-.5-.3-.7l-.6-.4-1.1-1.1c-.3-.2-.5-.4-.6-.8l-.4-.3c-.5-.2-.8-.8-.7-1.3.1-.3.3-.4.6-.4.4-.1.8.2.9.6l.1.2 1.7 1.7c.3.2.4.2.4-.2v-1.9-1.5-1.4c0-.3-.2-.6-.5-.5l-.5-.6-.9-.9-1.3-1.6c-.2-.2.1-.9.3-1 .2-.1.5.1.7.4.3.5.6.9 1.1 1.2l.9.8h.2l.1-.9v-1.3-.6c0-.3-.2-.6.1-.8.1-.1.1-.4.3-.4.3-.1.7-.2.8-.1.2.2.2.6.2.9l-.1.6-.1 1.7c0 .4 0 .9.3 1.3l1.1-1.2 1.2-1.1c.1-.1.5 0 .6.1.2.2.2.4 0 .7l-.9 1c-.4-.1-.7 0-.8.5a3 3 0 0 1-.5.7l-.1.1-.6.7-.2.4-.1 1.8v1.1c-.1.6.1 1.1.2 1.7v.5c.2-.1.5-.1.7-.3l1.3-1.2 1.1-.8c.4-.2.5.1.7.2l-.1.6c0 .3-.1.6-.4.8l-1.8 1.5-.9.6c-.4.4-.9.6-.7 1.3l-.1.5v1.2l.1.6c.2.1.5.1.8 0 .9-.1 1.7-.1 2.5.2h1.1l1.2-.1c.4.1.9-.1 1.3-.1h.1c.4.2.9.1 1.4.2h.3l1.4-.2.7.1c.4.2.8.2 1.1.1.3-.1.7-.1.9-.5v-.5l-.1-.6.1-1.9.1-1.3c0-.3-.1-.6 0-.8.2-.3.2-.5.2-.7l-.1-.2c-.1-.1-.2-.2-.1-.3.1-.5-.2-.8-.6-1.1l-.8-.8-1.2-.9-.6-.5-.9-1.2c-.2-.4-.3-.9-.2-1.4.1-.6.2-1.2.1-1.8l-.3-1.1c0-.7-.6-1-.9-1.5l-.1-.6c.2-.2.4-.5.7-.6.3-.1.5.2.7.4l.2.3c.4.3.5.7.6 1.1l.3.8c.1.3.2.7.1 1v1.7l.1 1c0 .5.4.8.9 1l.2.1c.4.6 1 .8 1.6 1.1.3.1.3-.1.3-.3 0-.6 0-1.3-.2-1.9-.1-.4 0-.8.1-1.2l.1-.3V88l-.1-.7a3 3 0 0 1 .2-1.6v-.2l-.2-1.8v-.5-1.6-1.3c.8-1.1.8-1.5.8-2zm-3.1 1.6l.3-.6-.1-.1-.6.4.4.3z"/><path d="M88.2 96.3l.5-.1.3-.2.4-.3h.2c.2-.5.8-.6 1.2-.9L92 94l1.3-1.2c.2-.2.2-.4-.1-.4l-.7-.1c-.6 0-1.2 0-1.7.2-.3.1-.8.1-.9.6l-.1.1-1.6.8-1 .5-2 .5-.6.2-1.6.2h-1.8l-1.1-.1c-.2 0-.7-.4-.7-.6 0-.3.3-.7.6-.8l.5-.1 1.9.1h.8c.1-.2.4-.4.8-.3.2.1.5-.2.8-.2l.8-.2.7-.2 1.3-.6 2.2-1.3 1-1a28 28 0 0 0 1.6-2l.5-1c.5-.6.6-1.4 1-2.1.2-.4.2-1 .3-1.5.1-.6.1-1.3.3-1.9.1-.2-.1-.5-.1-.8v-.7-.2l-.6-2.7-.7-1.7-.3-.7-1-1.3c.2-.3-.3-.4-.4-.6l-.1-.1c-.1-.5-.5-.7-.8-1l-.3-.3c-.2-.1-.5-.1-.6-.5l-.3-.2-.4-.3-.2-.2-.5-.3-.9-.5-1.1-.4-.8-.3c0 .3-.2.2-.4.2l-.6-.1h-.2c-.6-.3-1.3-.2-1.9-.3H81l-.3-.1c-.1 0-.1-.1-.2 0l-1.4.4H78.5c-.2.3-.6.2-.8.4l-1.2.5c-.4.1-.8.3-1.1.6l-.3.2c-.8.3-1.4.9-2 1.4a12 12 0 0 0-1.5 1.8l-.5.7c-.2.2-.2.5-.3.8l-.3.5-.3.8a7 7 0 0 0-.5 1.3l-.4 2.3-.2.6.2 1.1.1.9.2.9c0 .6.5 1.1.5 1.7v.1c.5.6.5 1.5 1.1 2.1l.1.2c.1.6.5.8.9 1.1l.1.1c.1.7.7.9 1.1 1.3l1.5 1.2c.3.3.7.3 1 .5l.8.5c.6.3 1.2.7 1.9.7l.4.3.2.5c-.4.5-1 .5-1.7.4-.5-.1-1-.1-1.4-.5l-.6-.2-2.3-1.6-1.2-1 .1.6c.1.3 0 .5-.3.6-.7.3-1 .1-1.1-.6l.2-.4.2-.1c.2-.2.3-.2.5 0l.4.1.1-.1-.6-.6-.6-.7-1-1.5-.6-1-.1-.4c0-.4-.3-.6-.4-1l-.6-2.2c-.2-.8-.2-1.6-.2-2.4l.1-1.5.1-.7c0-.5-.1-1 .1-1.4.3-.6.2-1.4.7-1.9-.1-.8.5-1.3.8-2l.5-.9.8-1 .6-.5.8-.8.5-.5.5-.5c.4-.3.8-.7 1.3-.9l1.7-.8c.4-.2.8-.4 1.2-.4.8-.2 1.5-.5 2.3-.5.4 0 1 .2 1.4-.2h.3l2.1.1 1.7.1 1.1.4 1.5.5.5.3.6.3 1.1.6.8.2.7.1 1.5-.1 1.1.1h2.2l.4-.2-.5-.6c-.1-.3 0-.6 0-.8l.1-2.2c0-.3.1-.6.3-.8l.8-.4c.5-.1 1-.2 1.5 0 .2.1.5 0 .7-.1h2c.4 0 .7.5.9.8.3.5.1 1.1.2 1.6 0 .4-.2.9 0 1.3.1.2-.1.5-.2.8l-.5.6c-.4.4-.2.8-.2 1.3l.1.4c.7.2 1.6-.1 2.2.6l-1.1.8h-.7c-.5 0-.6.1-.5.6v1.3l.1 1.1c0 .3.2.6-.1.9v.6l.1.1.1 2v1.5l-.1.7c-.1.8.1 1.6.1 2.5l-.1 2.5v2.3l.3.3 1.3.1.3-.3.7-1.1.1-.5c.1-.6.2-1.1.1-1.6v-1.7V82v-1.5-1.2l.1-.8v-1l.1-1.2c0-.1.1-.2 0-.2l-.8-2c-.1-.4-.2-.9-.1-1.3 0-.2.4-.4.7-.5.2-.1.3.2.4.4.2.3.5.6.6 1l.3 1.2v1.5l-.1.6c.2.3.1.8.1 1.2v1.5l.1 1.2c.2.7-.1 1.4-.1 2.1l.1.9-.1 1.1v1.2c0 .7-.2 1.4-.4 2-.2.8-.8 1.3-1.2 1.8l-.2.3-.3.2c-.5.2-1 .1-1.5 0-.4-.1-.6.2-.6.6l.1.8v.1l.6.8.2.6v1.9l-.2.8-.3.6c-.1.5-.5.6-.9.6h-1.4l-2 .1c-.2 0-.5 0-.7-.2-.3-.2-.9-.3-.9-.9.8-.2 1.6-.7 2.5-.4h1.3c.3.1.5.2.7-.1.2-.4.6-.7.4-1.3l-.1-.7c0-.4-.4-.6-.8-.6h-1.1l-1.2.1c-.3.1-.5.3-.5.6V95c.1.2-.1.5-.5.5h-.2c-.5.1-.8-.1-.8-.6l.2-2.3v-.3l-.4.3-1.2 1.3-.7.7-1.8 1.3-1.6 1.1-.3.1-1 .5-1.3.5-.4.1c-.2.1-.4.3-.7.1H87c-.5.2-1 .1-1.5.4l-.8.1c-.5-.1-.9.1-1.4.2H80l-.3-.1-.2-.1c-.5-.1-1.1 0-1.5-.2-.7-.3-1.3-.5-2-.6-.7-.1-1.3-.6-2-.8-.7-.2-1.2-.8-1.9-1.1-.3-.1-.5-.4-.7-.6l-1-.6-.1-.1c-.2-.5-.7-.8-1.1-1.2l-1.3-1.3-.7-1-1.2-2.1-.2-.5-.9-2.4-.5-1.6-.1-1.1-.2-.8v-.9l.1-1.9-.1-.2-.1-.5c.4-.6.2-1.4.4-2 .2-.5.1-1.1.5-1.6v-.3l.1-.6.6-1.5c.2-.7.7-1.2 1.1-1.8l.1-.2c.1-.5.4-.9.8-1.3h.1c.2-.8 1-1.1 1.5-1.6l.3-.4 1-.9 1-.9 1.1-.6 1.2-.8h.1c.8-.1 1.4-.8 2.2-.8l1-.3c.5-.2 1.1-.3 1.7-.3l1.6-.2h1.5l.4-.1 1.8.1 1.3.3.2.1c1-.1 1.8.4 2.6.7l1.7.6.6.4.7.4 1.3.8.9.7.7.6.1.4c-.2.6-.5.7-1.2.4l-.6-.2-1.7-1.1-.9-.5-.5-.4-.2-.1-1-.3-.4-.1-1.7-.6h-.1l-2.5-.4-1.1-.1-1.5.1c-.3 0-.6-.1-.8 0-.5.2-.9.1-1.3.1s-.8.3-1.2.4l-1.6.5-.5.2-1 .5c-.9.5-1.8 1-2.6 1.7-.5.4-1.2.7-1.4 1.4-.6.1-.8.6-1.1 1-.5.6-1 1.2-1.3 1.9-.3.6-.7 1.2-.9 1.9l-.5.8-.3 1.2v.2c-.6.6-.2 1.4-.5 2l-.2.6-.1 1.4v1.9c.1.5 0 1.1.3 1.7.1.3.4.7.2 1.2-.1.4.3.6.4.9l.1.2c-.1.6.4 1.1.6 1.6l.4.9.7 1.1.3.4.6.8.7.8c.2.3.4.6.7.7l.5.6.2.2c.7.2 1.1.7 1.5 1.1l.3.3 1.6.8.7.4 2.2.7 1.6.3.6.1c.4.2.8.3 1.3.2.3-.1.7.1 1 .1l1.3-.2.9-.1c.4-.1.9-.1 1.3-.3l.9-.4h.1c.4.2.7-.2 1.1-.2.4 0 .5-.2.6-.2zm11.9-21.8l-.1.1h-.5l-1 .1-.1.1-.2 1.2.2 2.3v2c0 .4-.2.8 0 1.2v1.3.6c.1.4.2.7 0 1.1l-.1 1 .1.6c-.2.9 0 1.1.8 1.2.2 0 .3.3.5.5-.1.1-.2.3-.4.3l-.8.3-.2.4.1 1.1-.1.6v1.4c0 .2 0 .4.4.3.4-.1.8-.2 1.2 0 .2.1.4 0 .3-.3l-.1-1.9.1-2.3-.1-1.6.1-1.7-.1-.6v-1.9l-.1-3.2v-.2l.1-.9.1-1.5-.1-1.6zm-8.3-3.7l.8 1.1c.5.4.8.8 1.1 1.3l.2.4.5.8.3.6.6 1.5.3 1.5.1.6c.4.6.3 1.3.4 2v.9l-.1 1.4c-.1.7-.1 1.4-.3 2L95 87c-.1.3-.1.5.3.5h.8c.8 0 .9-.2.8-.9v-.3-1.2l.1-1.2-.1-.2-.1-.2c.1-.6.2-1.3.1-1.9v-1.7-.8l.1-2.7v-.5-.5c.1-.5.1-.6-.5-.6-.2 0-.4 0-.6-.2-.5-.7-.6-.7.4-1h.2c.3 0 .4-.1.4-.4l.1-1.6.1-.7-.3-.4h-3.7l-.8.1-.5.2zm8.8-4.9l-.5-.1c-.5 0-.9.2-1.3.1h-1c-.4.1-.5.3-.5.7v.9c-.1.4 0 .7.4.8l1.1.2.7-.1h1.3l.2-.2.1-.9v-.8l-.5-.6zm-3.9 25.2l.2-.7v-1.6c0-.3-.1-.4-.4-.4h-.4l-.7-.1h-.7c-.2-.1-.3-.1-.4.2l-.5.8-.5.6-.8 1c0 .1.2.2.5.2l1.2-.1.5-.1 2 .2zm1.6-18c.1.1-.2.5.3.5l1.3-.1.2-.1c.1-.6.2-1.2.1-1.8-.1-.5 0-.8.1-1.2.1-.3-.1-.4-.3-.4h-1c-.2 0-.4.2-.4.3-.2.8-.2 1.8-.3 2.8zM16.1 48.2c0-.3.1-.5.4-.6l.5-.5c.2-.2.4-.5.7-.5l.2-.2c.3-.4.6-.9 1.1-1.1a9 9 0 0 0 1.6-1.1l.6-.2.9-.4c.4-.2.7-.5 1-.5l2-.3h.2c.6-.4 1.3-.3 2-.3h.1c.4-.3.7-.1 1.1 0h1.1l1.4.1h.4l1.1.2c.9.2 1.7.4 2.5.9l1.9.8a7 7 0 0 1 1.8 1.2l1.5 1.4 1.3 1.2c.2.2.6.4.7.7.2.6.7.9.9 1.5l.5.8.4.9c.2.4.3.9.6 1.3.4.6.4 1.2.5 1.8l.2.9.1 1.4.1.3v3.4c-.2.8 0 1.8-.6 2.5l-.1.3-.3 1.1v.2c-.1.5-.3 1-.6 1.4l-.4.5c-.3.6-.6 1.3-1 1.8s-.6 1.1-1.2 1.4c-.3.1-.5.4-.7.6l-.4.3c-.4.2-.6.6-.9 1-.1.2-.3.4-.5.4-.3 0-.4.3-.6.4l-1.4.8-1.4.7c-1 0-1.7.3-2.4.3l-.3.1-2.3.4h-.5l-.1.6-.1.7v.3c.2 1.1.1 2.2.1 3.3l.1 1.2.1.2.2-.2.9-2.7c.1-.6.6-.9.9-1.4l.4-.3.2-.2.1-.2 1-.5c.8-.4 1.6.1 2.3.1.7 0 1.3.5 1.9.8l.3.4c0 .4.4.7.6 1.1l.1.5 1 2.6c.1.3.4.6.9.6.3 0 .5.2.8.4l1.3.7c.3.2.4.4.4.7 0 .3-.2.5-.5.6l-.4.2-1.6-.7-.2-.2c-.7-.2-1.2-.7-1.5-1.3l-.3-.4-.4-.9-.5-1.3-.1-.4c0-.2.1-.4-.2-.4l-.1-.2c-.1-.7-.5-1.1-1.1-1.4l-.6-.3c-.4-.2-.8.2-1.2 0l-.2.1-1.1.5-.2.2-.6 1.1-.2.6c-.2.6-.3 1.3-.7 1.9l-.5 1-.2.2-.8.7-.1.1c-.6.1-1 .7-1.5.9-.5.2-1 .5-1.4.9-.5.5-1 1-1.1 1.8l-.1.2-.1.2.1 1.1c.2.8.1 1.5-.1 2.3l-.5 1-.2.4-.7.6-.7.5c-.2.3-.6.4-.9.6-.3.2-.6.4-.8.8l-.8 1.2a6 6 0 0 0-.6 2.4V100.4l.1.4-.7.4c-.3.2-.7-.1-.8-.3-.3-.5-.4-1.1-.6-1.7l.1-.6.2-1.4V97l.8-1.5.1-.3.1-.2c.6 0 .6-.6.9-.9l1.3-1 .6-.4 1-1 .1-.3.2-.5v-.2-1.5l-.2-.9-.1-.2.2-.8.5-1.4.2-.5c.3-.4.5-.8.9-1.1.3-.3.7-.4 1.1-.6l1.1-.6c.5-.4.5-.9.5-1.5v-1.5-.9c.2-.7.2-1.3 0-2-.1-.4 0-.9.1-1.4 0-.3-.1-.4-.4-.4l-1.9-.1-2.4-.6-1.7-.6c-.4-.1-.8-.2-1.1-.5-.5-.5-1.1-.6-1.6-.9l-.8-.7-1.4-1.3-.9-1.1-.3-.3-.2-.2-.9-1.3c-.3-.5-.8-1-.9-1.6l-.4-.9c-.4-1.1-.9-2.2-.9-3.4l-.3-1.6-.1-2.4c-.1-.5.1-1 .2-1.5l.2-1.7.5-1.3.1-.1.5-1.3 1.2-2.4.9-1.1.4-.4c-.1.1-.1.1 0 .1zm5.1 12.9l.1-.2.4-.3.7.5.3.4 1.7 1.5c.6.6 1.3 1.2 1.8 1.9.3.4.8.6 1 1.1.1.3.5.5.7.7.2.2.4.1.4-.2l-.2-.9c-.2-.5.3-.9 0-1.4V63v-1.4l-.2-.4-.7-.7-.7-.8-1-.9-.4-.3-.6-.6c-.3-.6-.8-1.1-1.2-1.5l-.8-.9-.6-.8-.3-.4.1-.8h.6l.2.1 1.7 1.4.3.3.8 1.1 1.4 1.3c.4.3.8.6 1.1 1.1l.3.2.2-.3v-.6c0-.4-.1-.8.1-1.2l.1-.2c-.2-.5 0-1 .1-1.5v-1.7-1.9c0-.6.1-1.2-.1-1.8v-.3-1.3l.3-.3.2-.3c.1-.1.3-.1.4 0l.3.6c.1.3 0 .5 0 .8 0 .5.1 1.1 0 1.6-.1.6-.2 1.1.1 1.6v.2l-.1 1.1.1 1.2v4l.1.3.2-.1.5-.3.8-.4c.2-.1.2-.3.2-.5s.1-.5.3-.6l1.3-.9c.8-.5 1.3-1.3 1.9-1.9.2-.2.3-.7.8-.6l.7-.1.3.2.3.6c0 .2-.1.5-.3.6-.6.3-1 .8-1.5 1.2-.5.3-.9.8-1.3 1.3-.5.7-1.2 1-1.8 1.5l-.4.2c-.4 0-.4.2-.5.5l-.5.8c-.8.6-1.1 1.5-1.1 2.5l.1 1.3v2.5c0 .3.1.3.3.2.2-.2.4-.5.7-.6.5-.2.7-.7 1.1-1l.8-.8 1.2-.8 1.7-1.6c.4-.4.8-.6 1.4-.6.2 0 .3.1.3.3l-.3.8c-.2.3-.7.4-.9.7-.3.5-.8.9-1.2 1.3l-.3.4c-.6.6-1.1 1.2-1.8 1.7l-1.4.9c-.4.3-.9.4-1.2.8l-.1.1c-.4.2-.5.5-.4.9l.1 1-.1 1.1v2.2l.1.2.9.1h.4l1.5-.3 1-.4 1-.4.8-.4 1.4-.7 2.1-1.6.5-.7 1.3-1.5c.6-.6 1-1.3 1.2-2.2l.2-.3.2-.2.7-1.9.2-.9c.1-.5.4-1 .3-1.6 0-.4 0-.9.2-1.3.2-.5.3-1 0-1.5v-.3c0-.7 0-1.4-.3-2.1-.3-.7-.2-1.5-.7-2l-.5-1.4-1.3-2-1.5-1.9-1.4-1.2-.9-.8c-.2-.3-.3-.5-.5-.5l-.7-.3c-.8-.4-1.5-.8-2.4-1.1l-1.9-.4-.6-.1c-.7-.1-1.5-.2-2.2-.1-.4.1-.8 0-1.3-.1l-.6.1-.9.2-.7.1-.7.2-1.8.5c-.4.1-.7.4-1.1.6l-2.2 1.3-1.3 1-.1.1c.1.4-.3.6-.5.8l-.7.7c-.3.4-.5.9-.9 1.3-.4.3-.5.9-.7 1.4a28.3 28.3 0 0 0-1.4 4.7l-.2 1.7v.5l.1 1.1.2 1.7.2.7.4 1.5.2.3c.6.5.5 1.3.9 1.9l.9 1.5c.4.4.8.8 1 1.4l.2.2.3.2 1 1 .7.5.4.2c.2.2.3.5.6.6l1.2.6 1.2.5 1.3.5.6.2c.2-.1.5-.1.9.1l.6.2.7.1 1.2.1v-.7l.1-1.1c-.1-.4-.3-.8-.1-1.3v-.3l.1-.4c.2-.2.2-.4.1-.7l-.1-.3c0-.4-.1-.7-.5-.9l-.7-.6-.6-.7-2-1.6c-.2-.1-.2-.4-.4-.6-.2-.2-.3-.6-.5-.7l-1-.8c-.4-.5-.8-.9-1.1-1.5a4 4 0 0 0-.7-.9zM83.6 14.9c-.2.8.1 1.7 0 2.6v1.9c0 .1.2.3.4.3l.6.1 1.5.1.4.4.2 1c.1.4-.1.8-.4 1l-.7.2-1.5-.2c-.3 0-.5.2-.5.5l.1 1.2v1.8l.1.5c.2.6-.3 1.1 0 1.7.1.2-.1.4-.1.6v.7l.1.3-.1 1.6c0 .5.1.9.4 1.3.4.6 1 1 1.4 1.7.4.7 1 1.3 1.5 1.9l.1.1c.2.6.8 1 1.2 1.5l1.3 1.6.7 1c.2.4.6.6.9 1l1.2 1.5c.2.2-.2.7-.6.8-.6.1-1.4-.7-1.5-1.1l-.1-.2-1.1-1.3-.7-.7-.6-.9-.8-1-1.3-1.7-1-1.2-.7-.9-.8-.8-.1-.2-.7-.9c-.7.6-1.3 1.1-1.6 1.9l-.1.1c-.6.3-.9.9-1.2 1.4l-.6.9-.5.3-.2.6-.1.2c-.7.5-1.1 1.2-1.5 1.9l-.2.1-.3.3-.3.3-1.1 1.2L74 43l-1.4 1.8-1.6 2-1.4 1.8-.9 1-.1.3-.2.4-.6.8c-.2.4-.5.7-.9 1l-.6.6c-.2.4-.5.6-.6 1l-.5.6c-.6.5-.9 1.3-1.4 1.8l-.9 1-1 1.3-.2.3-1 1.4-.9 1.1-.4.5c-.4.4-.6.9-1.1 1.3-.4.3-.5.8-.8 1.2l-.8.9-.5.8-1.1 1.3-1.1 1.6c-.3.3-.4.9-1 .8-.5 0-.6-.2-.7-.7-.1-.4.1-.7.4-1 .4-.3.6-.7.8-1.2.1-.4.6-.7 1-1.1l.4-.5.4-.6.3-.5 1.3-1.6.9-1 1-1.4.9-1.1.7-1c.3-.4.8-.7 1-1.1.2-.4.6-.7.9-1l.4-.9v-.1l1.4-1.6.4-.4.2-.2c.1-.5.5-.8.8-1.2l.3-.5 1.5-1.6.3-.4.5-.6.6-.8v-.1l1.1-1.3.2-.3c.4-.5.6-1.2 1.1-1.5.6-.5.9-1.2 1.5-1.7l1-1.3c.1-.2.4-.3.3-.6l.1-.1c.7-.2.8-1 1.3-1.5l1.3-1.6.5-.7.5-.5c.1-.1.3-.2.3-.5l.4-.5.4-.6 1.6-1.8c.3-.3.3-.7.4-1 .3-1 0-2 .1-2.9l-.1-1.1v-.2c.4-.3.1-.6 0-1l.1-.7-.1-1.8.1-.6-.1-.9-.5-.1-1 .1c-.5.1-1.2-.1-1.4-.6l-.1-.8c-.2-.6.3-.9.6-1.2h.7s.1.1.1 0c.4-.2.8 0 1.2 0l.3-.2.1-1.6c.1-.7-.1-1.4-.1-2.1 0-.3.1-.5.3-.7.2-.2.4-.2.7-.2a5 5 0 0 1 2-.4zM41.9.1l1.2-.1h.6l.8.1.7.1.5.2c.8-.1 1.4.4 2 .8l1.4 1 .3.3 1 .9.3.4.3.5c0 .3 0 .6.2.8.3.5.4 1 .4 1.5l.2.7c.4.8.9 1.5 1.9 1.7l1 .4c.8.3 1.5.8 2.1 1.5.4.5.8 1.1 1 1.7l.2 1.5-.1 1c-.1.4-.7.7-1.1.6l-.5-.1-1-.1h-.7-.1c-.3-.2-.6-.1-.9.1-.4.2-.6-.1-.9-.2-.3-.1-.5-.1-.8 0l-.9.1-1.3.1h-1.8l-2.7.1-2 .1-.6-.1h-1l-.9-.1c-.3 0-.5.2-.8.1-.9-.2-1.8.2-2.7-.1l-.4-.1h-2.1c-.7.1-1.3-.2-1.9-.1l-.5.1-1.4-.1-1.5.1H28.5c-.7.2-1-.1-1.2-.8-.2-1 .5-1.5 1.1-2.2.5-.5 1.1-.8 1.7-1.1l.4-.1c.7.1.9-.3 1.2-.7.5-.8.6-1.6.8-2.4l.6-1.5c.2-.5.7-.9.8-1.4.1-.5.4-.9.7-1.2.4-.5.7-1.2 1.2-1.5l.2-.1c.5-.2.8-.6 1.2-1 .1-.3.5-.4.8-.5.5-.2 1-.2 1.3-.6l.4-.1.8-.2c.3-.1.5-.3.8 0h.6c0-.1 0 0 0 0zM29.2 14.3l.1.1 1.2-.3 3.2.1h4.1c.5 0 1.1-.2 1.6 0l1 .1c.3 0 .7-.2 1 .1h.1c.9-.4 1.9-.3 2.9-.2l.9.1c.2 0 .4-.2.5-.1.4.2.8 0 1.2.1h2.7l1-.1 1.1.1 3-.1h.9c.6 0 .7-.3.5-.8l-.2-.5c-.5-1-1.1-1.8-2.2-2l-.6-.3-.8-.4-.8-.5-.8-1a3 3 0 0 1-.8-2.2l-.2-.6-.5-.9c-.3-.5-.6-1.1-1-1.5-.4-.5-1-.8-1.5-1.2l-.1-.1-2.2-.6-1.7-.1h-1.3l-1.3.1-.9.5c-.8.3-1.5.7-2.1 1.3-.6.6-1.4 1.2-1.7 2l-.7 1.2-.8 2.2-.4 1-.2.7-.2.7-.5.8-.5.5-1.3.4-.2.1-1.1.9c-.3 0-.3.2-.4.4z"/><path d="M79.1 81.4c.1.6.3 1.1.7 1.6.5.6 1.2.9 1.9 1.1.5.1 1-.1 1.4-.3l1.2-.1c.2 0 .3.6.1.8l-.3.4c-.2.2-.4.4-.7.4l-1.4.2c-.5.1-1 0-1.4-.2-.3-.1-.5-.3-.9 0l-1.9 1.8-1 .8h-.1c-.3-.2-.7-.3-1-.6l-.8-1a.3.3 0 0 1 0-.4l.8-1 1.3-1.3.8-.7.1-.5c-.1-.7-.2-1.3-.1-2 .1-.6.2-1.1.5-1.6l.1-.1c.6-.5 1.1-1.2 1.8-1.4.4-.1.9-.4 1.4-.2l.4-.1.5-.1 1.1.3c.4 0 .8-.2 1.1-.5.5-.6 1.2-1.1 1.8-1.5l1-.8c.1-.1.5 0 .5.2 0 .4.3.3.5.4.4.1.5.3.6.7.2.7-.3.9-.6 1.3-.5.5-1.2.7-1.5 1.4l-.1.1c-.4 0-.6.3-.8.6H86c-.3 0-.5.3-.3.5.3.3.1.6.1.9l-.1 1.1c-.1.5.1 1.2-.6 1.6l-.2.1c-.3-.2-.6-.3-.8-.6-.2-.3-.1-.7.1-.9.3-.3.2-.6.2-.9l-.5-1.3c-.1-.6-.6-.7-1-1-.5-.4-1-.3-1.5-.2l-1.1.3-.2.2-.6.4-.2.6-.2.5v1z"/><path d="M81.7 82.1c-.4 0-.7-.2-.7-.6 0-.5.5-1.3.9-1.3.3 0 .9.5.9.8 0 .6-.5 1.1-1.1 1.1zM76.6 95.4c0 .2-.4.8-.6.8a.9.9 0 0 1-.8-.8c0-.4.3-.8.8-.8.2 0 .6.5.6.8zM88.2 96.2c-.4-.1-.8-.2-1.1-.6l-.1-.2c.1-.4.4-.6.7-.7.2-.1.5 0 .6.2.2.2.3.5.2.8l-.3.5c0 .1 0 0 0 0zM89.3 67.2l-.4.4c-.2.4-.5.4-.9.2a.5.5 0 0 1-.2-.7c.1-.2.1-.6.5-.6.6 0 .8.1 1 .5v.2zM75.5 67.3c0 .4-.4.9-.7.9-.4 0-.7-.4-.6-.9 0-.4.3-.7.8-.7.1.1.5.5.5.7zM66.2 80.4c.3.2.7.2.9.4.2.2.1.6.1.9-.5.2-1 .3-1.4-.2-.3-.4.3-.7.4-1.1zM82.8 97.2c-.5.1-1 .4-1.3-.3-.1-.2 0-.6.1-.7.2-.1.3-.6.7-.3.5.3.6.6.5 1.3zM67.6 87.9c-.4 0-.7-.2-.7-.5 0-.6.2-.8.9-.9.2 0 .5.4.5.8.1.4-.2.7-.7.6zM103.5 81.3c0 .4-.4.7-1 .6-.4 0-.3-.4-.4-.6-.1-.3.5-.8.8-.8.3 0 .6.3.6.8zM102.7 85.1c.4 0 .8.3.8.7 0 .3-.4.7-.9.7a.6.6 0 0 1-.6-.6c0-.4.4-.8.7-.8zM71.9 69.8c0 .4-.4.8-.7.9-.3 0-.7-.4-.7-.7 0-.3.4-.8.6-.8.5 0 .8.3.8.6zM81.5 65.8c0-.5.3-.9.6-.8.3 0 .6 0 .6.4l-.1.7-.4.3c-.6 0-.7-.2-.7-.6zM68.2 75.1v.8c-.1.4-.4.6-.7.5-.5-.2-.6-.4-.5-.8.1-.6.2-.6.8-.4l.4-.1zM102.8 77c-.4 0-.5-.3-.5-.8 0-.2.4-.6.6-.6.2 0 .7.4.7.6-.1.4-.4.8-.8.8z"/></g></svg>
