<svg width="18" height="18" viewBox="0 0 18 18" fill="none" xmlns="http://www.w3.org/2000/svg">
<path d="M8.8065 8.8804C8.30804 8.8804 7.80035 8.79108 7.40342 8.62138L1.95726 6.28125C0.572645 5.68282 0.369568 4.87895 0.369568 4.44129C0.369568 4.00364 0.572645 3.19977 1.95726 2.60134L7.40342 0.26121C8.2065 -0.0871309 9.41573 -0.0871309 10.2188 0.26121L15.6742 2.60134C17.0496 3.19084 17.2619 4.00364 17.2619 4.44129C17.2619 4.87895 17.0588 5.68282 15.6742 6.28125L10.2188 8.62138C9.81266 8.80002 9.31419 8.8804 8.8065 8.8804ZM8.8065 1.34196C8.49265 1.34196 8.18804 1.38662 7.9665 1.48487L2.52034 3.825C1.95726 4.07509 1.75418 4.32518 1.75418 4.44129C1.75418 4.55741 1.95726 4.81643 2.51111 5.05759L7.95727 7.39772C8.40035 7.58529 9.20342 7.58529 9.6465 7.39772L15.1019 5.05759C15.665 4.81643 15.868 4.55741 15.868 4.44129C15.868 4.32518 15.665 4.06616 15.1019 3.825L9.65573 1.48487C9.43419 1.39555 9.12035 1.34196 8.8065 1.34196Z" fill="#292D32"/>
<path d="M9 13.5339C8.64923 13.5339 8.29846 13.4624 7.96615 13.3195L1.69846 10.6221C0.747692 10.2202 0 9.10369 0 8.0944C0 7.7282 0.313846 7.42451 0.692308 7.42451C1.07077 7.42451 1.38462 7.7282 1.38462 8.0944C1.38462 8.58565 1.8 9.20194 2.26154 9.40738L8.52923 12.1048C8.82462 12.2298 9.16615 12.2298 9.47077 12.1048L15.7385 9.40738C16.2 9.21088 16.6154 8.58565 16.6154 8.0944C16.6154 7.7282 16.9292 7.42451 17.3077 7.42451C17.6862 7.42451 18 7.7282 18 8.0944C18 9.10369 17.2523 10.2202 16.3015 10.631L10.0338 13.3284C9.70154 13.4624 9.35077 13.5339 9 13.5339Z" fill="#292D32"/>
<path d="M9 18C8.64923 18 8.29846 17.9285 7.96615 17.7856L1.69846 15.0882C0.664616 14.6416 0 13.6502 0 12.5516C0 12.1853 0.313846 11.8817 0.692308 11.8817C1.07077 11.8817 1.38462 12.1943 1.38462 12.5605C1.38462 13.1232 1.72615 13.6412 2.26154 13.8735L8.52923 16.5709C8.82462 16.6959 9.16615 16.6959 9.47077 16.5709L15.7385 13.8735C16.2738 13.6412 16.6154 13.1321 16.6154 12.5605C16.6154 12.1943 16.9292 11.8906 17.3077 11.8906C17.6862 11.8906 18 12.1943 18 12.5605C18 13.6591 17.3354 14.6505 16.3015 15.0971L10.0338 17.7945C9.70154 17.9285 9.35077 18 9 18Z" fill="#292D32"/>
</svg>
