<svg width="18" height="18" viewBox="0 0 18 18" fill="none" xmlns="http://www.w3.org/2000/svg">
<path d="M11.3565 18H6.68704C2.41538 18 0.599487 16.2334 0.599487 12.106V8.34693C0.599487 8.00368 0.893489 7.71902 1.24802 7.71902C1.60255 7.71902 1.89655 8.00368 1.89655 8.34693V12.106C1.89655 15.5302 3.15038 16.7441 6.68704 16.7441H11.3479C14.8845 16.7441 16.1383 15.5302 16.1383 12.106V8.34693C16.1383 8.00368 16.4323 7.71902 16.7869 7.71902C17.1414 7.71902 17.4354 8.00368 17.4354 8.34693V12.106C17.4441 16.2334 15.6195 18 11.3565 18Z" fill="#292D32"/>
<path d="M9.02116 9.62788C8.06998 9.62788 7.20529 9.26788 6.59134 8.60648C5.9774 7.94509 5.69205 7.08276 5.78716 6.16183L6.36653 0.569272C6.40112 0.251132 6.67782 -3.05176e-05 7.01506 -3.05176e-05H11.0532C11.3905 -3.05176e-05 11.6672 0.24276 11.7018 0.569272L12.2811 6.16183C12.3762 7.08276 12.0909 7.94509 11.4769 8.60648C10.837 9.26788 9.97234 9.62788 9.02116 9.62788ZM7.59439 1.25578L7.07558 6.28741C7.01505 6.84834 7.188 7.37578 7.55115 7.7609C8.28616 8.54788 9.75616 8.54788 10.4912 7.7609C10.8543 7.36741 11.0273 6.83997 10.9668 6.28741L10.4479 1.25578H7.59439Z" fill="#292D32"/>
<path d="M14.4783 9.62788C12.723 9.62788 11.1578 8.25485 10.9762 6.56369L10.3709 0.694853C10.3537 0.519039 10.4142 0.343225 10.5352 0.209272C10.6563 0.0753183 10.8292 -3.05176e-05 11.0195 -3.05176e-05H13.6568C16.1991 -3.05176e-05 17.3837 1.02974 17.7383 3.55811L17.9804 5.88555C18.0842 6.87346 17.7729 7.81113 17.107 8.52276C16.4412 9.23439 15.5073 9.62788 14.4783 9.62788ZM11.7372 1.25578L12.2733 6.43811C12.3857 7.48462 13.3888 8.37206 14.4783 8.37206C15.1355 8.37206 15.7235 8.12927 16.1472 7.68555C16.5623 7.24183 16.7525 6.64741 16.692 6.01113L16.4499 3.70881C16.1818 1.81671 15.5506 1.25578 13.6568 1.25578H11.7372Z" fill="#292D32"/>
<path d="M3.52165 9.62788C2.49265 9.62788 1.55876 9.23439 0.892933 8.52276C0.227106 7.81113 -0.0841893 6.87346 0.0195758 5.88555L0.253047 3.58323C0.616225 1.02974 1.80088 -3.05176e-05 4.34313 -3.05176e-05H6.98049C7.16208 -3.05176e-05 7.33498 0.0753183 7.46469 0.209272C7.5944 0.343225 7.64628 0.519039 7.62899 0.694853L7.02372 6.56369C6.84213 8.25485 5.27701 9.62788 3.52165 9.62788ZM4.34313 1.25578C2.44941 1.25578 1.81817 1.80834 1.54146 3.72555L1.30799 6.01113C1.23882 6.64741 1.4377 7.24183 1.85276 7.68555C2.26782 8.12927 2.85582 8.37206 3.52165 8.37206C4.61118 8.37206 5.62289 7.48462 5.72666 6.43811L6.26279 1.25578H4.34313Z" fill="#292D32"/>
<path d="M11.1837 18H6.8602C6.50567 18 6.21167 17.7153 6.21167 17.3721V15.279C6.21167 13.5209 7.20609 12.5581 9.02198 12.5581C10.8379 12.5581 11.8323 13.5209 11.8323 15.279V17.3721C11.8323 17.7153 11.5383 18 11.1837 18ZM7.50873 16.7442H10.5352V15.279C10.5352 14.2242 10.1115 13.8139 9.02198 13.8139C7.93244 13.8139 7.50873 14.2242 7.50873 15.279V16.7442Z" fill="#292D32"/>
</svg>
