<svg width="18" height="18" viewBox="0 0 18 18" fill="none" xmlns="http://www.w3.org/2000/svg">
<path d="M11.9302 12.1395C11.7795 12.1395 11.6121 12.1312 11.453 12.1228C11.1433 12.106 10.8921 11.8549 10.867 11.5451C10.6828 9.2093 8.78233 7.3172 6.45488 7.13302C6.14512 7.1079 5.89395 6.85675 5.87721 6.54699C5.86884 6.38792 5.86047 6.22884 5.86047 6.06977C5.86047 2.72093 8.5814 0 11.9302 0C15.2791 0 18 2.72093 18 6.06977C18 9.4186 15.2791 12.1395 11.9302 12.1395ZM7.11629 5.95255C9.61117 6.3879 11.6121 8.38884 12.0475 10.8837C14.6512 10.8167 16.7442 8.69023 16.7442 6.06977C16.7442 3.41581 14.5842 1.25581 11.9302 1.25581C9.31815 1.25581 7.18326 3.34883 7.11629 5.95255Z" fill="#292D32"/>
<path d="M6.06977 18C2.72093 18 0 15.2791 0 11.9302C0 8.5814 2.72093 5.86047 6.06977 5.86047C6.22047 5.86047 6.38792 5.86884 6.54699 5.87721C9.50233 6.11163 11.8967 8.50606 12.1228 11.4447C12.1312 11.6121 12.1395 11.7712 12.1395 11.9302C12.1395 15.2791 9.4186 18 6.06977 18ZM6.06977 7.11629C3.41581 7.11629 1.25581 9.27629 1.25581 11.9302C1.25581 14.5842 3.41581 16.7442 6.06977 16.7442C8.72372 16.7442 10.8837 14.5842 10.8837 11.9302C10.8837 11.7963 10.8753 11.6623 10.867 11.5368C10.6828 9.21768 8.7907 7.31721 6.45487 7.13302C6.33767 7.12465 6.20372 7.11629 6.06977 7.11629Z" fill="#292D32"/>
<path d="M1.46512 5.09861C1.27256 5.09861 1.08836 5.06511 0.904178 4.98976C0.351619 4.76371 0 4.22791 0 3.63349V1.46512C0 0.661395 0.661395 0 1.46512 0H3.63349C4.22791 0 4.75534 0.351619 4.98976 0.904178C5.21581 1.45674 5.09022 2.08464 4.67162 2.50325L2.50325 4.67162C2.2186 4.9479 1.85023 5.09861 1.46512 5.09861ZM1.46512 1.25581C1.34791 1.25581 1.25581 1.34791 1.25581 1.46512V3.63349C1.25581 3.75907 1.33953 3.80931 1.38139 3.82606C1.43162 3.8428 1.52373 3.8679 1.60745 3.78418L3.77582 1.61581C3.85954 1.53208 3.84279 1.44 3.81767 1.38977C3.79256 1.33953 3.74232 1.26419 3.62511 1.26419H1.46512V1.25581Z" fill="#292D32"/>
<path d="M16.5339 18.0001H14.3655C13.7711 18.0001 13.2437 17.6484 13.0093 17.0959C12.7833 16.5433 12.9089 15.9154 13.3275 15.4968L15.4958 13.3284C15.9144 12.9098 16.5424 12.7843 17.0949 13.0103C17.6475 13.2364 17.999 13.7722 17.999 14.3666V16.535C17.999 17.3387 17.3376 18.0001 16.5339 18.0001ZM16.5255 14.1573C16.4837 14.1573 16.4334 14.174 16.3832 14.2243L14.2149 16.3925C14.1312 16.4763 14.1479 16.5684 14.173 16.6187C14.1981 16.6689 14.2483 16.7443 14.3655 16.7443H16.5339C16.6511 16.7443 16.7432 16.6522 16.7432 16.535V14.3666C16.7432 14.241 16.6595 14.1908 16.6176 14.174C16.5925 14.1657 16.559 14.1573 16.5255 14.1573Z" fill="#292D32"/>
</svg>
